<ttFont>
    <TTGlyph name=".notdef" xMin="42" yMin="0" xMax="435" yMax="1264">
      <contour>
        <pt x="42" y="1264" on="1"/>
        <pt x="435" y="1264" on="1"/>
        <pt x="435" y="0" on="1"/>
        <pt x="42" y="0" on="1"/>
      </contour>
      <contour>
        <pt x="427" y="8" on="1"/>
        <pt x="427" y="1256" on="1"/>
        <pt x="50" y="1256" on="1"/>
        <pt x="50" y="8" on="1"/>
      </contour>
    </TTGlyph>
    <TTGlyph name="A" xMin="-54" yMin="0" xMax="1277" yMax="1442">
      <contour>
        <pt x="694" y="1442" on="1"/>
        <pt x="1107" y="102" on="1"/>
        <pt x="1277" y="57" on="1"/>
        <pt x="1275" y="0" on="1"/>
        <pt x="1224" y="6" on="0"/>
        <pt x="1106" y="12" on="0"/>
        <pt x="1044" y="12" on="1"/>
        <pt x="978" y="12" on="0"/>
        <pt x="851" y="6" on="0"/>
        <pt x="794" y="0" on="1"/>
        <pt x="796" y="57" on="1"/>
        <pt x="938" y="70" on="1"/>
        <pt x="823" y="485" on="1"/>
        <pt x="784" y="485" on="1"/>
        <pt x="756" y="485" on="0"/>
        <pt x="668" y="484" on="0"/>
        <pt x="557" y="480" on="0"/>
        <pt x="429" y="472" on="0"/>
        <pt x="362" y="465" on="1"/>
        <pt x="233" y="102" on="1"/>
        <pt x="397" y="57" on="1"/>
        <pt x="395" y="0" on="1"/>
        <pt x="341" y="6" on="0"/>
        <pt x="242" y="14" on="0"/>
        <pt x="188" y="14" on="1"/>
        <pt x="134" y="14" on="0"/>
        <pt x="17" y="6" on="0"/>
        <pt x="-54" y="0" on="1"/>
        <pt x="-52" y="57" on="1"/>
        <pt x="-23" y="60" on="0"/>
        <pt x="3" y="63" on="1"/>
        <pt x="26" y="65" on="0"/>
        <pt x="73" y="69" on="0"/>
        <pt x="88" y="70" on="1"/>
        <pt x="129" y="156" on="0"/>
        <pt x="218" y="360" on="0"/>
        <pt x="310" y="584" on="0"/>
        <pt x="403" y="824" on="0"/>
        <pt x="493" y="1066" on="0"/>
        <pt x="577" y="1306" on="0"/>
        <pt x="614" y="1419" on="1"/>
      </contour>
      <contour>
        <pt x="606" y="1169" on="1"/>
        <pt x="395" y="555" on="1"/>
        <pt x="802" y="555" on="1"/>
        <pt x="634" y="1169" on="1"/>
      </contour>
    </TTGlyph>
    <TTGlyph name="AE" xMin="-99" yMin="-20" xMax="1623" yMax="1393">
      <contour>
        <pt x="1056" y="1309" on="1"/>
        <pt x="1048" y="1227" on="0"/>
        <pt x="1040" y="1058" on="0"/>
        <pt x="1038" y="987" on="1"/>
        <pt x="1029" y="762" on="1"/>
        <pt x="1455" y="784" on="1"/>
        <pt x="1445" y="657" on="1"/>
        <pt x="1385" y="665" on="0"/>
        <pt x="1261" y="677" on="0"/>
        <pt x="1149" y="685" on="0"/>
        <pt x="1055" y="690" on="0"/>
        <pt x="1025" y="692" on="1"/>
        <pt x="1007" y="78" on="1"/>
        <pt x="1459" y="94" on="1"/>
        <pt x="1560" y="305" on="1"/>
        <pt x="1623" y="305" on="1"/>
        <pt x="1545" y="-20" on="1"/>
        <pt x="1439" y="-17" on="0"/>
        <pt x="1246" y="-6" on="0"/>
        <pt x="1087" y="4" on="0"/>
        <pt x="969" y="12" on="0"/>
        <pt x="939" y="12" on="1"/>
        <pt x="888" y="12" on="0"/>
        <pt x="774" y="8" on="0"/>
        <pt x="700" y="0" on="1"/>
        <pt x="702" y="57" on="1"/>
        <pt x="728" y="59" on="0"/>
        <pt x="767" y="63" on="0"/>
        <pt x="801" y="67" on="0"/>
        <pt x="833" y="69" on="0"/>
        <pt x="851" y="70" on="1"/>
        <pt x="864" y="487" on="1"/>
        <pt x="838" y="487" on="0"/>
        <pt x="740" y="486" on="0"/>
        <pt x="613" y="481" on="0"/>
        <pt x="465" y="472" on="0"/>
        <pt x="390" y="465" on="1"/>
        <pt x="179" y="102" on="1"/>
        <pt x="351" y="59" on="1"/>
        <pt x="349" y="2" on="1"/>
        <pt x="295" y="8" on="0"/>
        <pt x="197" y="16" on="0"/>
        <pt x="143" y="16" on="1"/>
        <pt x="89" y="16" on="0"/>
        <pt x="-28" y="8" on="0"/>
        <pt x="-99" y="2" on="1"/>
        <pt x="-97" y="59" on="1"/>
        <pt x="-68" y="62" on="0"/>
        <pt x="-42" y="65" on="1"/>
        <pt x="-19" y="67" on="0"/>
        <pt x="27" y="71" on="0"/>
        <pt x="42" y="72" on="1"/>
        <pt x="788" y="1288" on="1"/>
        <pt x="612" y="1335" on="1"/>
        <pt x="614" y="1393" on="1"/>
        <pt x="667" y="1386" on="0"/>
        <pt x="801" y="1378" on="0"/>
        <pt x="935" y="1373" on="0"/>
        <pt x="1056" y="1372" on="0"/>
        <pt x="1095" y="1372" on="1"/>
        <pt x="1159" y="1372" on="0"/>
        <pt x="1302" y="1374" on="0"/>
        <pt x="1440" y="1379" on="0"/>
        <pt x="1567" y="1386" on="0"/>
        <pt x="1615" y="1391" on="1"/>
        <pt x="1584" y="1053" on="1"/>
        <pt x="1523" y="1053" on="1"/>
        <pt x="1494" y="1278" on="1"/>
      </contour>
      <contour>
        <pt x="437" y="557" on="1"/>
        <pt x="866" y="557" on="1"/>
        <pt x="890" y="1309" on="1"/>
        <pt x="874" y="1309" on="1"/>
      </contour>
    </TTGlyph>
    <TTGlyph name="Aacute" xMin="-54" yMin="0" xMax="1277" yMax="1892">
      <component glyphName="A" x="0" y="0" flags="0x204"/>
      <component glyphName="acute.case" x="196" y="0" flags="0x4"/>
    </TTGlyph>
    <TTGlyph name="Acircumflex" xMin="-54" yMin="0" xMax="1277" yMax="1855">
      <component glyphName="A" x="0" y="0" flags="0x204"/>
      <component glyphName="circumflex.case" x="18" y="0" flags="0x4"/>
    </TTGlyph>
    <TTGlyph name="Adieresis" xMin="-54" yMin="0" xMax="1277" yMax="1755">
      <component glyphName="A" x="0" y="0" flags="0x204"/>
      <component glyphName="dieresis.case" x="97" y="0" flags="0x4"/>
    </TTGlyph>
    <TTGlyph name="Agrave" xMin="-54" yMin="0" xMax="1277" yMax="1886">
      <component glyphName="A" x="0" y="0" flags="0x204"/>
      <component glyphName="grave.case" x="30" y="0" flags="0x4"/>
    </TTGlyph>
    <TTGlyph name="Aring" xMin="-54" yMin="0" xMax="1277" yMax="1927">
      <component glyphName="A" x="0" y="0" flags="0x204"/>
      <component glyphName="ring.case" x="172" y="0" flags="0x4"/>
    </TTGlyph>
    <TTGlyph name="Atilde" xMin="-54" yMin="0" xMax="1277" yMax="1792">
      <component glyphName="A" x="0" y="0" flags="0x204"/>
      <component glyphName="tilde.case" x="88" y="0" flags="0x4"/>
    </TTGlyph>
    <TTGlyph name="B" xMin="62" yMin="-12" xMax="1051" yMax="1401">
      <contour>
        <pt x="946" y="1106" on="1"/>
        <pt x="946" y="1044" on="0"/>
        <pt x="908" y="938" on="0"/>
        <pt x="847" y="849" on="0"/>
        <pt x="771" y="778" on="0"/>
        <pt x="733" y="753" on="1"/>
        <pt x="816" y="732" on="0"/>
        <pt x="936" y="662" on="0"/>
        <pt x="1014" y="571" on="0"/>
        <pt x="1051" y="460" on="0"/>
        <pt x="1051" y="397" on="1"/>
        <pt x="1051" y="304" on="0"/>
        <pt x="984" y="153" on="0"/>
        <pt x="866" y="46" on="0"/>
        <pt x="704" y="-12" on="0"/>
        <pt x="610" y="-12" on="1"/>
        <pt x="570" y="-12" on="0"/>
        <pt x="491" y="-5" on="0"/>
        <pt x="410" y="4" on="0"/>
        <pt x="329" y="12" on="0"/>
        <pt x="287" y="12" on="1"/>
        <pt x="239" y="12" on="0"/>
        <pt x="130" y="6" on="0"/>
        <pt x="62" y="0" on="1"/>
        <pt x="64" y="57" on="1"/>
        <pt x="90" y="59" on="0"/>
        <pt x="129" y="63" on="0"/>
        <pt x="163" y="67" on="0"/>
        <pt x="195" y="69" on="0"/>
        <pt x="213" y="70" on="1"/>
        <pt x="254" y="1288" on="1"/>
        <pt x="107" y="1333" on="1"/>
        <pt x="109" y="1391" on="1"/>
        <pt x="133" y="1387" on="0"/>
        <pt x="163" y="1383" on="1"/>
        <pt x="189" y="1380" on="0"/>
        <pt x="257" y="1376" on="0"/>
        <pt x="297" y="1376" on="1"/>
        <pt x="340" y="1376" on="0"/>
        <pt x="405" y="1384" on="0"/>
        <pt x="471" y="1393" on="0"/>
        <pt x="549" y="1401" on="0"/>
        <pt x="606" y="1401" on="1"/>
        <pt x="698" y="1401" on="0"/>
        <pt x="828" y="1351" on="0"/>
        <pt x="909" y="1269" on="0"/>
        <pt x="946" y="1163" on="0"/>
      </contour>
      <contour>
        <pt x="369" y="104" on="1"/>
        <pt x="407" y="83" on="0"/>
        <pt x="520" y="45" on="0"/>
        <pt x="598" y="45" on="1"/>
        <pt x="662" y="45" on="0"/>
        <pt x="768" y="91" on="0"/>
        <pt x="844" y="175" on="0"/>
        <pt x="887" y="295" on="0"/>
        <pt x="887" y="369" on="1"/>
        <pt x="887" y="443" on="0"/>
        <pt x="842" y="571" on="0"/>
        <pt x="747" y="665" on="0"/>
        <pt x="600" y="719" on="0"/>
        <pt x="498" y="719" on="1"/>
        <pt x="444" y="719" on="0"/>
        <pt x="389" y="713" on="1"/>
      </contour>
      <contour>
        <pt x="447" y="784" on="1"/>
        <pt x="548" y="784" on="0"/>
        <pt x="632" y="772" on="1"/>
        <pt x="666" y="796" on="0"/>
        <pt x="723" y="858" on="0"/>
        <pt x="765" y="931" on="0"/>
        <pt x="789" y="1015" on="0"/>
        <pt x="789" y="1061" on="1"/>
        <pt x="789" y="1127" on="0"/>
        <pt x="753" y="1229" on="0"/>
        <pt x="689" y="1299" on="0"/>
        <pt x="602" y="1335" on="0"/>
        <pt x="551" y="1335" on="1"/>
        <pt x="526" y="1335" on="0"/>
        <pt x="492" y="1334" on="0"/>
        <pt x="465" y="1333" on="0"/>
        <pt x="439" y="1330" on="0"/>
        <pt x="422" y="1329" on="1"/>
        <pt x="419" y="1300" on="0"/>
        <pt x="412" y="1213" on="0"/>
        <pt x="405" y="1111" on="0"/>
        <pt x="399" y="1002" on="0"/>
        <pt x="398" y="952" on="1"/>
        <pt x="391" y="784" on="1"/>
      </contour>
    </TTGlyph>
    <TTGlyph name="C" xMin="93" yMin="-29" xMax="1367" yMax="1419">
      <contour>
        <pt x="919" y="1346" on="1"/>
        <pt x="794" y="1346" on="0"/>
        <pt x="563" y="1264" on="0"/>
        <pt x="386" y="1105" on="0"/>
        <pt x="280" y="872" on="0"/>
        <pt x="280" y="721" on="1"/>
        <pt x="280" y="609" on="0"/>
        <pt x="336" y="423" on="0"/>
        <pt x="432" y="275" on="0"/>
        <pt x="561" y="164" on="0"/>
        <pt x="708" y="91" on="0"/>
        <pt x="865" y="55" on="0"/>
        <pt x="941" y="55" on="1"/>
        <pt x="989" y="55" on="0"/>
        <pt x="1069" y="61" on="0"/>
        <pt x="1150" y="76" on="0"/>
        <pt x="1238" y="101" on="0"/>
        <pt x="1293" y="119" on="1"/>
        <pt x="1312" y="61" on="1"/>
        <pt x="1259" y="35" on="0"/>
        <pt x="1138" y="1" on="0"/>
        <pt x="1020" y="-20" on="0"/>
        <pt x="911" y="-29" on="0"/>
        <pt x="869" y="-29" on="1"/>
        <pt x="760" y="-29" on="0"/>
        <pt x="560" y="18" on="0"/>
        <pt x="388" y="104" on="0"/>
        <pt x="247" y="228" on="0"/>
        <pt x="147" y="383" on="0"/>
        <pt x="93" y="564" on="0"/>
        <pt x="93" y="666" on="1"/>
        <pt x="93" y="776" on="0"/>
        <pt x="147" y="973" on="0"/>
        <pt x="248" y="1140" on="0"/>
        <pt x="393" y="1275" on="0"/>
        <pt x="574" y="1369" on="0"/>
        <pt x="787" y="1419" on="0"/>
        <pt x="906" y="1419" on="1"/>
        <pt x="1057" y="1419" on="0"/>
        <pt x="1281" y="1384" on="0"/>
        <pt x="1367" y="1362" on="1"/>
        <pt x="1338" y="1028" on="1"/>
        <pt x="1277" y="1028" on="1"/>
        <pt x="1252" y="1249" on="1"/>
        <pt x="1225" y="1268" on="0"/>
        <pt x="1156" y="1303" on="0"/>
        <pt x="1072" y="1330" on="0"/>
        <pt x="975" y="1346" on="0"/>
      </contour>
    </TTGlyph>
    <TTGlyph name="Ccedilla" xMin="93" yMin="-440" xMax="1367" yMax="1419">
      <contour>
        <pt x="962" y="-242" on="1"/>
        <pt x="962" y="-285" on="0"/>
        <pt x="921" y="-357" on="0"/>
        <pt x="852" y="-410" on="0"/>
        <pt x="762" y="-440" on="0"/>
        <pt x="714" y="-440" on="1"/>
        <pt x="660" y="-440" on="0"/>
        <pt x="611" y="-422" on="1"/>
        <pt x="615" y="-309" on="1"/>
        <pt x="649" y="-325" on="0"/>
        <pt x="740" y="-356" on="0"/>
        <pt x="783" y="-356" on="1"/>
        <pt x="820" y="-356" on="0"/>
        <pt x="883" y="-324" on="0"/>
        <pt x="900" y="-279" on="1"/>
        <pt x="872" y="-241" on="0"/>
        <pt x="771" y="-187" on="0"/>
        <pt x="714" y="-162" on="1"/>
        <pt x="738" y="-20" on="1"/>
        <pt x="698" y="-14" on="0"/>
        <pt x="660" y="-5" on="1"/>
        <pt x="560" y="18" on="0"/>
        <pt x="388" y="104" on="0"/>
        <pt x="247" y="228" on="0"/>
        <pt x="147" y="383" on="0"/>
        <pt x="93" y="564" on="0"/>
        <pt x="93" y="666" on="1"/>
        <pt x="93" y="776" on="0"/>
        <pt x="147" y="973" on="0"/>
        <pt x="248" y="1140" on="0"/>
        <pt x="393" y="1275" on="0"/>
        <pt x="574" y="1369" on="0"/>
        <pt x="787" y="1419" on="0"/>
        <pt x="906" y="1419" on="1"/>
        <pt x="1057" y="1419" on="0"/>
        <pt x="1281" y="1384" on="0"/>
        <pt x="1367" y="1362" on="1"/>
        <pt x="1338" y="1028" on="1"/>
        <pt x="1277" y="1028" on="1"/>
        <pt x="1252" y="1249" on="1"/>
        <pt x="1225" y="1268" on="0"/>
        <pt x="1156" y="1303" on="0"/>
        <pt x="1072" y="1330" on="0"/>
        <pt x="975" y="1346" on="0"/>
        <pt x="919" y="1346" on="1"/>
        <pt x="794" y="1346" on="0"/>
        <pt x="563" y="1264" on="0"/>
        <pt x="386" y="1105" on="0"/>
        <pt x="280" y="872" on="0"/>
        <pt x="280" y="721" on="1"/>
        <pt x="280" y="609" on="0"/>
        <pt x="336" y="423" on="0"/>
        <pt x="432" y="275" on="0"/>
        <pt x="561" y="164" on="0"/>
        <pt x="708" y="91" on="0"/>
        <pt x="865" y="55" on="0"/>
        <pt x="941" y="55" on="1"/>
        <pt x="989" y="55" on="0"/>
        <pt x="1069" y="61" on="0"/>
        <pt x="1150" y="76" on="0"/>
        <pt x="1238" y="101" on="0"/>
        <pt x="1293" y="119" on="1"/>
        <pt x="1312" y="61" on="1"/>
        <pt x="1259" y="35" on="0"/>
        <pt x="1138" y="1" on="0"/>
        <pt x="1020" y="-20" on="0"/>
        <pt x="911" y="-29" on="0"/>
        <pt x="869" y="-29" on="1"/>
        <pt x="840" y="-29" on="0"/>
        <pt x="811" y="-27" on="1"/>
        <pt x="802" y="-84" on="1"/>
        <pt x="833" y="-97" on="0"/>
        <pt x="891" y="-128" on="0"/>
        <pt x="936" y="-166" on="0"/>
        <pt x="962" y="-213" on="0"/>
      </contour>
    </TTGlyph>
    <TTGlyph name="D" xMin="63" yMin="-12" xMax="1478" yMax="1401">
      <contour>
        <pt x="63" y="57" on="1"/>
        <pt x="89" y="59" on="0"/>
        <pt x="128" y="63" on="0"/>
        <pt x="162" y="67" on="0"/>
        <pt x="194" y="69" on="0"/>
        <pt x="212" y="70" on="1"/>
        <pt x="253" y="1288" on="1"/>
        <pt x="108" y="1333" on="1"/>
        <pt x="108" y="1391" on="1"/>
        <pt x="137" y="1387" on="0"/>
        <pt x="171" y="1383" on="1"/>
        <pt x="200" y="1380" on="0"/>
        <pt x="277" y="1376" on="0"/>
        <pt x="321" y="1376" on="1"/>
        <pt x="376" y="1376" on="0"/>
        <pt x="488" y="1384" on="0"/>
        <pt x="603" y="1393" on="0"/>
        <pt x="725" y="1401" on="0"/>
        <pt x="790" y="1401" on="1"/>
        <pt x="943" y="1401" on="0"/>
        <pt x="1197" y="1301" on="0"/>
        <pt x="1378" y="1117" on="0"/>
        <pt x="1478" y="859" on="0"/>
        <pt x="1478" y="702" on="1"/>
        <pt x="1478" y="630" on="0"/>
        <pt x="1447" y="469" on="0"/>
        <pt x="1376" y="310" on="0"/>
        <pt x="1259" y="165" on="0"/>
        <pt x="1089" y="54" on="0"/>
        <pt x="859" y="-12" on="0"/>
        <pt x="710" y="-12" on="1"/>
        <pt x="664" y="-12" on="0"/>
        <pt x="562" y="-5" on="0"/>
        <pt x="456" y="4" on="0"/>
        <pt x="348" y="12" on="0"/>
        <pt x="296" y="12" on="1"/>
        <pt x="267" y="12" on="0"/>
        <pt x="144" y="9" on="0"/>
        <pt x="63" y="0" on="1"/>
      </contour>
      <contour>
        <pt x="648" y="1327" on="1"/>
        <pt x="614" y="1327" on="0"/>
        <pt x="546" y="1326" on="0"/>
        <pt x="484" y="1323" on="0"/>
        <pt x="430" y="1319" on="0"/>
        <pt x="411" y="1317" on="1"/>
        <pt x="368" y="102" on="1"/>
        <pt x="395" y="94" on="0"/>
        <pt x="462" y="77" on="0"/>
        <pt x="538" y="63" on="0"/>
        <pt x="620" y="53" on="0"/>
        <pt x="661" y="53" on="1"/>
        <pt x="712" y="53" on="0"/>
        <pt x="844" y="69" on="0"/>
        <pt x="984" y="115" on="0"/>
        <pt x="1119" y="200" on="0"/>
        <pt x="1226" y="340" on="0"/>
        <pt x="1291" y="541" on="0"/>
        <pt x="1291" y="680" on="1"/>
        <pt x="1291" y="754" on="0"/>
        <pt x="1268" y="907" on="0"/>
        <pt x="1212" y="1051" on="0"/>
        <pt x="1118" y="1178" on="0"/>
        <pt x="975" y="1272" on="0"/>
        <pt x="778" y="1327" on="0"/>
      </contour>
    </TTGlyph>
    <TTGlyph name="E" xMin="61" yMin="-20" xMax="984" yMax="1391">
      <contour>
        <pt x="368" y="78" on="1"/>
        <pt x="820" y="94" on="1"/>
        <pt x="921" y="305" on="1"/>
        <pt x="984" y="305" on="1"/>
        <pt x="906" y="-20" on="1"/>
        <pt x="800" y="-17" on="0"/>
        <pt x="607" y="-6" on="0"/>
        <pt x="448" y="4" on="0"/>
        <pt x="330" y="12" on="0"/>
        <pt x="300" y="12" on="1"/>
        <pt x="249" y="12" on="0"/>
        <pt x="135" y="8" on="0"/>
        <pt x="61" y="0" on="1"/>
        <pt x="63" y="57" on="1"/>
        <pt x="89" y="59" on="0"/>
        <pt x="128" y="63" on="0"/>
        <pt x="162" y="67" on="0"/>
        <pt x="194" y="69" on="0"/>
        <pt x="212" y="70" on="1"/>
        <pt x="253" y="1288" on="1"/>
        <pt x="108" y="1333" on="1"/>
        <pt x="108" y="1391" on="1"/>
        <pt x="136" y="1387" on="0"/>
        <pt x="179" y="1383" on="1"/>
        <pt x="216" y="1380" on="0"/>
        <pt x="328" y="1376" on="0"/>
        <pt x="409" y="1376" on="1"/>
        <pt x="650" y="1376" on="1"/>
        <pt x="690" y="1376" on="0"/>
        <pt x="766" y="1377" on="0"/>
        <pt x="844" y="1380" on="0"/>
        <pt x="928" y="1386" on="0"/>
        <pt x="976" y="1391" on="1"/>
        <pt x="945" y="1053" on="1"/>
        <pt x="884" y="1053" on="1"/>
        <pt x="855" y="1278" on="1"/>
        <pt x="417" y="1309" on="1"/>
        <pt x="409" y="1227" on="0"/>
        <pt x="401" y="1058" on="0"/>
        <pt x="399" y="987" on="1"/>
        <pt x="390" y="762" on="1"/>
        <pt x="816" y="784" on="1"/>
        <pt x="806" y="657" on="1"/>
        <pt x="746" y="665" on="0"/>
        <pt x="622" y="677" on="0"/>
        <pt x="510" y="685" on="0"/>
        <pt x="416" y="690" on="0"/>
        <pt x="386" y="692" on="1"/>
      </contour>
    </TTGlyph>
    <TTGlyph name="Eacute" xMin="61" yMin="-20" xMax="984" yMax="1892">
      <component glyphName="E" x="0" y="0" flags="0x204"/>
      <component glyphName="acute.case" x="-18" y="0" flags="0x4"/>
    </TTGlyph>
    <TTGlyph name="Ecircumflex" xMin="61" yMin="-20" xMax="984" yMax="1855">
      <component glyphName="E" x="0" y="0" flags="0x204"/>
      <component glyphName="circumflex.case" x="-51" y="0" flags="0x4"/>
    </TTGlyph>
    <TTGlyph name="Edieresis" xMin="61" yMin="-20" xMax="984" yMax="1755">
      <component glyphName="E" x="0" y="0" flags="0x204"/>
      <component glyphName="dieresis.case" x="36" y="0" flags="0x4"/>
    </TTGlyph>
    <TTGlyph name="Egrave" xMin="61" yMin="-20" xMax="984" yMax="1886">
      <component glyphName="E" x="0" y="0" flags="0x204"/>
      <component glyphName="grave.case" x="73" y="0" flags="0x4"/>
    </TTGlyph>
    <TTGlyph name="Eth" xMin="6" yMin="-12" xMax="1550" yMax="1401">
      <contour>
        <pt x="135" y="57" on="1"/>
        <pt x="161" y="59" on="0"/>
        <pt x="200" y="63" on="0"/>
        <pt x="234" y="67" on="0"/>
        <pt x="266" y="69" on="0"/>
        <pt x="284" y="70" on="1"/>
        <pt x="304" y="679" on="1"/>
        <pt x="227" y="675" on="0"/>
        <pt x="76" y="665" on="0"/>
        <pt x="6" y="659" on="1"/>
        <pt x="10" y="762" on="1"/>
        <pt x="307" y="762" on="1"/>
        <pt x="325" y="1288" on="1"/>
        <pt x="180" y="1333" on="1"/>
        <pt x="180" y="1391" on="1"/>
        <pt x="209" y="1387" on="0"/>
        <pt x="243" y="1383" on="1"/>
        <pt x="272" y="1380" on="0"/>
        <pt x="349" y="1376" on="0"/>
        <pt x="393" y="1376" on="1"/>
        <pt x="448" y="1376" on="0"/>
        <pt x="560" y="1384" on="0"/>
        <pt x="675" y="1393" on="0"/>
        <pt x="797" y="1401" on="0"/>
        <pt x="862" y="1401" on="1"/>
        <pt x="1015" y="1401" on="0"/>
        <pt x="1269" y="1301" on="0"/>
        <pt x="1450" y="1117" on="0"/>
        <pt x="1550" y="859" on="0"/>
        <pt x="1550" y="702" on="1"/>
        <pt x="1550" y="630" on="0"/>
        <pt x="1519" y="469" on="0"/>
        <pt x="1448" y="310" on="0"/>
        <pt x="1331" y="165" on="0"/>
        <pt x="1161" y="54" on="0"/>
        <pt x="931" y="-12" on="0"/>
        <pt x="782" y="-12" on="1"/>
        <pt x="736" y="-12" on="0"/>
        <pt x="634" y="-5" on="0"/>
        <pt x="528" y="4" on="0"/>
        <pt x="420" y="12" on="0"/>
        <pt x="368" y="12" on="1"/>
        <pt x="339" y="12" on="0"/>
        <pt x="216" y="9" on="0"/>
        <pt x="135" y="0" on="1"/>
      </contour>
      <contour>
        <pt x="720" y="1327" on="1"/>
        <pt x="686" y="1327" on="0"/>
        <pt x="618" y="1326" on="0"/>
        <pt x="556" y="1323" on="0"/>
        <pt x="502" y="1319" on="0"/>
        <pt x="483" y="1317" on="1"/>
        <pt x="463" y="762" on="1"/>
        <pt x="829" y="762" on="1"/>
        <pt x="827" y="692" on="1"/>
        <pt x="800" y="692" on="0"/>
        <pt x="723" y="691" on="0"/>
        <pt x="628" y="690" on="0"/>
        <pt x="519" y="687" on="0"/>
        <pt x="461" y="685" on="1"/>
        <pt x="440" y="102" on="1"/>
        <pt x="467" y="94" on="0"/>
        <pt x="534" y="77" on="0"/>
        <pt x="610" y="63" on="0"/>
        <pt x="692" y="53" on="0"/>
        <pt x="733" y="53" on="1"/>
        <pt x="783" y="53" on="0"/>
        <pt x="916" y="69" on="0"/>
        <pt x="1056" y="115" on="0"/>
        <pt x="1191" y="200" on="0"/>
        <pt x="1298" y="340" on="0"/>
        <pt x="1363" y="541" on="0"/>
        <pt x="1363" y="680" on="1"/>
        <pt x="1363" y="754" on="0"/>
        <pt x="1340" y="907" on="0"/>
        <pt x="1284" y="1051" on="0"/>
        <pt x="1190" y="1178" on="0"/>
        <pt x="1047" y="1272" on="0"/>
        <pt x="850" y="1327" on="0"/>
      </contour>
    </TTGlyph>
    <TTGlyph name="Euro" xMin="67" yMin="-29" xMax="1242" yMax="1419">
      <contour>
        <pt x="79" y="840" on="1"/>
        <pt x="284" y="840" on="1"/>
        <pt x="310" y="976" on="0"/>
        <pt x="434" y="1191" on="0"/>
        <pt x="606" y="1340" on="0"/>
        <pt x="813" y="1419" on="0"/>
        <pt x="921" y="1419" on="1"/>
        <pt x="1012" y="1419" on="0"/>
        <pt x="1180" y="1384" on="0"/>
        <pt x="1242" y="1362" on="1"/>
        <pt x="1214" y="1028" on="1"/>
        <pt x="1152" y="1028" on="1"/>
        <pt x="1128" y="1257" on="1"/>
        <pt x="1093" y="1293" on="0"/>
        <pt x="977" y="1346" on="0"/>
        <pt x="902" y="1346" on="1"/>
        <pt x="826" y="1346" on="0"/>
        <pt x="680" y="1278" on="0"/>
        <pt x="560" y="1149" on="0"/>
        <pt x="476" y="961" on="0"/>
        <pt x="462" y="840" on="1"/>
        <pt x="1138" y="840" on="1"/>
        <pt x="1113" y="770" on="1"/>
        <pt x="1015" y="769" on="0"/>
        <pt x="906" y="768" on="1"/>
        <pt x="812" y="766" on="0"/>
        <pt x="578" y="763" on="0"/>
        <pt x="456" y="758" on="1"/>
        <pt x="456" y="718" on="1"/>
        <pt x="456" y="668" on="0"/>
        <pt x="459" y="623" on="1"/>
        <pt x="1062" y="623" on="1"/>
        <pt x="1037" y="553" on="1"/>
        <pt x="954" y="553" on="0"/>
        <pt x="861" y="552" on="1"/>
        <pt x="781" y="551" on="0"/>
        <pt x="577" y="547" on="0"/>
        <pt x="467" y="543" on="1"/>
        <pt x="487" y="407" on="0"/>
        <pt x="582" y="220" on="0"/>
        <pt x="710" y="105" on="0"/>
        <pt x="858" y="55" on="0"/>
        <pt x="931" y="55" on="1"/>
        <pt x="966" y="55" on="0"/>
        <pt x="1025" y="61" on="0"/>
        <pt x="1083" y="76" on="0"/>
        <pt x="1147" y="101" on="0"/>
        <pt x="1187" y="119" on="1"/>
        <pt x="1207" y="61" on="1"/>
        <pt x="1124" y="9" on="0"/>
        <pt x="953" y="-29" on="0"/>
        <pt x="882" y="-29" on="1"/>
        <pt x="762" y="-29" on="0"/>
        <pt x="556" y="46" on="0"/>
        <pt x="397" y="190" on="0"/>
        <pt x="293" y="399" on="0"/>
        <pt x="276" y="534" on="1"/>
        <pt x="220" y="531" on="0"/>
        <pt x="115" y="525" on="0"/>
        <pt x="67" y="520" on="1"/>
        <pt x="71" y="623" on="1"/>
        <pt x="269" y="623" on="1"/>
        <pt x="268" y="632" on="0"/>
        <pt x="268" y="650" on="0"/>
        <pt x="268" y="660" on="1"/>
        <pt x="268" y="682" on="0"/>
        <pt x="270" y="725" on="0"/>
        <pt x="272" y="750" on="1"/>
        <pt x="218" y="747" on="0"/>
        <pt x="120" y="741" on="0"/>
        <pt x="75" y="737" on="1"/>
      </contour>
    </TTGlyph>
    <TTGlyph name="F" xMin="63" yMin="0" xMax="976" yMax="1391">
      <contour>
        <pt x="370" y="102" on="1"/>
        <pt x="515" y="57" on="1"/>
        <pt x="515" y="0" on="1"/>
        <pt x="493" y="3" on="0"/>
        <pt x="463" y="7" on="1"/>
        <pt x="437" y="9" on="0"/>
        <pt x="361" y="14" on="0"/>
        <pt x="310" y="14" on="1"/>
        <pt x="259" y="14" on="0"/>
        <pt x="137" y="8" on="0"/>
        <pt x="63" y="0" on="1"/>
        <pt x="63" y="57" on="1"/>
        <pt x="89" y="59" on="0"/>
        <pt x="128" y="63" on="0"/>
        <pt x="162" y="67" on="0"/>
        <pt x="194" y="69" on="0"/>
        <pt x="212" y="70" on="1"/>
        <pt x="253" y="1288" on="1"/>
        <pt x="108" y="1333" on="1"/>
        <pt x="108" y="1391" on="1"/>
        <pt x="136" y="1387" on="0"/>
        <pt x="179" y="1383" on="1"/>
        <pt x="216" y="1380" on="0"/>
        <pt x="328" y="1376" on="0"/>
        <pt x="409" y="1376" on="1"/>
        <pt x="650" y="1376" on="1"/>
        <pt x="690" y="1376" on="0"/>
        <pt x="766" y="1377" on="0"/>
        <pt x="844" y="1380" on="0"/>
        <pt x="928" y="1386" on="0"/>
        <pt x="976" y="1391" on="1"/>
        <pt x="945" y="1053" on="1"/>
        <pt x="884" y="1053" on="1"/>
        <pt x="855" y="1278" on="1"/>
        <pt x="417" y="1309" on="1"/>
        <pt x="409" y="1227" on="0"/>
        <pt x="402" y="1058" on="0"/>
        <pt x="399" y="987" on="1"/>
        <pt x="390" y="743" on="1"/>
        <pt x="818" y="766" on="1"/>
        <pt x="808" y="639" on="1"/>
        <pt x="748" y="646" on="0"/>
        <pt x="623" y="659" on="0"/>
        <pt x="509" y="668" on="0"/>
        <pt x="415" y="673" on="0"/>
        <pt x="386" y="674" on="1"/>
      </contour>
    </TTGlyph>
    <TTGlyph name="G" xMin="94" yMin="-29" xMax="1493" yMax="1419">
      <contour>
        <pt x="897" y="1346" on="1"/>
        <pt x="765" y="1346" on="0"/>
        <pt x="539" y="1254" on="0"/>
        <pt x="373" y="1083" on="0"/>
        <pt x="279" y="838" on="0"/>
        <pt x="279" y="684" on="1"/>
        <pt x="279" y="541" on="0"/>
        <pt x="377" y="308" on="0"/>
        <pt x="548" y="143" on="0"/>
        <pt x="776" y="53" on="0"/>
        <pt x="907" y="53" on="1"/>
        <pt x="952" y="53" on="0"/>
        <pt x="1026" y="60" on="0"/>
        <pt x="1088" y="73" on="0"/>
        <pt x="1142" y="94" on="0"/>
        <pt x="1169" y="109" on="1"/>
        <pt x="1188" y="545" on="1"/>
        <pt x="1040" y="590" on="1"/>
        <pt x="1040" y="647" on="1"/>
        <pt x="1062" y="643" on="0"/>
        <pt x="1093" y="640" on="1"/>
        <pt x="1119" y="637" on="0"/>
        <pt x="1194" y="633" on="0"/>
        <pt x="1245" y="633" on="1"/>
        <pt x="1296" y="633" on="0"/>
        <pt x="1419" y="639" on="0"/>
        <pt x="1493" y="647" on="1"/>
        <pt x="1493" y="590" on="1"/>
        <pt x="1467" y="588" on="0"/>
        <pt x="1427" y="584" on="0"/>
        <pt x="1394" y="581" on="0"/>
        <pt x="1362" y="579" on="0"/>
        <pt x="1344" y="578" on="1"/>
        <pt x="1325" y="55" on="1"/>
        <pt x="1281" y="39" on="0"/>
        <pt x="1163" y="9" on="0"/>
        <pt x="1037" y="-15" on="0"/>
        <pt x="914" y="-29" on="0"/>
        <pt x="866" y="-29" on="1"/>
        <pt x="767" y="-29" on="0"/>
        <pt x="576" y="14" on="0"/>
        <pt x="405" y="97" on="0"/>
        <pt x="259" y="219" on="0"/>
        <pt x="154" y="377" on="0"/>
        <pt x="94" y="571" on="0"/>
        <pt x="94" y="684" on="1"/>
        <pt x="94" y="852" on="0"/>
        <pt x="215" y="1124" on="0"/>
        <pt x="429" y="1316" on="0"/>
        <pt x="723" y="1419" on="0"/>
        <pt x="897" y="1419" on="1"/>
        <pt x="1048" y="1419" on="0"/>
        <pt x="1272" y="1384" on="0"/>
        <pt x="1358" y="1362" on="1"/>
        <pt x="1329" y="1028" on="1"/>
        <pt x="1268" y="1028" on="1"/>
        <pt x="1243" y="1249" on="1"/>
        <pt x="1215" y="1268" on="0"/>
        <pt x="1147" y="1303" on="0"/>
        <pt x="1063" y="1330" on="0"/>
        <pt x="960" y="1346" on="0"/>
      </contour>
    </TTGlyph>
    <TTGlyph name="H" xMin="63" yMin="0" xMax="1582" yMax="1391">
      <contour>
        <pt x="1085" y="57" on="1"/>
        <pt x="1111" y="59" on="0"/>
        <pt x="1150" y="63" on="0"/>
        <pt x="1184" y="67" on="0"/>
        <pt x="1216" y="69" on="0"/>
        <pt x="1234" y="70" on="1"/>
        <pt x="1255" y="692" on="1"/>
        <pt x="1247" y="692" on="0"/>
        <pt x="1161" y="692" on="0"/>
        <pt x="1027" y="690" on="0"/>
        <pt x="855" y="685" on="0"/>
        <pt x="667" y="678" on="0"/>
        <pt x="475" y="667" on="0"/>
        <pt x="387" y="659" on="1"/>
        <pt x="368" y="102" on="1"/>
        <pt x="515" y="57" on="1"/>
        <pt x="515" y="0" on="1"/>
        <pt x="493" y="3" on="0"/>
        <pt x="463" y="7" on="1"/>
        <pt x="437" y="9" on="0"/>
        <pt x="361" y="14" on="0"/>
        <pt x="310" y="14" on="1"/>
        <pt x="259" y="14" on="0"/>
        <pt x="137" y="8" on="0"/>
        <pt x="63" y="0" on="1"/>
        <pt x="63" y="57" on="1"/>
        <pt x="89" y="59" on="0"/>
        <pt x="128" y="63" on="0"/>
        <pt x="162" y="67" on="0"/>
        <pt x="194" y="69" on="0"/>
        <pt x="212" y="70" on="1"/>
        <pt x="253" y="1288" on="1"/>
        <pt x="108" y="1333" on="1"/>
        <pt x="108" y="1391" on="1"/>
        <pt x="130" y="1387" on="0"/>
        <pt x="160" y="1383" on="1"/>
        <pt x="186" y="1380" on="0"/>
        <pt x="261" y="1376" on="0"/>
        <pt x="312" y="1376" on="1"/>
        <pt x="363" y="1376" on="0"/>
        <pt x="486" y="1383" on="0"/>
        <pt x="560" y="1391" on="1"/>
        <pt x="560" y="1333" on="1"/>
        <pt x="534" y="1331" on="0"/>
        <pt x="495" y="1327" on="0"/>
        <pt x="461" y="1324" on="0"/>
        <pt x="429" y="1322" on="0"/>
        <pt x="411" y="1321" on="1"/>
        <pt x="391" y="762" on="1"/>
        <pt x="1257" y="762" on="1"/>
        <pt x="1275" y="1288" on="1"/>
        <pt x="1130" y="1333" on="1"/>
        <pt x="1130" y="1391" on="1"/>
        <pt x="1152" y="1387" on="0"/>
        <pt x="1182" y="1383" on="1"/>
        <pt x="1208" y="1380" on="0"/>
        <pt x="1283" y="1376" on="0"/>
        <pt x="1334" y="1376" on="1"/>
        <pt x="1385" y="1376" on="0"/>
        <pt x="1508" y="1383" on="0"/>
        <pt x="1582" y="1391" on="1"/>
        <pt x="1582" y="1333" on="1"/>
        <pt x="1556" y="1331" on="0"/>
        <pt x="1517" y="1327" on="0"/>
        <pt x="1483" y="1324" on="0"/>
        <pt x="1451" y="1322" on="0"/>
        <pt x="1433" y="1321" on="1"/>
        <pt x="1392" y="102" on="1"/>
        <pt x="1537" y="57" on="1"/>
        <pt x="1537" y="0" on="1"/>
        <pt x="1515" y="3" on="0"/>
        <pt x="1485" y="7" on="1"/>
        <pt x="1459" y="9" on="0"/>
        <pt x="1383" y="14" on="0"/>
        <pt x="1332" y="14" on="1"/>
        <pt x="1281" y="14" on="0"/>
        <pt x="1159" y="8" on="0"/>
        <pt x="1085" y="0" on="1"/>
        <pt x="1085" y="57" on="1"/>
      </contour>
    </TTGlyph>
    <TTGlyph name="I" xMin="63" yMin="0" xMax="560" yMax="1391">
      <contour>
        <pt x="63" y="57" on="1"/>
        <pt x="89" y="59" on="0"/>
        <pt x="128" y="63" on="0"/>
        <pt x="162" y="67" on="0"/>
        <pt x="194" y="69" on="0"/>
        <pt x="212" y="70" on="1"/>
        <pt x="253" y="1288" on="1"/>
        <pt x="108" y="1333" on="1"/>
        <pt x="108" y="1391" on="1"/>
        <pt x="130" y="1387" on="0"/>
        <pt x="160" y="1383" on="1"/>
        <pt x="186" y="1380" on="0"/>
        <pt x="261" y="1376" on="0"/>
        <pt x="312" y="1376" on="1"/>
        <pt x="363" y="1376" on="0"/>
        <pt x="486" y="1383" on="0"/>
        <pt x="560" y="1391" on="1"/>
        <pt x="560" y="1333" on="1"/>
        <pt x="534" y="1331" on="0"/>
        <pt x="495" y="1327" on="0"/>
        <pt x="461" y="1324" on="0"/>
        <pt x="429" y="1322" on="0"/>
        <pt x="411" y="1321" on="1"/>
        <pt x="370" y="102" on="1"/>
        <pt x="515" y="57" on="1"/>
        <pt x="515" y="0" on="1"/>
        <pt x="493" y="3" on="0"/>
        <pt x="463" y="7" on="1"/>
        <pt x="437" y="9" on="0"/>
        <pt x="361" y="14" on="0"/>
        <pt x="310" y="14" on="1"/>
        <pt x="259" y="14" on="0"/>
        <pt x="137" y="8" on="0"/>
        <pt x="63" y="0" on="1"/>
        <pt x="63" y="57" on="1"/>
      </contour>
    </TTGlyph>
    <TTGlyph name="Iacute" xMin="63" yMin="0" xMax="694" yMax="1892">
      <component glyphName="I" x="0" y="0" flags="0x204"/>
      <component glyphName="acute.case" x="-158" y="0" flags="0x4"/>
    </TTGlyph>
    <TTGlyph name="Icircumflex" xMin="10" yMin="0" xMax="688" yMax="1855">
      <component glyphName="I" x="0" y="0" flags="0x204"/>
      <component glyphName="circumflex.case" x="-297" y="0" flags="0x4"/>
    </TTGlyph>
    <TTGlyph name="Idieresis" xMin="63" yMin="0" xMax="613" yMax="1755">
      <component glyphName="I" x="0" y="0" flags="0x204"/>
      <component glyphName="dieresis.case" x="-236" y="0" flags="0x4"/>
    </TTGlyph>
    <TTGlyph name="Igrave" xMin="-53" yMin="0" xMax="560" yMax="1886">
      <component glyphName="I" x="0" y="0" flags="0x204"/>
      <component glyphName="grave.case" x="-301" y="0" flags="0x4"/>
    </TTGlyph>
    <TTGlyph name="J" xMin="-87" yMin="-502" xMax="552" yMax="1391">
      <contour>
        <pt x="358" y="102" on="1"/>
        <pt x="357" y="85" on="0"/>
        <pt x="352" y="27" on="0"/>
        <pt x="328" y="-53" on="0"/>
        <pt x="278" y="-154" on="0"/>
        <pt x="188" y="-277" on="0"/>
        <pt x="52" y="-421" on="0"/>
        <pt x="-46" y="-502" on="1"/>
        <pt x="-87" y="-449" on="1"/>
        <pt x="-4" y="-356" on="0"/>
        <pt x="107" y="-181" on="0"/>
        <pt x="174" y="-35" on="0"/>
        <pt x="203" y="75" on="0"/>
        <pt x="204" y="102" on="1"/>
        <pt x="245" y="1288" on="1"/>
        <pt x="100" y="1333" on="1"/>
        <pt x="100" y="1391" on="1"/>
        <pt x="122" y="1387" on="0"/>
        <pt x="152" y="1383" on="1"/>
        <pt x="178" y="1380" on="0"/>
        <pt x="253" y="1376" on="0"/>
        <pt x="304" y="1376" on="1"/>
        <pt x="355" y="1376" on="0"/>
        <pt x="478" y="1383" on="0"/>
        <pt x="552" y="1391" on="1"/>
        <pt x="552" y="1333" on="1"/>
        <pt x="526" y="1331" on="0"/>
        <pt x="486" y="1327" on="0"/>
        <pt x="453" y="1324" on="0"/>
        <pt x="421" y="1322" on="0"/>
        <pt x="403" y="1321" on="1"/>
      </contour>
    </TTGlyph>
    <TTGlyph name="K" xMin="63" yMin="0" xMax="1351" yMax="1391">
      <contour>
        <pt x="433" y="733" on="1"/>
        <pt x="518" y="815" on="0"/>
        <pt x="671" y="965" on="0"/>
        <pt x="808" y="1108" on="0"/>
        <pt x="927" y="1246" on="0"/>
        <pt x="978" y="1315" on="1"/>
        <pt x="961" y="1317" on="0"/>
        <pt x="921" y="1323" on="0"/>
        <pt x="904" y="1326" on="1"/>
        <pt x="884" y="1330" on="0"/>
        <pt x="863" y="1333" on="1"/>
        <pt x="863" y="1391" on="1"/>
        <pt x="907" y="1384" on="0"/>
        <pt x="1013" y="1376" on="0"/>
        <pt x="1072" y="1376" on="1"/>
        <pt x="1125" y="1376" on="0"/>
        <pt x="1239" y="1383" on="0"/>
        <pt x="1296" y="1391" on="1"/>
        <pt x="1296" y="1333" on="1"/>
        <pt x="1128" y="1288" on="1"/>
        <pt x="585" y="791" on="1"/>
        <pt x="1177" y="102" on="1"/>
        <pt x="1351" y="61" on="1"/>
        <pt x="1351" y="0" on="1"/>
        <pt x="1052" y="0" on="1"/>
      </contour>
      <contour>
        <pt x="63" y="57" on="1"/>
        <pt x="89" y="59" on="0"/>
        <pt x="128" y="63" on="0"/>
        <pt x="162" y="67" on="0"/>
        <pt x="194" y="69" on="0"/>
        <pt x="212" y="70" on="1"/>
        <pt x="253" y="1288" on="1"/>
        <pt x="108" y="1333" on="1"/>
        <pt x="108" y="1391" on="1"/>
        <pt x="130" y="1387" on="0"/>
        <pt x="160" y="1383" on="1"/>
        <pt x="186" y="1380" on="0"/>
        <pt x="261" y="1376" on="0"/>
        <pt x="312" y="1376" on="1"/>
        <pt x="363" y="1376" on="0"/>
        <pt x="486" y="1383" on="0"/>
        <pt x="560" y="1391" on="1"/>
        <pt x="560" y="1333" on="1"/>
        <pt x="534" y="1331" on="0"/>
        <pt x="495" y="1327" on="0"/>
        <pt x="461" y="1324" on="0"/>
        <pt x="429" y="1322" on="0"/>
        <pt x="411" y="1321" on="1"/>
        <pt x="370" y="102" on="1"/>
        <pt x="515" y="57" on="1"/>
        <pt x="515" y="0" on="1"/>
        <pt x="493" y="3" on="0"/>
        <pt x="463" y="7" on="1"/>
        <pt x="437" y="9" on="0"/>
        <pt x="361" y="14" on="0"/>
        <pt x="310" y="14" on="1"/>
        <pt x="259" y="14" on="0"/>
        <pt x="137" y="8" on="0"/>
        <pt x="63" y="0" on="1"/>
      </contour>
    </TTGlyph>
    <TTGlyph name="L" xMin="61" yMin="-20" xMax="1019" yMax="1391">
      <contour>
        <pt x="253" y="1288" on="1"/>
        <pt x="108" y="1333" on="1"/>
        <pt x="108" y="1391" on="1"/>
        <pt x="129" y="1387" on="0"/>
        <pt x="160" y="1383" on="1"/>
        <pt x="186" y="1380" on="0"/>
        <pt x="262" y="1376" on="0"/>
        <pt x="313" y="1376" on="1"/>
        <pt x="364" y="1376" on="0"/>
        <pt x="486" y="1383" on="0"/>
        <pt x="560" y="1391" on="1"/>
        <pt x="560" y="1333" on="1"/>
        <pt x="534" y="1331" on="0"/>
        <pt x="495" y="1327" on="0"/>
        <pt x="461" y="1324" on="0"/>
        <pt x="429" y="1322" on="0"/>
        <pt x="411" y="1321" on="1"/>
        <pt x="366" y="78" on="1"/>
        <pt x="843" y="94" on="1"/>
        <pt x="956" y="322" on="1"/>
        <pt x="1019" y="322" on="1"/>
        <pt x="927" y="-20" on="1"/>
        <pt x="821" y="-17" on="0"/>
        <pt x="621" y="-6" on="0"/>
        <pt x="454" y="4" on="0"/>
        <pt x="330" y="12" on="0"/>
        <pt x="300" y="12" on="1"/>
        <pt x="249" y="12" on="0"/>
        <pt x="135" y="8" on="0"/>
        <pt x="61" y="0" on="1"/>
        <pt x="63" y="57" on="1"/>
        <pt x="89" y="59" on="0"/>
        <pt x="128" y="63" on="0"/>
        <pt x="162" y="67" on="0"/>
        <pt x="194" y="69" on="0"/>
        <pt x="212" y="70" on="1"/>
      </contour>
    </TTGlyph>
    <TTGlyph name="M" xMin="16" yMin="0" xMax="1703" yMax="1419">
      <contour>
        <pt x="1562" y="102" on="1"/>
        <pt x="1703" y="57" on="1"/>
        <pt x="1703" y="0" on="1"/>
        <pt x="1681" y="3" on="0"/>
        <pt x="1651" y="7" on="1"/>
        <pt x="1625" y="9" on="0"/>
        <pt x="1549" y="14" on="0"/>
        <pt x="1499" y="14" on="1"/>
        <pt x="1448" y="14" on="0"/>
        <pt x="1325" y="8" on="0"/>
        <pt x="1251" y="0" on="1"/>
        <pt x="1251" y="57" on="1"/>
        <pt x="1277" y="59" on="0"/>
        <pt x="1316" y="63" on="0"/>
        <pt x="1350" y="67" on="0"/>
        <pt x="1382" y="69" on="0"/>
        <pt x="1400" y="70" on="1"/>
        <pt x="1396" y="1096" on="1"/>
        <pt x="1378" y="1096" on="1"/>
        <pt x="868" y="55" on="1"/>
        <pt x="821" y="55" on="1"/>
        <pt x="372" y="1100" on="1"/>
        <pt x="356" y="1100" on="1"/>
        <pt x="276" y="102" on="1"/>
        <pt x="430" y="57" on="1"/>
        <pt x="430" y="0" on="1"/>
        <pt x="414" y="3" on="0"/>
        <pt x="388" y="7" on="1"/>
        <pt x="366" y="9" on="0"/>
        <pt x="299" y="14" on="0"/>
        <pt x="253" y="14" on="1"/>
        <pt x="207" y="14" on="0"/>
        <pt x="90" y="8" on="0"/>
        <pt x="16" y="0" on="1"/>
        <pt x="16" y="57" on="1"/>
        <pt x="42" y="59" on="0"/>
        <pt x="81" y="63" on="0"/>
        <pt x="115" y="67" on="0"/>
        <pt x="147" y="69" on="0"/>
        <pt x="165" y="70" on="1"/>
        <pt x="311" y="1386" on="1"/>
        <pt x="405" y="1419" on="1"/>
        <pt x="888" y="303" on="1"/>
        <pt x="903" y="303" on="1"/>
        <pt x="1429" y="1397" on="1"/>
        <pt x="1529" y="1417" on="1"/>
      </contour>
    </TTGlyph>
    <TTGlyph name="N" xMin="52" yMin="-29" xMax="1573" yMax="1421">
      <contour>
        <pt x="228" y="842" on="1"/>
        <pt x="230" y="900" on="0"/>
        <pt x="232" y="1022" on="0"/>
        <pt x="232" y="1100" on="1"/>
        <pt x="232" y="1194" on="0"/>
        <pt x="227" y="1341" on="0"/>
        <pt x="224" y="1391" on="1"/>
        <pt x="306" y="1421" on="1"/>
        <pt x="1287" y="250" on="1"/>
        <pt x="1319" y="1288" on="1"/>
        <pt x="1174" y="1333" on="1"/>
        <pt x="1174" y="1391" on="1"/>
        <pt x="1203" y="1387" on="0"/>
        <pt x="1236" y="1384" on="1"/>
        <pt x="1265" y="1382" on="0"/>
        <pt x="1338" y="1378" on="0"/>
        <pt x="1379" y="1378" on="1"/>
        <pt x="1424" y="1378" on="0"/>
        <pt x="1521" y="1384" on="0"/>
        <pt x="1573" y="1391" on="1"/>
        <pt x="1573" y="1333" on="1"/>
        <pt x="1526" y="1328" on="0"/>
        <pt x="1461" y="1322" on="0"/>
        <pt x="1424" y="1321" on="1"/>
        <pt x="1419" y="1202" on="0"/>
        <pt x="1409" y="960" on="0"/>
        <pt x="1401" y="702" on="0"/>
        <pt x="1395" y="423" on="0"/>
        <pt x="1395" y="266" on="1"/>
        <pt x="1395" y="203" on="0"/>
        <pt x="1396" y="72" on="0"/>
        <pt x="1399" y="0" on="1"/>
        <pt x="1313" y="-29" on="1"/>
        <pt x="332" y="1128" on="1"/>
        <pt x="306" y="103" on="1"/>
        <pt x="451" y="58" on="1"/>
        <pt x="451" y="0" on="1"/>
        <pt x="422" y="3" on="0"/>
        <pt x="389" y="6" on="1"/>
        <pt x="360" y="8" on="0"/>
        <pt x="286" y="13" on="0"/>
        <pt x="246" y="13" on="1"/>
        <pt x="201" y="13" on="0"/>
        <pt x="104" y="7" on="0"/>
        <pt x="52" y="0" on="1"/>
        <pt x="52" y="58" on="1"/>
        <pt x="75" y="61" on="0"/>
        <pt x="114" y="64" on="0"/>
        <pt x="149" y="67" on="0"/>
        <pt x="183" y="69" on="0"/>
        <pt x="201" y="70" on="1"/>
      </contour>
    </TTGlyph>
    <TTGlyph name="Ntilde" xMin="52" yMin="-29" xMax="1573" yMax="1792">
      <component glyphName="N" x="0" y="0" flags="0x204"/>
      <component glyphName="tilde.case" x="267" y="0" flags="0x4"/>
    </TTGlyph>
    <TTGlyph name="O" xMin="95" yMin="-29" xMax="1482" yMax="1419">
      <contour>
        <pt x="280" y="711" on="1"/>
        <pt x="280" y="581" on="0"/>
        <pt x="350" y="341" on="0"/>
        <pt x="485" y="156" on="0"/>
        <pt x="681" y="45" on="0"/>
        <pt x="806" y="45" on="1"/>
        <pt x="926" y="45" on="0"/>
        <pt x="1109" y="141" on="0"/>
        <pt x="1231" y="308" on="0"/>
        <pt x="1293" y="531" on="0"/>
        <pt x="1293" y="659" on="1"/>
        <pt x="1293" y="803" on="0"/>
        <pt x="1220" y="1054" on="0"/>
        <pt x="1089" y="1240" on="0"/>
        <pt x="906" y="1346" on="0"/>
        <pt x="796" y="1346" on="1"/>
        <pt x="739" y="1346" on="0"/>
        <pt x="619" y="1321" on="0"/>
        <pt x="504" y="1262" on="0"/>
        <pt x="402" y="1166" on="0"/>
        <pt x="325" y="1025" on="0"/>
        <pt x="280" y="835" on="0"/>
      </contour>
      <contour>
        <pt x="95" y="690" on="1"/>
        <pt x="95" y="847" on="0"/>
        <pt x="203" y="1115" on="0"/>
        <pt x="399" y="1309" on="0"/>
        <pt x="674" y="1419" on="0"/>
        <pt x="841" y="1419" on="1"/>
        <pt x="943" y="1419" on="0"/>
        <pt x="1117" y="1364" on="0"/>
        <pt x="1259" y="1267" on="0"/>
        <pt x="1369" y="1135" on="0"/>
        <pt x="1444" y="982" on="0"/>
        <pt x="1482" y="812" on="0"/>
        <pt x="1482" y="727" on="1"/>
        <pt x="1482" y="560" on="0"/>
        <pt x="1374" y="283" on="0"/>
        <pt x="1188" y="82" on="0"/>
        <pt x="942" y="-29" on="0"/>
        <pt x="804" y="-29" on="1"/>
        <pt x="685" y="-29" on="0"/>
        <pt x="488" y="28" on="0"/>
        <pt x="330" y="129" on="0"/>
        <pt x="212" y="266" on="0"/>
        <pt x="134" y="426" on="0"/>
        <pt x="95" y="601" on="0"/>
      </contour>
    </TTGlyph>
    <TTGlyph name="OE" xMin="96" yMin="-29" xMax="1996" yMax="1419">
      <contour>
        <pt x="1428" y="1309" on="1"/>
        <pt x="1420" y="1227" on="0"/>
        <pt x="1413" y="1058" on="0"/>
        <pt x="1410" y="987" on="1"/>
        <pt x="1401" y="762" on="1"/>
        <pt x="1827" y="784" on="1"/>
        <pt x="1817" y="657" on="1"/>
        <pt x="1757" y="665" on="0"/>
        <pt x="1633" y="677" on="0"/>
        <pt x="1521" y="685" on="0"/>
        <pt x="1427" y="690" on="0"/>
        <pt x="1397" y="692" on="1"/>
        <pt x="1379" y="78" on="1"/>
        <pt x="1832" y="94" on="1"/>
        <pt x="1932" y="305" on="1"/>
        <pt x="1996" y="305" on="1"/>
        <pt x="1918" y="-20" on="1"/>
        <pt x="1812" y="-17" on="0"/>
        <pt x="1616" y="-7" on="0"/>
        <pt x="1440" y="3" on="0"/>
        <pt x="1286" y="10" on="0"/>
        <pt x="1222" y="10" on="1"/>
        <pt x="1228" y="185" on="1"/>
        <pt x="1140" y="84" on="0"/>
        <pt x="907" y="-29" on="0"/>
        <pt x="773" y="-29" on="1"/>
        <pt x="657" y="-29" on="0"/>
        <pt x="466" y="28" on="0"/>
        <pt x="316" y="129" on="0"/>
        <pt x="205" y="266" on="0"/>
        <pt x="132" y="426" on="0"/>
        <pt x="96" y="601" on="0"/>
        <pt x="96" y="689" on="1"/>
        <pt x="96" y="847" on="0"/>
        <pt x="195" y="1114" on="0"/>
        <pt x="374" y="1309" on="0"/>
        <pt x="625" y="1419" on="0"/>
        <pt x="777" y="1419" on="1"/>
        <pt x="859" y="1419" on="0"/>
        <pt x="1003" y="1375" on="0"/>
        <pt x="1125" y="1297" on="0"/>
        <pt x="1224" y="1188" on="0"/>
        <pt x="1260" y="1124" on="1"/>
        <pt x="1269" y="1378" on="1"/>
        <pt x="1372" y="1378" on="0"/>
        <pt x="1512" y="1377" on="0"/>
        <pt x="1611" y="1377" on="0"/>
        <pt x="1680" y="1377" on="0"/>
        <pt x="1710" y="1377" on="1"/>
        <pt x="1790" y="1377" on="0"/>
        <pt x="1932" y="1385" on="0"/>
        <pt x="1988" y="1391" on="1"/>
        <pt x="1957" y="1053" on="1"/>
        <pt x="1895" y="1053" on="1"/>
        <pt x="1867" y="1278" on="1"/>
      </contour>
      <contour>
        <pt x="282" y="710" on="1"/>
        <pt x="282" y="585" on="0"/>
        <pt x="346" y="346" on="0"/>
        <pt x="472" y="159" on="0"/>
        <pt x="658" y="45" on="0"/>
        <pt x="781" y="45" on="1"/>
        <pt x="887" y="45" on="0"/>
        <pt x="1058" y="134" on="0"/>
        <pt x="1179" y="296" on="0"/>
        <pt x="1244" y="524" on="0"/>
        <pt x="1244" y="663" on="1"/>
        <pt x="1244" y="807" on="0"/>
        <pt x="1174" y="1056" on="0"/>
        <pt x="1049" y="1241" on="0"/>
        <pt x="875" y="1346" on="0"/>
        <pt x="771" y="1346" on="1"/>
        <pt x="718" y="1346" on="0"/>
        <pt x="604" y="1322" on="0"/>
        <pt x="495" y="1264" on="0"/>
        <pt x="398" y="1170" on="0"/>
        <pt x="325" y="1028" on="0"/>
        <pt x="282" y="836" on="0"/>
      </contour>
    </TTGlyph>
    <TTGlyph name="Oacute" xMin="95" yMin="-29" xMax="1482" yMax="1892">
      <component glyphName="O" x="0" y="0" flags="0x204"/>
      <component glyphName="acute.case" x="280" y="0" flags="0x4"/>
    </TTGlyph>
    <TTGlyph name="Ocircumflex" xMin="95" yMin="-29" xMax="1482" yMax="1855">
      <component glyphName="O" x="0" y="0" flags="0x204"/>
      <component glyphName="circumflex.case" x="183" y="0" flags="0x4"/>
    </TTGlyph>
    <TTGlyph name="Odieresis" xMin="95" yMin="-29" xMax="1482" yMax="1755">
      <component glyphName="O" x="0" y="0" flags="0x204"/>
      <component glyphName="dieresis.case" x="242" y="0" flags="0x4"/>
    </TTGlyph>
    <TTGlyph name="Ograve" xMin="95" yMin="-29" xMax="1482" yMax="1886">
      <component glyphName="O" x="0" y="0" flags="0x204"/>
      <component glyphName="grave.case" x="257" y="0" flags="0x4"/>
    </TTGlyph>
    <TTGlyph name="Oslash" xMin="95" yMin="-170" xMax="1482" yMax="1503">
      <contour>
        <pt x="95" y="690" on="1"/>
        <pt x="95" y="847" on="0"/>
        <pt x="203" y="1115" on="0"/>
        <pt x="399" y="1309" on="0"/>
        <pt x="674" y="1419" on="0"/>
        <pt x="841" y="1419" on="1"/>
        <pt x="941" y="1419" on="0"/>
        <pt x="1110" y="1367" on="0"/>
        <pt x="1180" y="1320" on="1"/>
        <pt x="1302" y="1503" on="1"/>
        <pt x="1367" y="1458" on="1"/>
        <pt x="1243" y="1273" on="1"/>
        <pt x="1301" y="1223" on="0"/>
        <pt x="1390" y="1097" on="0"/>
        <pt x="1451" y="956" on="0"/>
        <pt x="1482" y="803" on="0"/>
        <pt x="1482" y="727" on="1"/>
        <pt x="1482" y="560" on="0"/>
        <pt x="1374" y="283" on="0"/>
        <pt x="1188" y="82" on="0"/>
        <pt x="942" y="-29" on="0"/>
        <pt x="804" y="-29" on="1"/>
        <pt x="694" y="-29" on="0"/>
        <pt x="510" y="19" on="0"/>
        <pt x="434" y="63" on="1"/>
        <pt x="278" y="-170" on="1"/>
        <pt x="216" y="-129" on="1"/>
        <pt x="371" y="104" on="1"/>
        <pt x="302" y="156" on="0"/>
        <pt x="198" y="289" on="0"/>
        <pt x="129" y="442" on="0"/>
        <pt x="95" y="607" on="0"/>
      </contour>
      <contour>
        <pt x="280" y="711" on="1"/>
        <pt x="280" y="568" on="0"/>
        <pt x="363" y="309" on="0"/>
        <pt x="444" y="214" on="1"/>
        <pt x="1105" y="1207" on="1"/>
        <pt x="1042" y="1273" on="0"/>
        <pt x="887" y="1346" on="0"/>
        <pt x="796" y="1346" on="1"/>
        <pt x="739" y="1346" on="0"/>
        <pt x="619" y="1321" on="0"/>
        <pt x="504" y="1262" on="0"/>
        <pt x="402" y="1166" on="0"/>
        <pt x="325" y="1025" on="0"/>
        <pt x="280" y="835" on="0"/>
      </contour>
      <contour>
        <pt x="1293" y="659" on="1"/>
        <pt x="1293" y="803" on="0"/>
        <pt x="1221" y="1050" on="0"/>
        <pt x="1156" y="1143" on="1"/>
        <pt x="498" y="159" on="1"/>
        <pt x="560" y="105" on="0"/>
        <pt x="713" y="45" on="0"/>
        <pt x="806" y="45" on="1"/>
        <pt x="926" y="45" on="0"/>
        <pt x="1109" y="141" on="0"/>
        <pt x="1231" y="308" on="0"/>
        <pt x="1293" y="531" on="0"/>
      </contour>
    </TTGlyph>
    <TTGlyph name="Otilde" xMin="95" yMin="-29" xMax="1482" yMax="1792">
      <component glyphName="O" x="0" y="0" flags="0x204"/>
      <component glyphName="tilde.case" x="235" y="0" flags="0x4"/>
    </TTGlyph>
    <TTGlyph name="P" xMin="63" yMin="0" xMax="1042" yMax="1401">
      <contour>
        <pt x="370" y="102" on="1"/>
        <pt x="515" y="57" on="1"/>
        <pt x="515" y="0" on="1"/>
        <pt x="493" y="3" on="0"/>
        <pt x="463" y="7" on="1"/>
        <pt x="437" y="9" on="0"/>
        <pt x="361" y="14" on="0"/>
        <pt x="310" y="14" on="1"/>
        <pt x="259" y="14" on="0"/>
        <pt x="137" y="8" on="0"/>
        <pt x="63" y="0" on="1"/>
        <pt x="63" y="57" on="1"/>
        <pt x="89" y="59" on="0"/>
        <pt x="128" y="63" on="0"/>
        <pt x="162" y="67" on="0"/>
        <pt x="194" y="69" on="0"/>
        <pt x="212" y="70" on="1"/>
        <pt x="253" y="1288" on="1"/>
        <pt x="108" y="1333" on="1"/>
        <pt x="108" y="1391" on="1"/>
        <pt x="136" y="1387" on="0"/>
        <pt x="168" y="1383" on="1"/>
        <pt x="195" y="1380" on="0"/>
        <pt x="264" y="1376" on="0"/>
        <pt x="300" y="1376" on="1"/>
        <pt x="334" y="1376" on="0"/>
        <pt x="397" y="1384" on="0"/>
        <pt x="467" y="1393" on="0"/>
        <pt x="549" y="1401" on="0"/>
        <pt x="603" y="1401" on="1"/>
        <pt x="717" y="1401" on="0"/>
        <pt x="883" y="1338" on="0"/>
        <pt x="991" y="1232" on="0"/>
        <pt x="1042" y="1092" on="0"/>
        <pt x="1042" y="1014" on="1"/>
        <pt x="1042" y="923" on="0"/>
        <pt x="971" y="767" on="0"/>
        <pt x="849" y="652" on="0"/>
        <pt x="686" y="586" on="0"/>
        <pt x="595" y="586" on="1"/>
        <pt x="564" y="586" on="0"/>
        <pt x="515" y="591" on="0"/>
        <pt x="497" y="596" on="1"/>
        <pt x="499" y="659" on="1"/>
        <pt x="532" y="653" on="0"/>
        <pt x="566" y="653" on="1"/>
        <pt x="636" y="653" on="0"/>
        <pt x="752" y="704" on="0"/>
        <pt x="836" y="795" on="0"/>
        <pt x="882" y="921" on="0"/>
        <pt x="882" y="995" on="1"/>
        <pt x="882" y="1155" on="0"/>
        <pt x="703" y="1335" on="0"/>
        <pt x="523" y="1335" on="1"/>
        <pt x="489" y="1335" on="0"/>
        <pt x="435" y="1330" on="0"/>
        <pt x="409" y="1325" on="1"/>
      </contour>
    </TTGlyph>
    <TTGlyph name="Q" xMin="95" yMin="-514" xMax="1482" yMax="1419">
      <contour>
        <pt x="1449" y="-326" on="1"/>
        <pt x="1429" y="-351" on="0"/>
        <pt x="1376" y="-407" on="0"/>
        <pt x="1317" y="-459" on="0"/>
        <pt x="1256" y="-502" on="0"/>
        <pt x="1228" y="-514" on="1"/>
        <pt x="1175" y="-511" on="0"/>
        <pt x="1069" y="-476" on="0"/>
        <pt x="971" y="-428" on="0"/>
        <pt x="885" y="-374" on="0"/>
        <pt x="853" y="-353" on="1"/>
        <pt x="491" y="-117" on="1"/>
        <pt x="341" y="-150" on="1"/>
        <pt x="325" y="-102" on="1"/>
        <pt x="341" y="-94" on="0"/>
        <pt x="387" y="-78" on="0"/>
        <pt x="437" y="-65" on="0"/>
        <pt x="487" y="-57" on="0"/>
        <pt x="507" y="-57" on="1"/>
        <pt x="534" y="-57" on="0"/>
        <pt x="596" y="-66" on="0"/>
        <pt x="672" y="-90" on="0"/>
        <pt x="765" y="-132" on="0"/>
        <pt x="822" y="-164" on="1"/>
        <pt x="924" y="-221" on="0"/>
        <pt x="1068" y="-300" on="0"/>
        <pt x="1168" y="-351" on="0"/>
        <pt x="1234" y="-379" on="0"/>
        <pt x="1259" y="-385" on="1"/>
        <pt x="1282" y="-375" on="0"/>
        <pt x="1321" y="-355" on="0"/>
        <pt x="1357" y="-332" on="0"/>
        <pt x="1393" y="-308" on="0"/>
        <pt x="1414" y="-293" on="1"/>
      </contour>
      <contour>
        <pt x="280" y="711" on="1"/>
        <pt x="280" y="581" on="0"/>
        <pt x="350" y="341" on="0"/>
        <pt x="485" y="156" on="0"/>
        <pt x="681" y="45" on="0"/>
        <pt x="806" y="45" on="1"/>
        <pt x="926" y="45" on="0"/>
        <pt x="1109" y="141" on="0"/>
        <pt x="1231" y="308" on="0"/>
        <pt x="1293" y="531" on="0"/>
        <pt x="1293" y="659" on="1"/>
        <pt x="1293" y="803" on="0"/>
        <pt x="1220" y="1054" on="0"/>
        <pt x="1089" y="1240" on="0"/>
        <pt x="906" y="1346" on="0"/>
        <pt x="796" y="1346" on="1"/>
        <pt x="739" y="1346" on="0"/>
        <pt x="619" y="1321" on="0"/>
        <pt x="504" y="1262" on="0"/>
        <pt x="402" y="1166" on="0"/>
        <pt x="325" y="1025" on="0"/>
        <pt x="280" y="835" on="0"/>
      </contour>
      <contour>
        <pt x="95" y="690" on="1"/>
        <pt x="95" y="847" on="0"/>
        <pt x="203" y="1115" on="0"/>
        <pt x="399" y="1309" on="0"/>
        <pt x="674" y="1419" on="0"/>
        <pt x="841" y="1419" on="1"/>
        <pt x="943" y="1419" on="0"/>
        <pt x="1117" y="1364" on="0"/>
        <pt x="1259" y="1267" on="0"/>
        <pt x="1369" y="1135" on="0"/>
        <pt x="1444" y="982" on="0"/>
        <pt x="1482" y="812" on="0"/>
        <pt x="1482" y="727" on="1"/>
        <pt x="1482" y="560" on="0"/>
        <pt x="1374" y="283" on="0"/>
        <pt x="1188" y="82" on="0"/>
        <pt x="942" y="-29" on="0"/>
        <pt x="804" y="-29" on="1"/>
        <pt x="685" y="-29" on="0"/>
        <pt x="488" y="28" on="0"/>
        <pt x="330" y="129" on="0"/>
        <pt x="212" y="266" on="0"/>
        <pt x="134" y="426" on="0"/>
        <pt x="95" y="601" on="0"/>
      </contour>
    </TTGlyph>
    <TTGlyph name="R" xMin="63" yMin="0" xMax="1210" yMax="1401">
      <contour>
        <pt x="1207" y="0" on="1"/>
        <pt x="919" y="0" on="1"/>
        <pt x="557" y="640" on="1"/>
        <pt x="540" y="637" on="1"/>
        <pt x="527" y="636" on="0"/>
        <pt x="499" y="635" on="0"/>
        <pt x="464" y="634" on="0"/>
        <pt x="417" y="633" on="0"/>
        <pt x="386" y="633" on="1"/>
        <pt x="368" y="102" on="1"/>
        <pt x="515" y="57" on="1"/>
        <pt x="515" y="0" on="1"/>
        <pt x="493" y="3" on="0"/>
        <pt x="463" y="7" on="1"/>
        <pt x="437" y="9" on="0"/>
        <pt x="361" y="14" on="0"/>
        <pt x="310" y="14" on="1"/>
        <pt x="259" y="14" on="0"/>
        <pt x="137" y="8" on="0"/>
        <pt x="63" y="0" on="1"/>
        <pt x="63" y="57" on="1"/>
        <pt x="89" y="59" on="0"/>
        <pt x="128" y="63" on="0"/>
        <pt x="162" y="67" on="0"/>
        <pt x="194" y="69" on="0"/>
        <pt x="212" y="70" on="1"/>
        <pt x="253" y="1288" on="1"/>
        <pt x="108" y="1333" on="1"/>
        <pt x="108" y="1391" on="1"/>
        <pt x="135" y="1387" on="0"/>
        <pt x="167" y="1383" on="1"/>
        <pt x="194" y="1380" on="0"/>
        <pt x="263" y="1376" on="0"/>
        <pt x="300" y="1376" on="1"/>
        <pt x="334" y="1376" on="0"/>
        <pt x="396" y="1384" on="0"/>
        <pt x="462" y="1393" on="0"/>
        <pt x="536" y="1401" on="0"/>
        <pt x="581" y="1401" on="1"/>
        <pt x="701" y="1401" on="0"/>
        <pt x="871" y="1342" on="0"/>
        <pt x="979" y="1243" on="0"/>
        <pt x="1029" y="1116" on="0"/>
        <pt x="1029" y="1049" on="1"/>
        <pt x="1029" y="958" on="0"/>
        <pt x="965" y="827" on="0"/>
        <pt x="870" y="737" on="0"/>
        <pt x="762" y="682" on="0"/>
        <pt x="718" y="667" on="1"/>
        <pt x="1044" y="102" on="1"/>
        <pt x="1210" y="57" on="1"/>
      </contour>
      <contour>
        <pt x="388" y="702" on="1"/>
        <pt x="446" y="702" on="1"/>
        <pt x="571" y="702" on="0"/>
        <pt x="735" y="761" on="0"/>
        <pt x="831" y="857" on="0"/>
        <pt x="870" y="981" on="0"/>
        <pt x="870" y="1047" on="1"/>
        <pt x="870" y="1095" on="0"/>
        <pt x="838" y="1197" on="0"/>
        <pt x="762" y="1281" on="0"/>
        <pt x="634" y="1335" on="0"/>
        <pt x="538" y="1335" on="1"/>
        <pt x="503" y="1335" on="0"/>
        <pt x="444" y="1331" on="0"/>
        <pt x="409" y="1325" on="1"/>
      </contour>
    </TTGlyph>
    <TTGlyph name="S" xMin="81" yMin="-29" xMax="904" yMax="1419">
      <contour>
        <pt x="474" y="51" on="1"/>
        <pt x="538" y="51" on="0"/>
        <pt x="638" y="94" on="0"/>
        <pt x="707" y="166" on="0"/>
        <pt x="743" y="262" on="0"/>
        <pt x="743" y="315" on="1"/>
        <pt x="743" y="376" on="0"/>
        <pt x="686" y="478" on="0"/>
        <pt x="599" y="565" on="0"/>
        <pt x="496" y="641" on="0"/>
        <pt x="450" y="678" on="1"/>
        <pt x="406" y="712" on="0"/>
        <pt x="300" y="793" on="0"/>
        <pt x="207" y="891" on="0"/>
        <pt x="145" y="1009" on="0"/>
        <pt x="145" y="1081" on="1"/>
        <pt x="145" y="1136" on="0"/>
        <pt x="179" y="1255" on="0"/>
        <pt x="265" y="1354" on="0"/>
        <pt x="414" y="1419" on="0"/>
        <pt x="530" y="1419" on="1"/>
        <pt x="628" y="1419" on="0"/>
        <pt x="810" y="1388" on="0"/>
        <pt x="876" y="1368" on="1"/>
        <pt x="853" y="1067" on="1"/>
        <pt x="796" y="1067" on="1"/>
        <pt x="769" y="1272" on="1"/>
        <pt x="718" y="1309" on="0"/>
        <pt x="593" y="1346" on="0"/>
        <pt x="528" y="1346" on="1"/>
        <pt x="484" y="1346" on="0"/>
        <pt x="404" y="1319" on="0"/>
        <pt x="342" y="1266" on="0"/>
        <pt x="306" y="1189" on="0"/>
        <pt x="306" y="1139" on="1"/>
        <pt x="306" y="1077" on="0"/>
        <pt x="355" y="983" on="0"/>
        <pt x="432" y="907" on="0"/>
        <pt x="526" y="843" on="0"/>
        <pt x="571" y="811" on="1"/>
        <pt x="637" y="763" on="0"/>
        <pt x="758" y="668" on="0"/>
        <pt x="849" y="562" on="0"/>
        <pt x="904" y="442" on="0"/>
        <pt x="904" y="369" on="1"/>
        <pt x="904" y="286" on="0"/>
        <pt x="827" y="141" on="0"/>
        <pt x="700" y="33" on="0"/>
        <pt x="537" y="-29" on="0"/>
        <pt x="450" y="-29" on="1"/>
        <pt x="344" y="-29" on="0"/>
        <pt x="152" y="5" on="0"/>
        <pt x="81" y="27" on="1"/>
        <pt x="106" y="344" on="1"/>
        <pt x="167" y="344" on="1"/>
        <pt x="184" y="170" on="1"/>
        <pt x="202" y="152" on="0"/>
        <pt x="265" y="110" on="0"/>
        <pt x="343" y="74" on="0"/>
        <pt x="430" y="51" on="0"/>
      </contour>
    </TTGlyph>
    <TTGlyph name="T" xMin="39" yMin="0" xMax="1216" yMax="1405">
      <contour>
        <pt x="555" y="1309" on="1"/>
        <pt x="170" y="1327" on="1"/>
        <pt x="98" y="1067" on="1"/>
        <pt x="39" y="1067" on="1"/>
        <pt x="80" y="1403" on="1"/>
        <pt x="194" y="1394" on="0"/>
        <pt x="357" y="1391" on="0"/>
        <pt x="420" y="1391" on="1"/>
        <pt x="556" y="1391" on="0"/>
        <pt x="803" y="1392" on="0"/>
        <pt x="1009" y="1395" on="0"/>
        <pt x="1168" y="1400" on="0"/>
        <pt x="1216" y="1405" on="1"/>
        <pt x="1185" y="1067" on="1"/>
        <pt x="1124" y="1067" on="1"/>
        <pt x="1095" y="1286" on="1"/>
        <pt x="708" y="1303" on="1"/>
        <pt x="669" y="102" on="1"/>
        <pt x="815" y="57" on="1"/>
        <pt x="815" y="0" on="1"/>
        <pt x="793" y="3" on="0"/>
        <pt x="762" y="7" on="1"/>
        <pt x="736" y="9" on="0"/>
        <pt x="660" y="14" on="0"/>
        <pt x="610" y="14" on="1"/>
        <pt x="559" y="14" on="0"/>
        <pt x="436" y="8" on="0"/>
        <pt x="362" y="0" on="1"/>
        <pt x="362" y="57" on="1"/>
        <pt x="388" y="59" on="0"/>
        <pt x="428" y="63" on="0"/>
        <pt x="462" y="67" on="0"/>
        <pt x="494" y="69" on="0"/>
        <pt x="512" y="70" on="1"/>
      </contour>
    </TTGlyph>
    <TTGlyph name="Thorn" xMin="64" yMin="0" xMax="1035" yMax="1391">
      <contour>
        <pt x="596" y="1120" on="1"/>
        <pt x="710" y="1120" on="0"/>
        <pt x="875" y="1057" on="0"/>
        <pt x="983" y="951" on="0"/>
        <pt x="1035" y="811" on="0"/>
        <pt x="1035" y="733" on="1"/>
        <pt x="1035" y="642" on="0"/>
        <pt x="964" y="485" on="0"/>
        <pt x="842" y="370" on="0"/>
        <pt x="679" y="305" on="0"/>
        <pt x="588" y="305" on="1"/>
        <pt x="524" y="305" on="0"/>
        <pt x="490" y="315" on="1"/>
        <pt x="492" y="378" on="1"/>
        <pt x="525" y="372" on="0"/>
        <pt x="559" y="372" on="1"/>
        <pt x="629" y="372" on="0"/>
        <pt x="745" y="423" on="0"/>
        <pt x="829" y="514" on="0"/>
        <pt x="875" y="640" on="0"/>
        <pt x="875" y="714" on="1"/>
        <pt x="875" y="874" on="0"/>
        <pt x="696" y="1054" on="0"/>
        <pt x="516" y="1054" on="1"/>
        <pt x="451" y="1054" on="0"/>
        <pt x="402" y="1044" on="1"/>
        <pt x="371" y="102" on="1"/>
        <pt x="516" y="57" on="1"/>
        <pt x="516" y="0" on="1"/>
        <pt x="494" y="3" on="0"/>
        <pt x="464" y="7" on="1"/>
        <pt x="438" y="9" on="0"/>
        <pt x="362" y="14" on="0"/>
        <pt x="311" y="14" on="1"/>
        <pt x="260" y="14" on="0"/>
        <pt x="138" y="8" on="0"/>
        <pt x="64" y="0" on="1"/>
        <pt x="64" y="57" on="1"/>
        <pt x="90" y="59" on="0"/>
        <pt x="129" y="63" on="0"/>
        <pt x="163" y="67" on="0"/>
        <pt x="195" y="69" on="0"/>
        <pt x="213" y="70" on="1"/>
        <pt x="256" y="1288" on="1"/>
        <pt x="109" y="1333" on="1"/>
        <pt x="109" y="1391" on="1"/>
        <pt x="131" y="1387" on="0"/>
        <pt x="161" y="1383" on="1"/>
        <pt x="187" y="1380" on="0"/>
        <pt x="262" y="1376" on="0"/>
        <pt x="313" y="1376" on="1"/>
        <pt x="364" y="1376" on="0"/>
        <pt x="487" y="1383" on="0"/>
        <pt x="561" y="1391" on="1"/>
        <pt x="561" y="1333" on="1"/>
        <pt x="535" y="1331" on="0"/>
        <pt x="496" y="1327" on="0"/>
        <pt x="462" y="1324" on="0"/>
        <pt x="430" y="1322" on="0"/>
        <pt x="412" y="1321" on="1"/>
        <pt x="404" y="1110" on="1"/>
        <pt x="439" y="1113" on="0"/>
        <pt x="528" y="1120" on="0"/>
      </contour>
    </TTGlyph>
    <TTGlyph name="U" xMin="78" yMin="-29" xMax="1503" yMax="1391">
      <contour>
        <pt x="78" y="1391" on="1"/>
        <pt x="100" y="1387" on="0"/>
        <pt x="130" y="1383" on="1"/>
        <pt x="156" y="1380" on="0"/>
        <pt x="231" y="1376" on="0"/>
        <pt x="282" y="1376" on="1"/>
        <pt x="333" y="1376" on="0"/>
        <pt x="456" y="1383" on="0"/>
        <pt x="530" y="1391" on="1"/>
        <pt x="530" y="1333" on="1"/>
        <pt x="504" y="1331" on="0"/>
        <pt x="465" y="1327" on="0"/>
        <pt x="431" y="1324" on="0"/>
        <pt x="399" y="1322" on="0"/>
        <pt x="381" y="1321" on="1"/>
        <pt x="375" y="1144" on="0"/>
        <pt x="366" y="887" on="0"/>
        <pt x="359" y="706" on="0"/>
        <pt x="355" y="590" on="0"/>
        <pt x="353" y="519" on="0"/>
        <pt x="352" y="482" on="0"/>
        <pt x="352" y="471" on="1"/>
        <pt x="352" y="265" on="0"/>
        <pt x="549" y="57" on="0"/>
        <pt x="760" y="57" on="1"/>
        <pt x="965" y="57" on="0"/>
        <pt x="1181" y="293" on="0"/>
        <pt x="1190" y="535" on="1"/>
        <pt x="1218" y="1288" on="1"/>
        <pt x="1071" y="1333" on="1"/>
        <pt x="1071" y="1391" on="1"/>
        <pt x="1091" y="1387" on="0"/>
        <pt x="1118" y="1383" on="1"/>
        <pt x="1141" y="1380" on="0"/>
        <pt x="1212" y="1376" on="0"/>
        <pt x="1261" y="1376" on="1"/>
        <pt x="1309" y="1376" on="0"/>
        <pt x="1429" y="1383" on="0"/>
        <pt x="1503" y="1391" on="1"/>
        <pt x="1503" y="1333" on="1"/>
        <pt x="1477" y="1331" on="0"/>
        <pt x="1437" y="1327" on="0"/>
        <pt x="1404" y="1324" on="0"/>
        <pt x="1372" y="1322" on="0"/>
        <pt x="1354" y="1321" on="1"/>
        <pt x="1286" y="525" on="1"/>
        <pt x="1263" y="256" on="0"/>
        <pt x="1000" y="-29" on="0"/>
        <pt x="745" y="-29" on="1"/>
        <pt x="620" y="-29" on="0"/>
        <pt x="416" y="23" on="0"/>
        <pt x="271" y="130" on="0"/>
        <pt x="192" y="291" on="0"/>
        <pt x="192" y="401" on="1"/>
        <pt x="192" y="422" on="0"/>
        <pt x="195" y="507" on="0"/>
        <pt x="199" y="621" on="0"/>
        <pt x="204" y="755" on="0"/>
        <pt x="210" y="896" on="0"/>
        <pt x="216" y="1035" on="0"/>
        <pt x="221" y="1158" on="0"/>
        <pt x="224" y="1257" on="0"/>
        <pt x="225" y="1288" on="1"/>
        <pt x="78" y="1333" on="1"/>
        <pt x="78" y="1391" on="1"/>
      </contour>
    </TTGlyph>
    <TTGlyph name="Uacute" xMin="78" yMin="-29" xMax="1503" yMax="1892">
      <component glyphName="U" x="0" y="0" flags="0x204"/>
      <component glyphName="acute.case" x="260" y="0" flags="0x4"/>
    </TTGlyph>
    <TTGlyph name="Ucircumflex" xMin="78" yMin="-29" xMax="1503" yMax="1855">
      <component glyphName="U" x="0" y="0" flags="0x204"/>
      <component glyphName="circumflex.case" x="164" y="0" flags="0x4"/>
    </TTGlyph>
    <TTGlyph name="Udieresis" xMin="78" yMin="-29" xMax="1503" yMax="1755">
      <component glyphName="U" x="0" y="0" flags="0x204"/>
      <component glyphName="dieresis.case" x="227" y="0" flags="0x4"/>
    </TTGlyph>
    <TTGlyph name="Ugrave" xMin="78" yMin="-29" xMax="1503" yMax="1886">
      <component glyphName="U" x="0" y="0" flags="0x204"/>
      <component glyphName="grave.case" x="258" y="0" flags="0x4"/>
    </TTGlyph>
    <TTGlyph name="V" xMin="-1" yMin="-31" xMax="1401" yMax="1391">
      <contour>
        <pt x="683" y="186" on="1"/>
        <pt x="695" y="186" on="1"/>
        <pt x="1107" y="1288" on="1"/>
        <pt x="990" y="1333" on="1"/>
        <pt x="990" y="1391" on="1"/>
        <pt x="1017" y="1387" on="0"/>
        <pt x="1050" y="1384" on="1"/>
        <pt x="1078" y="1382" on="0"/>
        <pt x="1151" y="1378" on="0"/>
        <pt x="1193" y="1378" on="1"/>
        <pt x="1205" y="1378" on="0"/>
        <pt x="1253" y="1379" on="0"/>
        <pt x="1311" y="1382" on="0"/>
        <pt x="1374" y="1387" on="0"/>
        <pt x="1401" y="1391" on="1"/>
        <pt x="1401" y="1333" on="1"/>
        <pt x="1375" y="1331" on="0"/>
        <pt x="1336" y="1327" on="0"/>
        <pt x="1302" y="1324" on="0"/>
        <pt x="1270" y="1322" on="0"/>
        <pt x="1252" y="1321" on="1"/>
        <pt x="687" y="-14" on="1"/>
        <pt x="607" y="-31" on="1"/>
        <pt x="144" y="1288" on="1"/>
        <pt x="-1" y="1333" on="1"/>
        <pt x="-1" y="1391" on="1"/>
        <pt x="22" y="1387" on="0"/>
        <pt x="54" y="1383" on="1"/>
        <pt x="81" y="1380" on="0"/>
        <pt x="160" y="1376" on="0"/>
        <pt x="212" y="1376" on="1"/>
        <pt x="263" y="1376" on="0"/>
        <pt x="387" y="1383" on="0"/>
        <pt x="461" y="1391" on="1"/>
        <pt x="461" y="1333" on="1"/>
        <pt x="435" y="1331" on="0"/>
        <pt x="396" y="1327" on="0"/>
        <pt x="362" y="1324" on="0"/>
        <pt x="330" y="1322" on="0"/>
        <pt x="312" y="1321" on="1"/>
      </contour>
    </TTGlyph>
    <TTGlyph name="W" xMin="7" yMin="-31" xMax="1940" yMax="1391">
      <contour>
        <pt x="1010" y="1237" on="1"/>
        <pt x="1305" y="256" on="1"/>
        <pt x="1318" y="256" on="1"/>
        <pt x="1649" y="1288" on="1"/>
        <pt x="1529" y="1333" on="1"/>
        <pt x="1529" y="1391" on="1"/>
        <pt x="1545" y="1387" on="0"/>
        <pt x="1570" y="1383" on="1"/>
        <pt x="1591" y="1380" on="0"/>
        <pt x="1656" y="1376" on="0"/>
        <pt x="1703" y="1376" on="1"/>
        <pt x="1749" y="1376" on="0"/>
        <pt x="1866" y="1383" on="0"/>
        <pt x="1940" y="1391" on="1"/>
        <pt x="1940" y="1333" on="1"/>
        <pt x="1914" y="1331" on="0"/>
        <pt x="1875" y="1327" on="0"/>
        <pt x="1841" y="1324" on="0"/>
        <pt x="1809" y="1322" on="0"/>
        <pt x="1791" y="1321" on="1"/>
        <pt x="1307" y="-14" on="1"/>
        <pt x="1228" y="-31" on="1"/>
        <pt x="939" y="932" on="1"/>
        <pt x="613" y="-14" on="1"/>
        <pt x="533" y="-31" on="1"/>
        <pt x="163" y="1288" on="1"/>
        <pt x="7" y="1333" on="1"/>
        <pt x="7" y="1391" on="1"/>
        <pt x="30" y="1387" on="0"/>
        <pt x="62" y="1383" on="1"/>
        <pt x="89" y="1380" on="0"/>
        <pt x="168" y="1376" on="0"/>
        <pt x="220" y="1376" on="1"/>
        <pt x="271" y="1376" on="0"/>
        <pt x="396" y="1383" on="0"/>
        <pt x="470" y="1391" on="1"/>
        <pt x="470" y="1333" on="1"/>
        <pt x="444" y="1331" on="0"/>
        <pt x="404" y="1327" on="0"/>
        <pt x="370" y="1324" on="0"/>
        <pt x="338" y="1322" on="0"/>
        <pt x="320" y="1321" on="1"/>
        <pt x="609" y="256" on="1"/>
        <pt x="621" y="256" on="1"/>
        <pt x="951" y="1219" on="1"/>
      </contour>
    </TTGlyph>
    <TTGlyph name="X" xMin="-35" yMin="0" xMax="1182" yMax="1391">
      <contour>
        <pt x="528" y="696" on="1"/>
        <pt x="213" y="1288" on="1"/>
        <pt x="49" y="1333" on="1"/>
        <pt x="49" y="1391" on="1"/>
        <pt x="72" y="1387" on="0"/>
        <pt x="105" y="1383" on="1"/>
        <pt x="133" y="1380" on="0"/>
        <pt x="214" y="1376" on="0"/>
        <pt x="267" y="1376" on="1"/>
        <pt x="319" y="1376" on="0"/>
        <pt x="444" y="1383" on="0"/>
        <pt x="518" y="1391" on="1"/>
        <pt x="518" y="1333" on="1"/>
        <pt x="492" y="1331" on="0"/>
        <pt x="453" y="1327" on="0"/>
        <pt x="419" y="1324" on="0"/>
        <pt x="387" y="1322" on="0"/>
        <pt x="369" y="1321" on="1"/>
        <pt x="626" y="846" on="1"/>
        <pt x="893" y="1288" on="1"/>
        <pt x="754" y="1333" on="1"/>
        <pt x="754" y="1391" on="1"/>
        <pt x="772" y="1387" on="0"/>
        <pt x="799" y="1383" on="1"/>
        <pt x="822" y="1380" on="0"/>
        <pt x="892" y="1376" on="0"/>
        <pt x="940" y="1376" on="1"/>
        <pt x="988" y="1376" on="0"/>
        <pt x="1108" y="1381" on="0"/>
        <pt x="1182" y="1391" on="1"/>
        <pt x="1182" y="1333" on="1"/>
        <pt x="1145" y="1327" on="0"/>
        <pt x="1090" y="1323" on="0"/>
        <pt x="1053" y="1321" on="1"/>
        <pt x="668" y="769" on="1"/>
        <pt x="1030" y="102" on="1"/>
        <pt x="1182" y="57" on="1"/>
        <pt x="1182" y="0" on="1"/>
        <pt x="1159" y="3" on="0"/>
        <pt x="1126" y="7" on="1"/>
        <pt x="1098" y="9" on="0"/>
        <pt x="1017" y="14" on="0"/>
        <pt x="965" y="14" on="1"/>
        <pt x="912" y="14" on="0"/>
        <pt x="787" y="8" on="0"/>
        <pt x="713" y="0" on="1"/>
        <pt x="713" y="57" on="1"/>
        <pt x="739" y="59" on="0"/>
        <pt x="779" y="63" on="0"/>
        <pt x="812" y="67" on="0"/>
        <pt x="844" y="69" on="0"/>
        <pt x="862" y="70" on="1"/>
        <pt x="570" y="618" on="1"/>
        <pt x="254" y="102" on="1"/>
        <pt x="394" y="57" on="1"/>
        <pt x="394" y="0" on="1"/>
        <pt x="375" y="3" on="0"/>
        <pt x="348" y="7" on="1"/>
        <pt x="325" y="9" on="0"/>
        <pt x="255" y="14" on="0"/>
        <pt x="207" y="14" on="1"/>
        <pt x="159" y="14" on="0"/>
        <pt x="40" y="8" on="0"/>
        <pt x="-35" y="0" on="1"/>
        <pt x="-35" y="57" on="1"/>
        <pt x="0" y="62" on="0"/>
        <pt x="57" y="68" on="0"/>
        <pt x="94" y="70" on="1"/>
      </contour>
    </TTGlyph>
    <TTGlyph name="Y" xMin="-22" yMin="0" xMax="1299" yMax="1389">
      <contour>
        <pt x="705" y="608" on="1"/>
        <pt x="688" y="102" on="1"/>
        <pt x="834" y="57" on="1"/>
        <pt x="834" y="0" on="1"/>
        <pt x="812" y="3" on="0"/>
        <pt x="781" y="7" on="1"/>
        <pt x="755" y="9" on="0"/>
        <pt x="679" y="14" on="0"/>
        <pt x="629" y="14" on="1"/>
        <pt x="578" y="14" on="0"/>
        <pt x="455" y="8" on="0"/>
        <pt x="381" y="0" on="1"/>
        <pt x="381" y="57" on="1"/>
        <pt x="407" y="59" on="0"/>
        <pt x="447" y="63" on="0"/>
        <pt x="481" y="67" on="0"/>
        <pt x="513" y="69" on="0"/>
        <pt x="531" y="70" on="1"/>
        <pt x="543" y="606" on="1"/>
        <pt x="148" y="1288" on="1"/>
        <pt x="-22" y="1331" on="1"/>
        <pt x="-22" y="1389" on="1"/>
        <pt x="3" y="1385" on="0"/>
        <pt x="36" y="1381" on="1"/>
        <pt x="65" y="1378" on="0"/>
        <pt x="146" y="1374" on="0"/>
        <pt x="199" y="1374" on="1"/>
        <pt x="252" y="1374" on="0"/>
        <pt x="377" y="1381" on="0"/>
        <pt x="451" y="1389" on="1"/>
        <pt x="451" y="1331" on="1"/>
        <pt x="425" y="1328" on="0"/>
        <pt x="385" y="1324" on="0"/>
        <pt x="351" y="1321" on="0"/>
        <pt x="319" y="1320" on="0"/>
        <pt x="301" y="1319" on="1"/>
        <pt x="654" y="696" on="1"/>
        <pt x="670" y="696" on="1"/>
        <pt x="1008" y="1288" on="1"/>
        <pt x="858" y="1331" on="1"/>
        <pt x="858" y="1389" on="1"/>
        <pt x="878" y="1385" on="0"/>
        <pt x="907" y="1381" on="1"/>
        <pt x="932" y="1378" on="0"/>
        <pt x="1005" y="1374" on="0"/>
        <pt x="1055" y="1374" on="1"/>
        <pt x="1105" y="1374" on="0"/>
        <pt x="1224" y="1381" on="0"/>
        <pt x="1299" y="1389" on="1"/>
        <pt x="1299" y="1331" on="1"/>
        <pt x="1257" y="1326" on="0"/>
        <pt x="1194" y="1320" on="0"/>
        <pt x="1157" y="1319" on="1"/>
      </contour>
    </TTGlyph>
    <TTGlyph name="Yacute" xMin="-22" yMin="0" xMax="1299" yMax="1892">
      <component glyphName="Y" x="0" y="0" flags="0x204"/>
      <component glyphName="acute.case" x="92" y="0" flags="0x4"/>
    </TTGlyph>
    <TTGlyph name="Ydieresis" xMin="-22" yMin="0" xMax="1299" yMax="1755">
      <component glyphName="Y" x="0" y="0" flags="0x204"/>
      <component glyphName="dieresis.case" x="36" y="0" flags="0x4"/>
    </TTGlyph>
    <TTGlyph name="Z" xMin="47" yMin="0" xMax="1225" yMax="1391">
      <contour>
        <pt x="47" y="0" on="1"/>
        <pt x="49" y="61" on="1"/>
        <pt x="1014" y="1333" on="1"/>
        <pt x="281" y="1284" on="1"/>
        <pt x="166" y="1061" on="1"/>
        <pt x="103" y="1061" on="1"/>
        <pt x="170" y="1391" on="1"/>
        <pt x="1194" y="1391" on="1"/>
        <pt x="1192" y="1325" on="1"/>
        <pt x="248" y="57" on="1"/>
        <pt x="1038" y="102" on="1"/>
        <pt x="1157" y="360" on="1"/>
        <pt x="1225" y="360" on="1"/>
        <pt x="1147" y="0" on="1"/>
      </contour>
    </TTGlyph>
    <TTGlyph name="a" xMin="62" yMin="-20" xMax="955" yMax="897">
      <contour>
        <pt x="611" y="14" on="1"/>
        <pt x="615" y="39" on="0"/>
        <pt x="626" y="134" on="0"/>
        <pt x="637" y="248" on="0"/>
        <pt x="646" y="366" on="0"/>
        <pt x="648" y="414" on="1"/>
        <pt x="632" y="418" on="1"/>
        <pt x="592" y="339" on="0"/>
        <pt x="485" y="193" on="0"/>
        <pt x="363" y="76" on="0"/>
        <pt x="234" y="-5" on="0"/>
        <pt x="173" y="-20" on="1"/>
        <pt x="67" y="14" on="1"/>
        <pt x="63" y="39" on="0"/>
        <pt x="62" y="88" on="0"/>
        <pt x="62" y="113" on="1"/>
        <pt x="62" y="219" on="0"/>
        <pt x="103" y="418" on="0"/>
        <pt x="177" y="592" on="0"/>
        <pt x="276" y="736" on="0"/>
        <pt x="394" y="840" on="0"/>
        <pt x="523" y="897" on="0"/>
        <pt x="589" y="897" on="1"/>
        <pt x="621" y="897" on="0"/>
        <pt x="676" y="893" on="0"/>
        <pt x="726" y="886" on="0"/>
        <pt x="776" y="875" on="0"/>
        <pt x="804" y="868" on="1"/>
        <pt x="795" y="765" on="0"/>
        <pt x="782" y="569" on="0"/>
        <pt x="774" y="374" on="0"/>
        <pt x="771" y="179" on="0"/>
        <pt x="771" y="78" on="1"/>
        <pt x="840" y="87" on="0"/>
        <pt x="937" y="131" on="1"/>
        <pt x="955" y="92" on="1"/>
        <pt x="924" y="71" on="0"/>
        <pt x="834" y="30" on="0"/>
        <pt x="743" y="-1" on="0"/>
        <pt x="665" y="-20" on="0"/>
        <pt x="646" y="-20" on="1"/>
      </contour>
      <contour>
        <pt x="661" y="772" on="1"/>
        <pt x="630" y="781" on="0"/>
        <pt x="552" y="797" on="0"/>
        <pt x="517" y="797" on="1"/>
        <pt x="440" y="797" on="0"/>
        <pt x="324" y="711" on="0"/>
        <pt x="247" y="558" on="0"/>
        <pt x="208" y="344" on="0"/>
        <pt x="208" y="217" on="1"/>
        <pt x="208" y="189" on="0"/>
        <pt x="210" y="133" on="0"/>
        <pt x="212" y="104" on="1"/>
        <pt x="242" y="108" on="0"/>
        <pt x="329" y="151" on="0"/>
        <pt x="424" y="226" on="0"/>
        <pt x="520" y="331" on="0"/>
        <pt x="598" y="463" on="0"/>
        <pt x="651" y="619" on="0"/>
        <pt x="656" y="707" on="1"/>
      </contour>
    </TTGlyph>
    <TTGlyph name="aacute" xMin="62" yMin="-20" xMax="955" yMax="1544">
      <component glyphName="a" x="0" y="0" flags="0x204"/>
      <component glyphName="acute" x="384" y="0" flags="0x4"/>
    </TTGlyph>
    <TTGlyph name="acircumflex" xMin="62" yMin="-20" xMax="955" yMax="1493">
      <component glyphName="a" x="0" y="0" flags="0x204"/>
      <component glyphName="circumflex" x="177" y="0" flags="0x4"/>
    </TTGlyph>
    <TTGlyph name="acute" xMin="102" yMin="1133" xMax="479" yMax="1544">
      <contour>
        <pt x="102" y="1165" on="1"/>
        <pt x="354" y="1544" on="1"/>
        <pt x="382" y="1516" on="0"/>
        <pt x="447" y="1472" on="0"/>
        <pt x="479" y="1456" on="1"/>
        <pt x="150" y="1133" on="1"/>
      </contour>
    </TTGlyph>
    <TTGlyph name="acute.case" xMin="412" yMin="1546" xMax="852" yMax="1892">
      <contour>
        <pt x="412" y="1591" on="1"/>
        <pt x="754" y="1892" on="1"/>
        <pt x="774" y="1858" on="0"/>
        <pt x="824" y="1797" on="0"/>
        <pt x="852" y="1774" on="1"/>
        <pt x="449" y="1546" on="1"/>
      </contour>
    </TTGlyph>
    <TTGlyph name="adieresis" xMin="62" yMin="-20" xMax="955" yMax="1372">
      <component glyphName="a" x="0" y="0" flags="0x204"/>
      <component glyphName="dieresis" x="203" y="0" flags="0x4"/>
    </TTGlyph>
    <TTGlyph name="ae" xMin="62" yMin="-20" xMax="1094" yMax="897">
      <contour>
        <pt x="589" y="897" on="1"/>
        <pt x="621" y="897" on="0"/>
        <pt x="676" y="893" on="0"/>
        <pt x="726" y="886" on="0"/>
        <pt x="776" y="875" on="0"/>
        <pt x="804" y="868" on="1"/>
        <pt x="839" y="882" on="0"/>
        <pt x="913" y="897" on="0"/>
        <pt x="953" y="897" on="1"/>
        <pt x="969" y="897" on="0"/>
        <pt x="1006" y="894" on="0"/>
        <pt x="1043" y="884" on="0"/>
        <pt x="1079" y="867" on="0"/>
        <pt x="1094" y="852" on="1"/>
        <pt x="1092" y="733" on="1"/>
        <pt x="1049" y="667" on="0"/>
        <pt x="982" y="606" on="1"/>
        <pt x="953" y="580" on="0"/>
        <pt x="881" y="524" on="0"/>
        <pt x="792" y="472" on="0"/>
        <pt x="685" y="425" on="0"/>
        <pt x="623" y="407" on="1"/>
        <pt x="627" y="320" on="0"/>
        <pt x="671" y="159" on="0"/>
        <pt x="718" y="104" on="1"/>
        <pt x="802" y="117" on="0"/>
        <pt x="961" y="205" on="0"/>
        <pt x="1051" y="274" on="1"/>
        <pt x="1078" y="238" on="1"/>
        <pt x="1051" y="213" on="0"/>
        <pt x="974" y="146" on="0"/>
        <pt x="874" y="74" on="0"/>
        <pt x="752" y="6" on="0"/>
        <pt x="679" y="-20" on="1"/>
        <pt x="603" y="14" on="1"/>
        <pt x="561" y="57" on="0"/>
        <pt x="511" y="159" on="0"/>
        <pt x="499" y="216" on="1"/>
        <pt x="424" y="125" on="0"/>
        <pt x="254" y="0" on="0"/>
        <pt x="173" y="-20" on="1"/>
        <pt x="66" y="14" on="1"/>
        <pt x="63" y="39" on="0"/>
        <pt x="62" y="88" on="0"/>
        <pt x="62" y="113" on="1"/>
        <pt x="62" y="219" on="0"/>
        <pt x="103" y="418" on="0"/>
        <pt x="176" y="592" on="0"/>
        <pt x="276" y="736" on="0"/>
        <pt x="393" y="840" on="0"/>
        <pt x="523" y="897" on="0"/>
      </contour>
      <contour>
        <pt x="212" y="104" on="1"/>
        <pt x="236" y="107" on="0"/>
        <pt x="301" y="135" on="0"/>
        <pt x="374" y="185" on="0"/>
        <pt x="451" y="253" on="0"/>
        <pt x="487" y="297" on="1"/>
        <pt x="486" y="308" on="0"/>
        <pt x="486" y="331" on="0"/>
        <pt x="486" y="342" on="1"/>
        <pt x="486" y="402" on="0"/>
        <pt x="511" y="521" on="0"/>
        <pt x="557" y="632" on="0"/>
        <pt x="621" y="732" on="0"/>
        <pt x="660" y="772" on="1"/>
        <pt x="629" y="781" on="0"/>
        <pt x="552" y="797" on="0"/>
        <pt x="517" y="797" on="1"/>
        <pt x="440" y="797" on="0"/>
        <pt x="324" y="711" on="0"/>
        <pt x="247" y="558" on="0"/>
        <pt x="208" y="344" on="0"/>
        <pt x="208" y="217" on="1"/>
        <pt x="208" y="189" on="0"/>
        <pt x="210" y="133" on="0"/>
      </contour>
      <contour>
        <pt x="976" y="750" on="1"/>
        <pt x="931" y="777" on="0"/>
        <pt x="837" y="800" on="0"/>
        <pt x="786" y="800" on="1"/>
        <pt x="779" y="800" on="0"/>
        <pt x="765" y="800" on="0"/>
        <pt x="759" y="799" on="1"/>
        <pt x="726" y="775" on="0"/>
        <pt x="677" y="702" on="0"/>
        <pt x="643" y="613" on="0"/>
        <pt x="624" y="512" on="0"/>
        <pt x="623" y="459" on="1"/>
        <pt x="732" y="507" on="0"/>
        <pt x="868" y="609" on="0"/>
        <pt x="907" y="652" on="1"/>
        <pt x="953" y="702" on="0"/>
      </contour>
    </TTGlyph>
    <TTGlyph name="agrave" xMin="62" yMin="-20" xMax="955" yMax="1544">
      <component glyphName="a" x="0" y="0" flags="0x204"/>
      <component glyphName="grave" x="232" y="0" flags="0x4"/>
    </TTGlyph>
    <TTGlyph name="ampersand" xMin="110" yMin="-20" xMax="1030" yMax="1419">
      <contour>
        <pt x="493" y="565" on="1"/>
        <pt x="536" y="562" on="0"/>
        <pt x="621" y="559" on="0"/>
        <pt x="661" y="559" on="1"/>
        <pt x="760" y="559" on="0"/>
        <pt x="942" y="579" on="0"/>
        <pt x="1030" y="602" on="1"/>
        <pt x="1025" y="469" on="1"/>
        <pt x="990" y="469" on="0"/>
        <pt x="930" y="469" on="0"/>
        <pt x="901" y="470" on="1"/>
        <pt x="888" y="409" on="0"/>
        <pt x="839" y="289" on="0"/>
        <pt x="771" y="180" on="0"/>
        <pt x="685" y="87" on="0"/>
        <pt x="586" y="19" on="0"/>
        <pt x="475" y="-20" on="0"/>
        <pt x="417" y="-20" on="1"/>
        <pt x="343" y="-20" on="0"/>
        <pt x="228" y="40" on="0"/>
        <pt x="150" y="142" on="0"/>
        <pt x="110" y="274" on="0"/>
        <pt x="110" y="346" on="1"/>
        <pt x="110" y="408" on="0"/>
        <pt x="141" y="535" on="0"/>
        <pt x="205" y="651" on="0"/>
        <pt x="302" y="749" on="0"/>
        <pt x="368" y="784" on="1"/>
        <pt x="308" y="837" on="0"/>
        <pt x="249" y="974" on="0"/>
        <pt x="249" y="1047" on="1"/>
        <pt x="249" y="1117" on="0"/>
        <pt x="302" y="1250" on="0"/>
        <pt x="404" y="1355" on="0"/>
        <pt x="554" y="1419" on="0"/>
        <pt x="651" y="1419" on="1"/>
        <pt x="667" y="1419" on="0"/>
        <pt x="704" y="1416" on="0"/>
        <pt x="741" y="1406" on="0"/>
        <pt x="777" y="1389" on="0"/>
        <pt x="792" y="1374" on="1"/>
        <pt x="767" y="1128" on="1"/>
        <pt x="722" y="1128" on="1"/>
        <pt x="712" y="1276" on="1"/>
        <pt x="670" y="1302" on="0"/>
        <pt x="559" y="1331" on="0"/>
        <pt x="495" y="1331" on="1"/>
        <pt x="484" y="1331" on="0"/>
        <pt x="465" y="1331" on="0"/>
        <pt x="454" y="1329" on="1"/>
        <pt x="401" y="1289" on="0"/>
        <pt x="354" y="1181" on="0"/>
        <pt x="354" y="1124" on="1"/>
        <pt x="354" y="1081" on="0"/>
        <pt x="378" y="997" on="0"/>
        <pt x="423" y="923" on="0"/>
        <pt x="487" y="865" on="0"/>
        <pt x="526" y="848" on="1"/>
        <pt x="522" y="797" on="1"/>
        <pt x="451" y="783" on="0"/>
        <pt x="351" y="710" on="0"/>
        <pt x="287" y="607" on="0"/>
        <pt x="257" y="482" on="0"/>
        <pt x="257" y="418" on="1"/>
        <pt x="257" y="368" on="0"/>
        <pt x="274" y="270" on="0"/>
        <pt x="306" y="182" on="0"/>
        <pt x="352" y="108" on="0"/>
        <pt x="380" y="82" on="1"/>
        <pt x="561" y="82" on="1"/>
        <pt x="617" y="110" on="0"/>
        <pt x="684" y="207" on="0"/>
        <pt x="723" y="318" on="0"/>
        <pt x="742" y="433" on="0"/>
        <pt x="748" y="480" on="1"/>
        <pt x="695" y="485" on="0"/>
        <pt x="573" y="501" on="0"/>
        <pt x="491" y="512" on="1"/>
      </contour>
    </TTGlyph>
    <TTGlyph name="aring" xMin="62" yMin="-20" xMax="955" yMax="1513">
      <component glyphName="a" x="0" y="0" flags="0x204"/>
      <component glyphName="ring" x="240" y="0" flags="0x4"/>
    </TTGlyph>
    <TTGlyph name="asciicircum" xMin="70" yMin="920" xMax="745" yMax="1391">
      <contour>
        <pt x="184" y="920" on="1"/>
        <pt x="70" y="920" on="1"/>
        <pt x="371" y="1391" on="1"/>
        <pt x="442" y="1391" on="1"/>
        <pt x="745" y="920" on="1"/>
        <pt x="631" y="920" on="1"/>
        <pt x="408" y="1270" on="1"/>
      </contour>
    </TTGlyph>
    <TTGlyph name="asciitilde" xMin="99" yMin="471" xMax="792" yMax="709">
      <contour>
        <pt x="538" y="471" on="1"/>
        <pt x="494" y="486" on="0"/>
        <pt x="424" y="517" on="0"/>
        <pt x="363" y="551" on="0"/>
        <pt x="308" y="589" on="0"/>
        <pt x="280" y="611" on="1"/>
        <pt x="252" y="586" on="0"/>
        <pt x="225" y="562" on="1"/>
        <pt x="202" y="542" on="0"/>
        <pt x="148" y="497" on="0"/>
        <pt x="128" y="480" on="1"/>
        <pt x="99" y="510" on="1"/>
        <pt x="280" y="709" on="1"/>
        <pt x="339" y="709" on="1"/>
        <pt x="373" y="688" on="0"/>
        <pt x="439" y="653" on="0"/>
        <pt x="508" y="626" on="0"/>
        <pt x="585" y="603" on="0"/>
        <pt x="630" y="594" on="1"/>
        <pt x="652" y="615" on="0"/>
        <pt x="675" y="635" on="1"/>
        <pt x="695" y="652" on="0"/>
        <pt x="740" y="692" on="0"/>
        <pt x="761" y="709" on="1"/>
        <pt x="792" y="678" on="1"/>
        <pt x="601" y="471" on="1"/>
      </contour>
    </TTGlyph>
    <TTGlyph name="asterisk" xMin="102" yMin="610" xMax="880" yMax="1419">
      <contour>
        <pt x="112" y="1157" on="1"/>
        <pt x="138" y="1192" on="0"/>
        <pt x="172" y="1250" on="0"/>
        <pt x="186" y="1276" on="1"/>
        <pt x="461" y="1071" on="1"/>
        <pt x="434" y="1419" on="1"/>
        <pt x="450" y="1417" on="0"/>
        <pt x="485" y="1415" on="0"/>
        <pt x="502" y="1415" on="1"/>
        <pt x="519" y="1415" on="0"/>
        <pt x="557" y="1416" on="0"/>
        <pt x="575" y="1419" on="1"/>
        <pt x="524" y="1067" on="1"/>
        <pt x="817" y="1274" on="1"/>
        <pt x="836" y="1234" on="0"/>
        <pt x="865" y="1177" on="0"/>
        <pt x="880" y="1151" on="1"/>
        <pt x="559" y="1018" on="1"/>
        <pt x="868" y="868" on="1"/>
        <pt x="860" y="857" on="0"/>
        <pt x="841" y="827" on="0"/>
        <pt x="820" y="795" on="0"/>
        <pt x="800" y="764" on="0"/>
        <pt x="792" y="752" on="1"/>
        <pt x="520" y="965" on="1"/>
        <pt x="543" y="610" on="1"/>
        <pt x="532" y="610" on="0"/>
        <pt x="521" y="611" on="1"/>
        <pt x="511" y="611" on="0"/>
        <pt x="487" y="612" on="0"/>
        <pt x="475" y="612" on="1"/>
        <pt x="467" y="612" on="0"/>
        <pt x="425" y="612" on="0"/>
        <pt x="405" y="610" on="1"/>
        <pt x="461" y="963" on="1"/>
        <pt x="168" y="754" on="1"/>
        <pt x="161" y="767" on="0"/>
        <pt x="144" y="798" on="0"/>
        <pt x="127" y="831" on="0"/>
        <pt x="110" y="862" on="0"/>
        <pt x="102" y="874" on="1"/>
        <pt x="428" y="1016" on="1"/>
      </contour>
    </TTGlyph>
    <TTGlyph name="at" xMin="86" yMin="-319" xMax="1464" yMax="1145">
      <contour>
        <pt x="1063" y="141" on="1"/>
        <pt x="1127" y="154" on="0"/>
        <pt x="1244" y="234" on="0"/>
        <pt x="1332" y="354" on="0"/>
        <pt x="1384" y="508" on="0"/>
        <pt x="1384" y="596" on="1"/>
        <pt x="1384" y="706" on="0"/>
        <pt x="1312" y="882" on="0"/>
        <pt x="1180" y="1005" on="0"/>
        <pt x="995" y="1071" on="0"/>
        <pt x="881" y="1071" on="1"/>
        <pt x="785" y="1071" on="0"/>
        <pt x="611" y="1024" on="0"/>
        <pt x="462" y="937" on="0"/>
        <pt x="341" y="815" on="0"/>
        <pt x="255" y="664" on="0"/>
        <pt x="209" y="488" on="0"/>
        <pt x="209" y="391" on="1"/>
        <pt x="209" y="250" on="0"/>
        <pt x="298" y="18" on="0"/>
        <pt x="461" y="-146" on="0"/>
        <pt x="691" y="-236" on="0"/>
        <pt x="831" y="-236" on="1"/>
        <pt x="889" y="-236" on="0"/>
        <pt x="1000" y="-221" on="0"/>
        <pt x="1109" y="-190" on="0"/>
        <pt x="1222" y="-142" on="0"/>
        <pt x="1284" y="-109" on="1"/>
        <pt x="1309" y="-168" on="1"/>
        <pt x="1165" y="-245" on="0"/>
        <pt x="907" y="-319" on="0"/>
        <pt x="780" y="-319" on="1"/>
        <pt x="632" y="-319" on="0"/>
        <pt x="378" y="-218" on="0"/>
        <pt x="192" y="-35" on="0"/>
        <pt x="86" y="217" on="0"/>
        <pt x="86" y="369" on="1"/>
        <pt x="86" y="480" on="0"/>
        <pt x="140" y="681" on="0"/>
        <pt x="240" y="854" on="0"/>
        <pt x="381" y="993" on="0"/>
        <pt x="556" y="1092" on="0"/>
        <pt x="759" y="1145" on="0"/>
        <pt x="872" y="1145" on="1"/>
        <pt x="1007" y="1145" on="0"/>
        <pt x="1225" y="1067" on="0"/>
        <pt x="1380" y="924" on="0"/>
        <pt x="1464" y="721" on="0"/>
        <pt x="1464" y="596" on="1"/>
        <pt x="1464" y="488" on="0"/>
        <pt x="1384" y="291" on="0"/>
        <pt x="1247" y="139" on="0"/>
        <pt x="1063" y="49" on="0"/>
        <pt x="958" y="49" on="1"/>
        <pt x="928" y="80" on="1"/>
        <pt x="931" y="101" on="0"/>
        <pt x="940" y="182" on="0"/>
        <pt x="949" y="279" on="0"/>
        <pt x="956" y="381" on="0"/>
        <pt x="958" y="422" on="1"/>
        <pt x="944" y="426" on="1"/>
        <pt x="910" y="358" on="0"/>
        <pt x="819" y="233" on="0"/>
        <pt x="715" y="132" on="0"/>
        <pt x="604" y="62" on="0"/>
        <pt x="551" y="49" on="1"/>
        <pt x="461" y="80" on="1"/>
        <pt x="459" y="102" on="0"/>
        <pt x="457" y="142" on="0"/>
        <pt x="457" y="164" on="1"/>
        <pt x="457" y="254" on="0"/>
        <pt x="492" y="424" on="0"/>
        <pt x="555" y="573" on="0"/>
        <pt x="640" y="696" on="0"/>
        <pt x="740" y="785" on="0"/>
        <pt x="851" y="834" on="0"/>
        <pt x="907" y="834" on="1"/>
        <pt x="935" y="834" on="0"/>
        <pt x="981" y="831" on="0"/>
        <pt x="1025" y="824" on="0"/>
        <pt x="1068" y="815" on="0"/>
        <pt x="1092" y="809" on="1"/>
        <pt x="1083" y="720" on="0"/>
        <pt x="1072" y="555" on="0"/>
        <pt x="1066" y="392" on="0"/>
        <pt x="1063" y="228" on="0"/>
      </contour>
      <contour>
        <pt x="958" y="709" on="1"/>
        <pt x="934" y="717" on="0"/>
        <pt x="872" y="729" on="0"/>
        <pt x="844" y="729" on="1"/>
        <pt x="781" y="729" on="0"/>
        <pt x="687" y="661" on="0"/>
        <pt x="625" y="538" on="0"/>
        <pt x="594" y="367" on="0"/>
        <pt x="594" y="264" on="1"/>
        <pt x="594" y="241" on="0"/>
        <pt x="594" y="195" on="0"/>
        <pt x="596" y="170" on="1"/>
        <pt x="620" y="173" on="0"/>
        <pt x="690" y="207" on="0"/>
        <pt x="767" y="268" on="0"/>
        <pt x="845" y="353" on="0"/>
        <pt x="909" y="460" on="0"/>
        <pt x="952" y="586" on="0"/>
        <pt x="956" y="657" on="1"/>
      </contour>
    </TTGlyph>
    <TTGlyph name="atilde" xMin="62" yMin="-20" xMax="956" yMax="1409">
      <component glyphName="a" x="0" y="0" flags="0x204"/>
      <component glyphName="tilde" x="161" y="0" flags="0x4"/>
    </TTGlyph>
    <TTGlyph name="b" xMin="6" yMin="-20" xMax="833" yMax="1554">
      <contour>
        <pt x="303" y="600" on="1"/>
        <pt x="345" y="657" on="0"/>
        <pt x="429" y="753" on="0"/>
        <pt x="521" y="828" on="0"/>
        <pt x="626" y="882" on="0"/>
        <pt x="690" y="897" on="1"/>
        <pt x="776" y="862" on="1"/>
        <pt x="807" y="797" on="0"/>
        <pt x="833" y="665" on="0"/>
        <pt x="833" y="600" on="1"/>
        <pt x="833" y="518" on="0"/>
        <pt x="794" y="363" on="0"/>
        <pt x="725" y="225" on="0"/>
        <pt x="631" y="110" on="0"/>
        <pt x="520" y="27" on="0"/>
        <pt x="397" y="-20" on="0"/>
        <pt x="335" y="-20" on="1"/>
        <pt x="299" y="-20" on="0"/>
        <pt x="241" y="-15" on="0"/>
        <pt x="189" y="-6" on="0"/>
        <pt x="138" y="8" on="0"/>
        <pt x="110" y="16" on="1"/>
        <pt x="119" y="122" on="0"/>
        <pt x="137" y="329" on="0"/>
        <pt x="153" y="541" on="0"/>
        <pt x="167" y="766" on="0"/>
        <pt x="177" y="1017" on="0"/>
        <pt x="183" y="1301" on="0"/>
        <pt x="184" y="1466" on="1"/>
        <pt x="155" y="1462" on="0"/>
        <pt x="124" y="1459" on="1"/>
        <pt x="98" y="1456" on="0"/>
        <pt x="36" y="1452" on="0"/>
        <pt x="10" y="1450" on="1"/>
        <pt x="6" y="1493" on="1"/>
        <pt x="309" y="1554" on="1"/>
        <pt x="342" y="1520" on="1"/>
        <pt x="340" y="1517" on="0"/>
        <pt x="334" y="1437" on="0"/>
        <pt x="325" y="1303" on="0"/>
        <pt x="314" y="1125" on="0"/>
        <pt x="303" y="923" on="0"/>
        <pt x="291" y="708" on="0"/>
        <pt x="286" y="604" on="1"/>
      </contour>
      <contour>
        <pt x="264" y="104" on="1"/>
        <pt x="295" y="95" on="0"/>
        <pt x="372" y="80" on="0"/>
        <pt x="407" y="80" on="1"/>
        <pt x="476" y="80" on="0"/>
        <pt x="586" y="147" on="0"/>
        <pt x="663" y="261" on="0"/>
        <pt x="704" y="411" on="0"/>
        <pt x="704" y="494" on="1"/>
        <pt x="704" y="565" on="0"/>
        <pt x="673" y="706" on="0"/>
        <pt x="639" y="774" on="1"/>
        <pt x="595" y="773" on="0"/>
        <pt x="472" y="709" on="0"/>
        <pt x="357" y="588" on="0"/>
        <pt x="274" y="412" on="0"/>
        <pt x="270" y="299" on="1"/>
      </contour>
    </TTGlyph>
    <TTGlyph name="backslash" xMin="73" yMin="-356" xMax="1064" yMax="1473">
      <contour>
        <pt x="1064" y="-356" on="1"/>
        <pt x="954" y="-356" on="1"/>
        <pt x="73" y="1473" on="1"/>
        <pt x="184" y="1473" on="1"/>
      </contour>
    </TTGlyph>
    <TTGlyph name="bar" xMin="168" yMin="-401" xMax="267" yMax="1554">
      <contour>
        <pt x="168" y="1554" on="1"/>
        <pt x="267" y="1554" on="1"/>
        <pt x="267" y="-401" on="1"/>
        <pt x="168" y="-401" on="1"/>
      </contour>
    </TTGlyph>
    <TTGlyph name="braceleft" xMin="31" yMin="-416" xMax="558" yMax="1501">
      <contour>
        <pt x="558" y="1450" on="1"/>
        <pt x="414" y="1384" on="1"/>
        <pt x="407" y="1370" on="0"/>
        <pt x="396" y="1327" on="0"/>
        <pt x="387" y="1278" on="0"/>
        <pt x="382" y="1228" on="0"/>
        <pt x="382" y="1208" on="1"/>
        <pt x="382" y="1165" on="0"/>
        <pt x="386" y="1078" on="0"/>
        <pt x="386" y="1034" on="1"/>
        <pt x="386" y="968" on="0"/>
        <pt x="372" y="827" on="0"/>
        <pt x="319" y="695" on="0"/>
        <pt x="216" y="582" on="0"/>
        <pt x="126" y="545" on="1"/>
        <pt x="247" y="497" on="0"/>
        <pt x="353" y="303" on="0"/>
        <pt x="353" y="158" on="1"/>
        <pt x="353" y="119" on="0"/>
        <pt x="347" y="43" on="0"/>
        <pt x="340" y="-35" on="0"/>
        <pt x="334" y="-118" on="0"/>
        <pt x="334" y="-166" on="1"/>
        <pt x="334" y="-203" on="0"/>
        <pt x="349" y="-261" on="0"/>
        <pt x="357" y="-295" on="1"/>
        <pt x="492" y="-365" on="1"/>
        <pt x="478" y="-416" on="1"/>
        <pt x="386" y="-401" on="0"/>
        <pt x="275" y="-330" on="0"/>
        <pt x="217" y="-236" on="0"/>
        <pt x="199" y="-128" on="0"/>
        <pt x="199" y="-76" on="1"/>
        <pt x="199" y="-10" on="0"/>
        <pt x="214" y="121" on="0"/>
        <pt x="214" y="193" on="1"/>
        <pt x="214" y="212" on="0"/>
        <pt x="212" y="272" on="0"/>
        <pt x="208" y="338" on="0"/>
        <pt x="199" y="402" on="0"/>
        <pt x="193" y="424" on="1"/>
        <pt x="31" y="512" on="1"/>
        <pt x="33" y="573" on="1"/>
        <pt x="201" y="668" on="1"/>
        <pt x="213" y="695" on="0"/>
        <pt x="229" y="769" on="0"/>
        <pt x="237" y="847" on="0"/>
        <pt x="240" y="918" on="0"/>
        <pt x="240" y="942" on="1"/>
        <pt x="240" y="1092" on="1"/>
        <pt x="240" y="1129" on="0"/>
        <pt x="245" y="1211" on="0"/>
        <pt x="264" y="1294" on="0"/>
        <pt x="302" y="1373" on="0"/>
        <pt x="369" y="1439" on="0"/>
        <pt x="470" y="1489" on="0"/>
        <pt x="543" y="1501" on="1"/>
      </contour>
    </TTGlyph>
    <TTGlyph name="braceright" xMin="1" yMin="-416" xMax="527" yMax="1501">
      <contour>
        <pt x="1" y="-365" on="1"/>
        <pt x="150" y="-299" on="1"/>
        <pt x="157" y="-285" on="0"/>
        <pt x="167" y="-242" on="0"/>
        <pt x="174" y="-192" on="0"/>
        <pt x="177" y="-143" on="0"/>
        <pt x="177" y="-123" on="1"/>
        <pt x="177" y="-80" on="0"/>
        <pt x="173" y="8" on="0"/>
        <pt x="173" y="51" on="1"/>
        <pt x="173" y="117" on="0"/>
        <pt x="187" y="258" on="0"/>
        <pt x="239" y="390" on="0"/>
        <pt x="343" y="503" on="0"/>
        <pt x="433" y="541" on="1"/>
        <pt x="311" y="589" on="0"/>
        <pt x="206" y="782" on="0"/>
        <pt x="206" y="928" on="1"/>
        <pt x="206" y="967" on="0"/>
        <pt x="212" y="1042" on="0"/>
        <pt x="218" y="1120" on="0"/>
        <pt x="224" y="1203" on="0"/>
        <pt x="224" y="1251" on="1"/>
        <pt x="224" y="1288" on="0"/>
        <pt x="216" y="1346" on="0"/>
        <pt x="208" y="1380" on="1"/>
        <pt x="66" y="1450" on="1"/>
        <pt x="81" y="1501" on="1"/>
        <pt x="173" y="1486" on="0"/>
        <pt x="283" y="1415" on="0"/>
        <pt x="341" y="1321" on="0"/>
        <pt x="359" y="1213" on="0"/>
        <pt x="359" y="1161" on="1"/>
        <pt x="359" y="1095" on="0"/>
        <pt x="345" y="964" on="0"/>
        <pt x="345" y="893" on="1"/>
        <pt x="345" y="874" on="0"/>
        <pt x="347" y="813" on="0"/>
        <pt x="351" y="747" on="0"/>
        <pt x="359" y="684" on="0"/>
        <pt x="365" y="662" on="1"/>
        <pt x="527" y="573" on="1"/>
        <pt x="525" y="512" on="1"/>
        <pt x="357" y="418" on="1"/>
        <pt x="345" y="391" on="0"/>
        <pt x="329" y="316" on="0"/>
        <pt x="321" y="239" on="0"/>
        <pt x="318" y="167" on="0"/>
        <pt x="318" y="143" on="1"/>
        <pt x="318" y="-6" on="1"/>
        <pt x="318" y="-43" on="0"/>
        <pt x="314" y="-126" on="0"/>
        <pt x="295" y="-209" on="0"/>
        <pt x="257" y="-288" on="0"/>
        <pt x="189" y="-354" on="0"/>
        <pt x="88" y="-404" on="0"/>
        <pt x="15" y="-416" on="1"/>
      </contour>
    </TTGlyph>
    <TTGlyph name="bracketleft" xMin="133" yMin="-356" xMax="546" yMax="1473">
      <contour>
        <pt x="483" y="-356" on="1"/>
        <pt x="133" y="-356" on="1"/>
        <pt x="196" y="1473" on="1"/>
        <pt x="546" y="1473" on="1"/>
        <pt x="544" y="1403" on="1"/>
        <pt x="317" y="1403" on="1"/>
        <pt x="257" y="-287" on="1"/>
        <pt x="485" y="-287" on="1"/>
      </contour>
    </TTGlyph>
    <TTGlyph name="bracketright" xMin="-2" yMin="-356" xMax="411" yMax="1473">
      <contour>
        <pt x="227" y="-287" on="1"/>
        <pt x="286" y="1403" on="1"/>
        <pt x="59" y="1403" on="1"/>
        <pt x="61" y="1473" on="1"/>
        <pt x="411" y="1473" on="1"/>
        <pt x="348" y="-356" on="1"/>
        <pt x="-2" y="-356" on="1"/>
        <pt x="0" y="-287" on="1"/>
      </contour>
    </TTGlyph>
    <TTGlyph name="brokenbar" xMin="177" yMin="-401" xMax="276" yMax="1554">
      <contour>
        <pt x="177" y="1554" on="1"/>
        <pt x="276" y="1554" on="1"/>
        <pt x="276" y="858" on="1"/>
        <pt x="177" y="858" on="1"/>
      </contour>
      <contour>
        <pt x="177" y="295" on="1"/>
        <pt x="276" y="295" on="1"/>
        <pt x="276" y="-401" on="1"/>
        <pt x="177" y="-401" on="1"/>
      </contour>
    </TTGlyph>
    <TTGlyph name="bullet" xMin="143" yMin="524" xMax="488" yMax="868">
      <contour>
        <pt x="143" y="696" on="1"/>
        <pt x="143" y="732" on="0"/>
        <pt x="170" y="795" on="0"/>
        <pt x="216" y="842" on="0"/>
        <pt x="279" y="868" on="0"/>
        <pt x="315" y="868" on="1"/>
        <pt x="351" y="868" on="0"/>
        <pt x="415" y="842" on="0"/>
        <pt x="461" y="795" on="0"/>
        <pt x="488" y="732" on="0"/>
        <pt x="488" y="696" on="1"/>
        <pt x="488" y="660" on="0"/>
        <pt x="461" y="597" on="0"/>
        <pt x="415" y="551" on="0"/>
        <pt x="351" y="524" on="0"/>
        <pt x="315" y="524" on="1"/>
        <pt x="279" y="524" on="0"/>
        <pt x="216" y="551" on="0"/>
        <pt x="170" y="597" on="0"/>
        <pt x="143" y="660" on="0"/>
      </contour>
    </TTGlyph>
    <TTGlyph name="c" xMin="70" yMin="-20" xMax="662" yMax="897">
      <contour>
        <pt x="662" y="238" on="1"/>
        <pt x="635" y="213" on="0"/>
        <pt x="559" y="146" on="0"/>
        <pt x="459" y="74" on="0"/>
        <pt x="336" y="6" on="0"/>
        <pt x="263" y="-20" on="1"/>
        <pt x="187" y="14" on="1"/>
        <pt x="125" y="80" on="0"/>
        <pt x="70" y="251" on="0"/>
        <pt x="70" y="342" on="1"/>
        <pt x="70" y="409" on="0"/>
        <pt x="100" y="544" on="0"/>
        <pt x="158" y="668" on="0"/>
        <pt x="242" y="774" on="0"/>
        <pt x="349" y="852" on="0"/>
        <pt x="477" y="897" on="0"/>
        <pt x="550" y="897" on="1"/>
        <pt x="601" y="897" on="0"/>
        <pt x="660" y="885" on="1"/>
        <pt x="627" y="762" on="1"/>
        <pt x="577" y="776" on="0"/>
        <pt x="496" y="792" on="0"/>
        <pt x="427" y="799" on="0"/>
        <pt x="366" y="801" on="0"/>
        <pt x="337" y="801" on="1"/>
        <pt x="303" y="775" on="0"/>
        <pt x="254" y="698" on="0"/>
        <pt x="223" y="603" on="0"/>
        <pt x="208" y="495" on="0"/>
        <pt x="208" y="440" on="1"/>
        <pt x="208" y="392" on="0"/>
        <pt x="219" y="298" on="0"/>
        <pt x="242" y="211" on="0"/>
        <pt x="277" y="134" on="0"/>
        <pt x="302" y="104" on="1"/>
        <pt x="387" y="117" on="0"/>
        <pt x="545" y="205" on="0"/>
        <pt x="636" y="274" on="1"/>
      </contour>
    </TTGlyph>
    <TTGlyph name="caron" xMin="102" yMin="1133" xMax="698" yMax="1493">
      <contour>
        <pt x="659" y="1493" on="1"/>
        <pt x="698" y="1452" on="1"/>
        <pt x="430" y="1133" on="1"/>
        <pt x="348" y="1133" on="1"/>
        <pt x="102" y="1452" on="1"/>
        <pt x="145" y="1493" on="1"/>
        <pt x="393" y="1249" on="1"/>
      </contour>
    </TTGlyph>
    <TTGlyph name="caron.case" xMin="307" yMin="1583" xMax="985" yMax="1892">
      <contour>
        <pt x="946" y="1892" on="1"/>
        <pt x="985" y="1851" on="1"/>
        <pt x="678" y="1583" on="1"/>
        <pt x="596" y="1583" on="1"/>
        <pt x="307" y="1851" on="1"/>
        <pt x="350" y="1892" on="1"/>
        <pt x="641" y="1714" on="1"/>
      </contour>
    </TTGlyph>
    <TTGlyph name="ccedilla" xMin="71" yMin="-440" xMax="663" yMax="897">
      <contour>
        <pt x="487" y="-242" on="1"/>
        <pt x="487" y="-285" on="0"/>
        <pt x="446" y="-357" on="0"/>
        <pt x="377" y="-410" on="0"/>
        <pt x="287" y="-440" on="0"/>
        <pt x="239" y="-440" on="1"/>
        <pt x="185" y="-440" on="0"/>
        <pt x="136" y="-422" on="1"/>
        <pt x="140" y="-309" on="1"/>
        <pt x="174" y="-325" on="0"/>
        <pt x="265" y="-356" on="0"/>
        <pt x="308" y="-356" on="1"/>
        <pt x="345" y="-356" on="0"/>
        <pt x="408" y="-324" on="0"/>
        <pt x="425" y="-279" on="1"/>
        <pt x="397" y="-241" on="0"/>
        <pt x="296" y="-187" on="0"/>
        <pt x="239" y="-162" on="1"/>
        <pt x="263" y="-19" on="1"/>
        <pt x="188" y="14" on="1"/>
        <pt x="126" y="80" on="0"/>
        <pt x="71" y="251" on="0"/>
        <pt x="71" y="342" on="1"/>
        <pt x="71" y="409" on="0"/>
        <pt x="101" y="544" on="0"/>
        <pt x="159" y="668" on="0"/>
        <pt x="243" y="774" on="0"/>
        <pt x="350" y="852" on="0"/>
        <pt x="478" y="897" on="0"/>
        <pt x="551" y="897" on="1"/>
        <pt x="602" y="897" on="0"/>
        <pt x="661" y="885" on="1"/>
        <pt x="628" y="762" on="1"/>
        <pt x="578" y="776" on="0"/>
        <pt x="497" y="792" on="0"/>
        <pt x="428" y="799" on="0"/>
        <pt x="367" y="801" on="0"/>
        <pt x="338" y="801" on="1"/>
        <pt x="304" y="775" on="0"/>
        <pt x="255" y="698" on="0"/>
        <pt x="224" y="603" on="0"/>
        <pt x="209" y="495" on="0"/>
        <pt x="209" y="440" on="1"/>
        <pt x="209" y="392" on="0"/>
        <pt x="220" y="298" on="0"/>
        <pt x="243" y="211" on="0"/>
        <pt x="278" y="134" on="0"/>
        <pt x="303" y="104" on="1"/>
        <pt x="388" y="117" on="0"/>
        <pt x="546" y="205" on="0"/>
        <pt x="637" y="274" on="1"/>
        <pt x="663" y="238" on="1"/>
        <pt x="636" y="213" on="0"/>
        <pt x="560" y="146" on="0"/>
        <pt x="460" y="74" on="0"/>
        <pt x="398" y="40" on="1"/>
        <pt x="371" y="25" on="0"/>
        <pt x="342" y="11" on="1"/>
        <pt x="327" y="-84" on="1"/>
        <pt x="358" y="-97" on="0"/>
        <pt x="416" y="-128" on="0"/>
        <pt x="461" y="-166" on="0"/>
        <pt x="487" y="-213" on="0"/>
      </contour>
    </TTGlyph>
    <TTGlyph name="cedilla" xMin="98" yMin="-440" xMax="449" yMax="43">
      <contour>
        <pt x="449" y="-242" on="1"/>
        <pt x="449" y="-285" on="0"/>
        <pt x="408" y="-357" on="0"/>
        <pt x="339" y="-410" on="0"/>
        <pt x="249" y="-440" on="0"/>
        <pt x="201" y="-440" on="1"/>
        <pt x="147" y="-440" on="0"/>
        <pt x="98" y="-422" on="1"/>
        <pt x="102" y="-309" on="1"/>
        <pt x="136" y="-325" on="0"/>
        <pt x="227" y="-356" on="0"/>
        <pt x="270" y="-356" on="1"/>
        <pt x="307" y="-356" on="0"/>
        <pt x="370" y="-324" on="0"/>
        <pt x="387" y="-279" on="1"/>
        <pt x="359" y="-241" on="0"/>
        <pt x="258" y="-187" on="0"/>
        <pt x="201" y="-162" on="1"/>
        <pt x="236" y="43" on="1"/>
        <pt x="309" y="43" on="1"/>
        <pt x="289" y="-84" on="1"/>
        <pt x="320" y="-97" on="0"/>
        <pt x="378" y="-128" on="0"/>
        <pt x="423" y="-166" on="0"/>
        <pt x="449" y="-213" on="0"/>
      </contour>
    </TTGlyph>
    <TTGlyph name="cent" xMin="86" yMin="-223" xMax="678" yMax="1098">
      <contour>
        <pt x="678" y="238" on="1"/>
        <pt x="651" y="213" on="0"/>
        <pt x="575" y="146" on="0"/>
        <pt x="525" y="110" on="1"/>
        <pt x="487" y="83" on="0"/>
        <pt x="444" y="57" on="1"/>
        <pt x="434" y="-223" on="1"/>
        <pt x="363" y="-223" on="1"/>
        <pt x="371" y="18" on="1"/>
        <pt x="327" y="-2" on="0"/>
        <pt x="279" y="-20" on="1"/>
        <pt x="203" y="14" on="1"/>
        <pt x="141" y="80" on="0"/>
        <pt x="86" y="251" on="0"/>
        <pt x="86" y="342" on="1"/>
        <pt x="86" y="409" on="0"/>
        <pt x="116" y="544" on="0"/>
        <pt x="174" y="668" on="0"/>
        <pt x="258" y="774" on="0"/>
        <pt x="311" y="813" on="1"/>
        <pt x="352" y="843" on="0"/>
        <pt x="400" y="863" on="1"/>
        <pt x="408" y="1098" on="1"/>
        <pt x="481" y="1098" on="1"/>
        <pt x="473" y="887" on="1"/>
        <pt x="518" y="897" on="0"/>
        <pt x="566" y="897" on="1"/>
        <pt x="617" y="897" on="0"/>
        <pt x="676" y="885" on="1"/>
        <pt x="643" y="762" on="1"/>
        <pt x="593" y="776" on="0"/>
        <pt x="512" y="792" on="0"/>
        <pt x="477" y="795" on="1"/>
        <pt x="470" y="796" on="1"/>
        <pt x="447" y="143" on="1"/>
        <pt x="464" y="151" on="0"/>
        <pt x="482" y="161" on="1"/>
        <pt x="561" y="205" on="0"/>
        <pt x="652" y="274" on="1"/>
      </contour>
      <contour>
        <pt x="353" y="801" on="1"/>
        <pt x="319" y="775" on="0"/>
        <pt x="270" y="698" on="0"/>
        <pt x="239" y="603" on="0"/>
        <pt x="224" y="495" on="0"/>
        <pt x="224" y="440" on="1"/>
        <pt x="224" y="392" on="0"/>
        <pt x="235" y="298" on="0"/>
        <pt x="258" y="211" on="0"/>
        <pt x="293" y="134" on="0"/>
        <pt x="318" y="104" on="1"/>
        <pt x="346" y="108" on="0"/>
        <pt x="374" y="116" on="1"/>
        <pt x="398" y="800" on="1"/>
        <pt x="375" y="801" on="0"/>
      </contour>
    </TTGlyph>
    <TTGlyph name="circumflex" xMin="102" yMin="1133" xMax="698" yMax="1493">
      <contour>
        <pt x="141" y="1133" on="1"/>
        <pt x="102" y="1174" on="1"/>
        <pt x="371" y="1493" on="1"/>
        <pt x="453" y="1493" on="1"/>
        <pt x="698" y="1174" on="1"/>
        <pt x="655" y="1133" on="1"/>
        <pt x="408" y="1376" on="1"/>
      </contour>
    </TTGlyph>
    <TTGlyph name="circumflex.case" xMin="307" yMin="1546" xMax="985" yMax="1855">
      <contour>
        <pt x="346" y="1546" on="1"/>
        <pt x="307" y="1587" on="1"/>
        <pt x="614" y="1855" on="1"/>
        <pt x="696" y="1855" on="1"/>
        <pt x="985" y="1587" on="1"/>
        <pt x="942" y="1546" on="1"/>
        <pt x="651" y="1724" on="1"/>
      </contour>
    </TTGlyph>
    <TTGlyph name="colon" xMin="111" yMin="-20" xMax="327" yMax="897">
      <contour>
        <pt x="148" y="-20" on="1"/>
        <pt x="111" y="16" on="1"/>
        <pt x="116" y="56" on="0"/>
        <pt x="119" y="114" on="0"/>
        <pt x="121" y="133" on="1"/>
        <pt x="122" y="155" on="0"/>
        <pt x="123" y="170" on="1"/>
        <pt x="269" y="201" on="1"/>
        <pt x="305" y="164" on="1"/>
        <pt x="300" y="123" on="0"/>
        <pt x="295" y="67" on="0"/>
        <pt x="294" y="48" on="1"/>
        <pt x="292" y="26" on="0"/>
        <pt x="293" y="12" on="1"/>
      </contour>
      <contour>
        <pt x="170" y="676" on="1"/>
        <pt x="133" y="712" on="1"/>
        <pt x="138" y="752" on="0"/>
        <pt x="141" y="810" on="0"/>
        <pt x="143" y="829" on="1"/>
        <pt x="144" y="851" on="0"/>
        <pt x="145" y="866" on="1"/>
        <pt x="291" y="897" on="1"/>
        <pt x="327" y="860" on="1"/>
        <pt x="322" y="819" on="0"/>
        <pt x="317" y="763" on="0"/>
        <pt x="316" y="744" on="1"/>
        <pt x="314" y="722" on="0"/>
        <pt x="315" y="708" on="1"/>
      </contour>
    </TTGlyph>
    <TTGlyph name="comma" xMin="-7" yMin="-311" xMax="284" yMax="201">
      <contour>
        <pt x="-7" y="-281" on="1"/>
        <pt x="25" y="-233" on="0"/>
        <pt x="66" y="-146" on="0"/>
        <pt x="89" y="-59" on="0"/>
        <pt x="97" y="28" on="0"/>
        <pt x="97" y="76" on="1"/>
        <pt x="97" y="97" on="0"/>
        <pt x="95" y="144" on="0"/>
        <pt x="93" y="168" on="1"/>
        <pt x="245" y="201" on="1"/>
        <pt x="284" y="162" on="1"/>
        <pt x="281" y="100" on="0"/>
        <pt x="235" y="-25" on="0"/>
        <pt x="164" y="-146" on="0"/>
        <pt x="73" y="-260" on="0"/>
        <pt x="24" y="-311" on="1"/>
      </contour>
    </TTGlyph>
    <TTGlyph name="copyright" xMin="93" yMin="-37" xMax="1560" yMax="1430">
      <contour>
        <pt x="163" y="696" on="1"/>
        <pt x="163" y="605" on="0"/>
        <pt x="211" y="436" on="0"/>
        <pt x="297" y="289" on="0"/>
        <pt x="419" y="167" on="0"/>
        <pt x="566" y="81" on="0"/>
        <pt x="736" y="33" on="0"/>
        <pt x="827" y="33" on="1"/>
        <pt x="918" y="33" on="0"/>
        <pt x="1087" y="81" on="0"/>
        <pt x="1234" y="167" on="0"/>
        <pt x="1356" y="289" on="0"/>
        <pt x="1442" y="436" on="0"/>
        <pt x="1490" y="605" on="0"/>
        <pt x="1490" y="696" on="1"/>
        <pt x="1490" y="787" on="0"/>
        <pt x="1442" y="957" on="0"/>
        <pt x="1356" y="1104" on="0"/>
        <pt x="1234" y="1226" on="0"/>
        <pt x="1087" y="1312" on="0"/>
        <pt x="918" y="1360" on="0"/>
        <pt x="827" y="1360" on="1"/>
        <pt x="736" y="1360" on="0"/>
        <pt x="566" y="1312" on="0"/>
        <pt x="419" y="1226" on="0"/>
        <pt x="297" y="1104" on="0"/>
        <pt x="211" y="957" on="0"/>
        <pt x="163" y="787" on="0"/>
      </contour>
      <contour>
        <pt x="93" y="696" on="1"/>
        <pt x="93" y="797" on="0"/>
        <pt x="145" y="985" on="0"/>
        <pt x="241" y="1148" on="0"/>
        <pt x="375" y="1282" on="0"/>
        <pt x="538" y="1378" on="0"/>
        <pt x="725" y="1430" on="0"/>
        <pt x="827" y="1430" on="1"/>
        <pt x="928" y="1430" on="0"/>
        <pt x="1116" y="1378" on="0"/>
        <pt x="1278" y="1282" on="0"/>
        <pt x="1412" y="1148" on="0"/>
        <pt x="1508" y="985" on="0"/>
        <pt x="1560" y="797" on="0"/>
        <pt x="1560" y="696" on="1"/>
        <pt x="1560" y="544" on="0"/>
        <pt x="1445" y="277" on="0"/>
        <pt x="1246" y="78" on="0"/>
        <pt x="979" y="-37" on="0"/>
        <pt x="827" y="-37" on="1"/>
        <pt x="726" y="-37" on="0"/>
        <pt x="538" y="15" on="0"/>
        <pt x="375" y="111" on="0"/>
        <pt x="241" y="245" on="0"/>
        <pt x="145" y="407" on="0"/>
        <pt x="93" y="595" on="0"/>
      </contour>
      <contour>
        <pt x="878" y="1067" on="1"/>
        <pt x="809" y="1067" on="0"/>
        <pt x="680" y="1019" on="0"/>
        <pt x="582" y="929" on="0"/>
        <pt x="523" y="801" on="0"/>
        <pt x="523" y="722" on="1"/>
        <pt x="523" y="626" on="0"/>
        <pt x="590" y="487" on="0"/>
        <pt x="697" y="397" on="0"/>
        <pt x="831" y="354" on="0"/>
        <pt x="898" y="354" on="1"/>
        <pt x="925" y="354" on="0"/>
        <pt x="972" y="356" on="0"/>
        <pt x="1018" y="362" on="0"/>
        <pt x="1069" y="374" on="0"/>
        <pt x="1101" y="383" on="1"/>
        <pt x="1119" y="326" on="1"/>
        <pt x="1087" y="311" on="0"/>
        <pt x="1016" y="290" on="0"/>
        <pt x="945" y="277" on="0"/>
        <pt x="880" y="272" on="0"/>
        <pt x="855" y="272" on="1"/>
        <pt x="758" y="272" on="0"/>
        <pt x="590" y="334" on="0"/>
        <pt x="465" y="444" on="0"/>
        <pt x="394" y="597" on="0"/>
        <pt x="394" y="688" on="1"/>
        <pt x="394" y="782" on="0"/>
        <pt x="470" y="945" on="0"/>
        <pt x="602" y="1065" on="0"/>
        <pt x="779" y="1133" on="0"/>
        <pt x="880" y="1133" on="1"/>
        <pt x="968" y="1133" on="0"/>
        <pt x="1101" y="1112" on="0"/>
        <pt x="1152" y="1098" on="1"/>
        <pt x="1136" y="901" on="1"/>
        <pt x="1074" y="901" on="1"/>
        <pt x="1062" y="1012" on="1"/>
        <pt x="1049" y="1020" on="0"/>
        <pt x="1014" y="1039" on="0"/>
        <pt x="969" y="1056" on="0"/>
        <pt x="912" y="1067" on="0"/>
      </contour>
    </TTGlyph>
    <TTGlyph name="currency" xMin="100" yMin="63" xMax="1386" yMax="1350">
      <contour>
        <pt x="169" y="696" on="1"/>
        <pt x="169" y="803" on="0"/>
        <pt x="241" y="996" on="0"/>
        <pt x="306" y="1073" on="1"/>
        <pt x="100" y="1280" on="1"/>
        <pt x="169" y="1350" on="1"/>
        <pt x="376" y="1143" on="1"/>
        <pt x="450" y="1206" on="0"/>
        <pt x="633" y="1280" on="0"/>
        <pt x="736" y="1280" on="1"/>
        <pt x="843" y="1280" on="0"/>
        <pt x="1034" y="1206" on="0"/>
        <pt x="1109" y="1143" on="1"/>
        <pt x="1316" y="1350" on="1"/>
        <pt x="1386" y="1280" on="1"/>
        <pt x="1177" y="1071" on="1"/>
        <pt x="1242" y="994" on="0"/>
        <pt x="1316" y="803" on="0"/>
        <pt x="1316" y="696" on="1"/>
        <pt x="1316" y="594" on="0"/>
        <pt x="1247" y="409" on="0"/>
        <pt x="1185" y="334" on="1"/>
        <pt x="1386" y="133" on="1"/>
        <pt x="1316" y="63" on="1"/>
        <pt x="1117" y="262" on="1"/>
        <pt x="1040" y="194" on="0"/>
        <pt x="846" y="119" on="0"/>
        <pt x="736" y="119" on="1"/>
        <pt x="630" y="119" on="0"/>
        <pt x="441" y="194" on="0"/>
        <pt x="366" y="260" on="1"/>
        <pt x="169" y="63" on="1"/>
        <pt x="100" y="133" on="1"/>
        <pt x="298" y="332" on="1"/>
        <pt x="238" y="407" on="0"/>
        <pt x="169" y="593" on="0"/>
      </contour>
      <contour>
        <pt x="267" y="705" on="1"/>
        <pt x="267" y="606" on="0"/>
        <pt x="342" y="429" on="0"/>
        <pt x="471" y="296" on="0"/>
        <pt x="643" y="219" on="0"/>
        <pt x="741" y="219" on="1"/>
        <pt x="840" y="219" on="0"/>
        <pt x="1014" y="296" on="0"/>
        <pt x="1143" y="429" on="0"/>
        <pt x="1218" y="606" on="0"/>
        <pt x="1218" y="705" on="1"/>
        <pt x="1218" y="805" on="0"/>
        <pt x="1143" y="983" on="0"/>
        <pt x="1014" y="1117" on="0"/>
        <pt x="840" y="1194" on="0"/>
        <pt x="741" y="1194" on="1"/>
        <pt x="643" y="1194" on="0"/>
        <pt x="471" y="1117" on="0"/>
        <pt x="342" y="983" on="0"/>
        <pt x="267" y="805" on="0"/>
      </contour>
    </TTGlyph>
    <TTGlyph name="d" xMin="61" yMin="-20" xMax="959" yMax="1554">
      <contour>
        <pt x="825" y="1520" on="1"/>
        <pt x="815" y="1421" on="0"/>
        <pt x="799" y="1222" on="0"/>
        <pt x="788" y="1013" on="0"/>
        <pt x="780" y="786" on="0"/>
        <pt x="776" y="531" on="0"/>
        <pt x="774" y="244" on="0"/>
        <pt x="774" y="78" on="1"/>
        <pt x="843" y="87" on="0"/>
        <pt x="938" y="131" on="1"/>
        <pt x="959" y="92" on="1"/>
        <pt x="928" y="71" on="0"/>
        <pt x="838" y="30" on="0"/>
        <pt x="747" y="-1" on="0"/>
        <pt x="668" y="-20" on="0"/>
        <pt x="649" y="-20" on="1"/>
        <pt x="614" y="14" on="1"/>
        <pt x="622" y="83" on="0"/>
        <pt x="633" y="225" on="0"/>
        <pt x="638" y="283" on="1"/>
        <pt x="643" y="351" on="0"/>
        <pt x="647" y="414" on="1"/>
        <pt x="631" y="418" on="1"/>
        <pt x="591" y="339" on="0"/>
        <pt x="484" y="193" on="0"/>
        <pt x="362" y="76" on="0"/>
        <pt x="233" y="-5" on="0"/>
        <pt x="172" y="-20" on="1"/>
        <pt x="66" y="14" on="1"/>
        <pt x="62" y="37" on="0"/>
        <pt x="61" y="86" on="0"/>
        <pt x="61" y="109" on="1"/>
        <pt x="61" y="205" on="0"/>
        <pt x="99" y="396" on="0"/>
        <pt x="167" y="571" on="0"/>
        <pt x="263" y="722" on="0"/>
        <pt x="381" y="833" on="0"/>
        <pt x="515" y="897" on="0"/>
        <pt x="588" y="897" on="1"/>
        <pt x="610" y="897" on="0"/>
        <pt x="647" y="895" on="0"/>
        <pt x="664" y="893" on="1"/>
        <pt x="666" y="1466" on="1"/>
        <pt x="637" y="1462" on="0"/>
        <pt x="606" y="1459" on="1"/>
        <pt x="580" y="1456" on="0"/>
        <pt x="518" y="1452" on="0"/>
        <pt x="492" y="1450" on="1"/>
        <pt x="487" y="1493" on="1"/>
        <pt x="791" y="1554" on="1"/>
      </contour>
      <contour>
        <pt x="660" y="772" on="1"/>
        <pt x="629" y="781" on="0"/>
        <pt x="551" y="797" on="0"/>
        <pt x="516" y="797" on="1"/>
        <pt x="439" y="797" on="0"/>
        <pt x="323" y="710" on="0"/>
        <pt x="246" y="554" on="0"/>
        <pt x="207" y="341" on="0"/>
        <pt x="207" y="215" on="1"/>
        <pt x="207" y="187" on="0"/>
        <pt x="209" y="132" on="0"/>
        <pt x="211" y="104" on="1"/>
        <pt x="241" y="108" on="0"/>
        <pt x="328" y="151" on="0"/>
        <pt x="423" y="226" on="0"/>
        <pt x="519" y="331" on="0"/>
        <pt x="597" y="463" on="0"/>
        <pt x="650" y="619" on="0"/>
        <pt x="655" y="707" on="1"/>
      </contour>
    </TTGlyph>
    <TTGlyph name="degree" xMin="96" yMin="999" xMax="530" yMax="1434">
      <contour>
        <pt x="174" y="1217" on="1"/>
        <pt x="174" y="1187" on="0"/>
        <pt x="195" y="1136" on="0"/>
        <pt x="233" y="1098" on="0"/>
        <pt x="283" y="1077" on="0"/>
        <pt x="313" y="1077" on="1"/>
        <pt x="343" y="1077" on="0"/>
        <pt x="394" y="1098" on="0"/>
        <pt x="432" y="1136" on="0"/>
        <pt x="453" y="1187" on="0"/>
        <pt x="453" y="1217" on="1"/>
        <pt x="453" y="1247" on="0"/>
        <pt x="432" y="1297" on="0"/>
        <pt x="394" y="1335" on="0"/>
        <pt x="343" y="1356" on="0"/>
        <pt x="313" y="1356" on="1"/>
        <pt x="283" y="1356" on="0"/>
        <pt x="233" y="1335" on="0"/>
        <pt x="195" y="1297" on="0"/>
        <pt x="174" y="1247" on="0"/>
      </contour>
      <contour>
        <pt x="96" y="1217" on="1"/>
        <pt x="96" y="1263" on="0"/>
        <pt x="129" y="1342" on="0"/>
        <pt x="188" y="1400" on="0"/>
        <pt x="267" y="1434" on="0"/>
        <pt x="313" y="1434" on="1"/>
        <pt x="359" y="1434" on="0"/>
        <pt x="438" y="1400" on="0"/>
        <pt x="497" y="1342" on="0"/>
        <pt x="530" y="1263" on="0"/>
        <pt x="530" y="1217" on="1"/>
        <pt x="530" y="1171" on="0"/>
        <pt x="497" y="1091" on="0"/>
        <pt x="438" y="1033" on="0"/>
        <pt x="359" y="999" on="0"/>
        <pt x="313" y="999" on="1"/>
        <pt x="267" y="999" on="0"/>
        <pt x="188" y="1033" on="0"/>
        <pt x="129" y="1091" on="0"/>
        <pt x="96" y="1171" on="0"/>
      </contour>
    </TTGlyph>
    <TTGlyph name="dieresis" xMin="105" yMin="1165" xMax="597" yMax="1372">
      <contour>
        <pt x="139" y="1165" on="1"/>
        <pt x="105" y="1199" on="1"/>
        <pt x="109" y="1237" on="0"/>
        <pt x="114" y="1290" on="0"/>
        <pt x="115" y="1308" on="1"/>
        <pt x="116" y="1328" on="0"/>
        <pt x="116" y="1343" on="1"/>
        <pt x="251" y="1372" on="1"/>
        <pt x="284" y="1337" on="1"/>
        <pt x="279" y="1299" on="0"/>
        <pt x="275" y="1245" on="0"/>
        <pt x="274" y="1228" on="1"/>
        <pt x="273" y="1208" on="0"/>
        <pt x="273" y="1195" on="1"/>
      </contour>
      <contour>
        <pt x="452" y="1165" on="1"/>
        <pt x="418" y="1199" on="1"/>
        <pt x="422" y="1237" on="0"/>
        <pt x="427" y="1290" on="0"/>
        <pt x="428" y="1308" on="1"/>
        <pt x="429" y="1328" on="0"/>
        <pt x="429" y="1343" on="1"/>
        <pt x="564" y="1372" on="1"/>
        <pt x="597" y="1337" on="1"/>
        <pt x="592" y="1299" on="0"/>
        <pt x="588" y="1245" on="0"/>
        <pt x="587" y="1228" on="1"/>
        <pt x="586" y="1208" on="0"/>
        <pt x="586" y="1195" on="1"/>
      </contour>
    </TTGlyph>
    <TTGlyph name="dieresis.case" xMin="322" yMin="1548" xMax="849" yMax="1755">
      <contour>
        <pt x="356" y="1548" on="1"/>
        <pt x="322" y="1582" on="1"/>
        <pt x="326" y="1620" on="0"/>
        <pt x="331" y="1673" on="0"/>
        <pt x="332" y="1691" on="1"/>
        <pt x="333" y="1711" on="0"/>
        <pt x="333" y="1726" on="1"/>
        <pt x="468" y="1755" on="1"/>
        <pt x="501" y="1720" on="1"/>
        <pt x="496" y="1682" on="0"/>
        <pt x="492" y="1628" on="0"/>
        <pt x="491" y="1611" on="1"/>
        <pt x="490" y="1591" on="0"/>
        <pt x="490" y="1578" on="1"/>
      </contour>
      <contour>
        <pt x="704" y="1548" on="1"/>
        <pt x="670" y="1582" on="1"/>
        <pt x="674" y="1620" on="0"/>
        <pt x="679" y="1673" on="0"/>
        <pt x="680" y="1691" on="1"/>
        <pt x="681" y="1711" on="0"/>
        <pt x="681" y="1726" on="1"/>
        <pt x="816" y="1755" on="1"/>
        <pt x="849" y="1720" on="1"/>
        <pt x="844" y="1682" on="0"/>
        <pt x="840" y="1628" on="0"/>
        <pt x="839" y="1611" on="1"/>
        <pt x="838" y="1591" on="0"/>
        <pt x="838" y="1578" on="1"/>
      </contour>
    </TTGlyph>
    <TTGlyph name="divide" xMin="124" yMin="177" xMax="1066" yMax="1119">
      <contour>
        <pt x="124" y="696" on="1"/>
        <pt x="1066" y="696" on="1"/>
        <pt x="1066" y="598" on="1"/>
        <pt x="124" y="598" on="1"/>
      </contour>
      <contour>
        <pt x="520" y="177" on="1"/>
        <pt x="483" y="213" on="1"/>
        <pt x="488" y="253" on="0"/>
        <pt x="491" y="311" on="0"/>
        <pt x="493" y="330" on="1"/>
        <pt x="494" y="352" on="0"/>
        <pt x="495" y="367" on="1"/>
        <pt x="641" y="398" on="1"/>
        <pt x="677" y="361" on="1"/>
        <pt x="672" y="320" on="0"/>
        <pt x="667" y="264" on="0"/>
        <pt x="666" y="245" on="1"/>
        <pt x="664" y="223" on="0"/>
        <pt x="665" y="209" on="1"/>
      </contour>
      <contour>
        <pt x="545" y="898" on="1"/>
        <pt x="508" y="934" on="1"/>
        <pt x="513" y="974" on="0"/>
        <pt x="516" y="1032" on="0"/>
        <pt x="518" y="1051" on="1"/>
        <pt x="519" y="1073" on="0"/>
        <pt x="520" y="1088" on="1"/>
        <pt x="666" y="1119" on="1"/>
        <pt x="702" y="1082" on="1"/>
        <pt x="697" y="1041" on="0"/>
        <pt x="692" y="985" on="0"/>
        <pt x="691" y="966" on="1"/>
        <pt x="689" y="944" on="0"/>
        <pt x="690" y="930" on="1"/>
      </contour>
    </TTGlyph>
    <TTGlyph name="dollar" xMin="71" yMin="-221" xMax="894" yMax="1554">
      <contour>
        <pt x="516" y="1554" on="1"/>
        <pt x="589" y="1554" on="1"/>
        <pt x="584" y="1417" on="1"/>
        <pt x="648" y="1414" on="0"/>
        <pt x="709" y="1403" on="1"/>
        <pt x="800" y="1388" on="0"/>
        <pt x="866" y="1368" on="1"/>
        <pt x="843" y="1067" on="1"/>
        <pt x="786" y="1067" on="1"/>
        <pt x="759" y="1272" on="1"/>
        <pt x="708" y="1309" on="0"/>
        <pt x="645" y="1327" on="1"/>
        <pt x="614" y="1337" on="0"/>
        <pt x="581" y="1341" on="1"/>
        <pt x="563" y="809" on="1"/>
        <pt x="628" y="762" on="0"/>
        <pt x="687" y="715" on="1"/>
        <pt x="748" y="668" on="0"/>
        <pt x="839" y="562" on="0"/>
        <pt x="894" y="442" on="0"/>
        <pt x="894" y="369" on="1"/>
        <pt x="894" y="286" on="0"/>
        <pt x="817" y="141" on="0"/>
        <pt x="690" y="33" on="0"/>
        <pt x="608" y="2" on="1"/>
        <pt x="571" y="-12" on="0"/>
        <pt x="533" y="-20" on="1"/>
        <pt x="526" y="-221" on="1"/>
        <pt x="454" y="-221" on="1"/>
        <pt x="460" y="-28" on="1"/>
        <pt x="450" y="-29" on="0"/>
        <pt x="440" y="-29" on="1"/>
        <pt x="334" y="-29" on="0"/>
        <pt x="142" y="5" on="0"/>
        <pt x="71" y="27" on="1"/>
        <pt x="96" y="344" on="1"/>
        <pt x="157" y="344" on="1"/>
        <pt x="174" y="170" on="1"/>
        <pt x="192" y="152" on="0"/>
        <pt x="255" y="110" on="0"/>
        <pt x="333" y="74" on="0"/>
        <pt x="376" y="62" on="1"/>
        <pt x="419" y="51" on="0"/>
        <pt x="463" y="51" on="1"/>
        <pt x="484" y="642" on="1"/>
        <pt x="461" y="660" on="0"/>
        <pt x="440" y="678" on="1"/>
        <pt x="396" y="712" on="0"/>
        <pt x="290" y="793" on="0"/>
        <pt x="197" y="891" on="0"/>
        <pt x="135" y="1009" on="0"/>
        <pt x="135" y="1081" on="1"/>
        <pt x="135" y="1136" on="0"/>
        <pt x="169" y="1255" on="0"/>
        <pt x="255" y="1354" on="0"/>
        <pt x="329" y="1386" on="1"/>
        <pt x="401" y="1417" on="0"/>
        <pt x="511" y="1419" on="1"/>
      </contour>
      <contour>
        <pt x="434" y="1332" on="1"/>
        <pt x="394" y="1319" on="0"/>
        <pt x="332" y="1266" on="0"/>
        <pt x="296" y="1189" on="0"/>
        <pt x="296" y="1139" on="1"/>
        <pt x="296" y="1077" on="0"/>
        <pt x="345" y="983" on="0"/>
        <pt x="422" y="907" on="0"/>
        <pt x="469" y="875" on="1"/>
        <pt x="480" y="867" on="0"/>
        <pt x="491" y="859" on="1"/>
        <pt x="508" y="1346" on="1"/>
        <pt x="469" y="1344" on="0"/>
      </contour>
      <contour>
        <pt x="578" y="72" on="1"/>
        <pt x="628" y="94" on="0"/>
        <pt x="697" y="166" on="0"/>
        <pt x="733" y="262" on="0"/>
        <pt x="733" y="315" on="1"/>
        <pt x="733" y="376" on="0"/>
        <pt x="676" y="478" on="0"/>
        <pt x="632" y="521" on="1"/>
        <pt x="596" y="557" on="0"/>
        <pt x="555" y="589" on="1"/>
        <pt x="536" y="58" on="1"/>
        <pt x="558" y="64" on="0"/>
      </contour>
    </TTGlyph>
    <TTGlyph name="dotlessi" xMin="17" yMin="-20" xMax="503" yMax="897">
      <contour>
        <pt x="355" y="862" on="1"/>
        <pt x="340" y="747" on="0"/>
        <pt x="323" y="542" on="0"/>
        <pt x="314" y="352" on="0"/>
        <pt x="312" y="170" on="0"/>
        <pt x="312" y="78" on="1"/>
        <pt x="346" y="83" on="0"/>
        <pt x="434" y="109" on="0"/>
        <pt x="482" y="131" on="1"/>
        <pt x="503" y="92" on="1"/>
        <pt x="472" y="71" on="0"/>
        <pt x="380" y="30" on="0"/>
        <pt x="287" y="-1" on="0"/>
        <pt x="206" y="-20" on="0"/>
        <pt x="187" y="-20" on="1"/>
        <pt x="152" y="14" on="1"/>
        <pt x="168" y="129" on="0"/>
        <pt x="186" y="338" on="0"/>
        <pt x="194" y="532" on="0"/>
        <pt x="195" y="717" on="0"/>
        <pt x="195" y="809" on="1"/>
        <pt x="165" y="805" on="0"/>
        <pt x="135" y="802" on="1"/>
        <pt x="109" y="799" on="0"/>
        <pt x="48" y="795" on="0"/>
        <pt x="21" y="793" on="1"/>
        <pt x="17" y="836" on="1"/>
        <pt x="320" y="897" on="1"/>
        <pt x="355" y="862" on="1"/>
      </contour>
    </TTGlyph>
    <TTGlyph name="e" xMin="70" yMin="-20" xMax="679" yMax="897">
      <contour>
        <pt x="677" y="733" on="1"/>
        <pt x="634" y="667" on="0"/>
        <pt x="567" y="606" on="1"/>
        <pt x="538" y="580" on="0"/>
        <pt x="466" y="524" on="0"/>
        <pt x="376" y="472" on="0"/>
        <pt x="270" y="425" on="0"/>
        <pt x="208" y="407" on="1"/>
        <pt x="211" y="320" on="0"/>
        <pt x="255" y="159" on="0"/>
        <pt x="302" y="104" on="1"/>
        <pt x="387" y="117" on="0"/>
        <pt x="545" y="205" on="0"/>
        <pt x="636" y="274" on="1"/>
        <pt x="662" y="238" on="1"/>
        <pt x="635" y="213" on="0"/>
        <pt x="559" y="146" on="0"/>
        <pt x="459" y="74" on="0"/>
        <pt x="336" y="6" on="0"/>
        <pt x="263" y="-20" on="1"/>
        <pt x="187" y="14" on="1"/>
        <pt x="124" y="80" on="0"/>
        <pt x="70" y="251" on="0"/>
        <pt x="70" y="342" on="1"/>
        <pt x="70" y="444" on="0"/>
        <pt x="138" y="643" on="0"/>
        <pt x="261" y="800" on="0"/>
        <pt x="433" y="897" on="0"/>
        <pt x="537" y="897" on="1"/>
        <pt x="553" y="897" on="0"/>
        <pt x="590" y="894" on="0"/>
        <pt x="627" y="884" on="0"/>
        <pt x="664" y="867" on="0"/>
        <pt x="679" y="852" on="1"/>
      </contour>
      <contour>
        <pt x="560" y="750" on="1"/>
        <pt x="515" y="777" on="0"/>
        <pt x="422" y="800" on="0"/>
        <pt x="371" y="800" on="1"/>
        <pt x="364" y="800" on="0"/>
        <pt x="351" y="800" on="0"/>
        <pt x="343" y="799" on="1"/>
        <pt x="311" y="775" on="0"/>
        <pt x="262" y="702" on="0"/>
        <pt x="228" y="613" on="0"/>
        <pt x="209" y="512" on="0"/>
        <pt x="208" y="460" on="1"/>
        <pt x="316" y="507" on="0"/>
        <pt x="453" y="609" on="0"/>
        <pt x="492" y="652" on="1"/>
        <pt x="538" y="702" on="0"/>
      </contour>
    </TTGlyph>
    <TTGlyph name="eacute" xMin="70" yMin="-20" xMax="793" yMax="1544">
      <component glyphName="e" x="0" y="0" flags="0x4"/>
      <component glyphName="acute" x="314" y="0" flags="0x4"/>
    </TTGlyph>
    <TTGlyph name="ecircumflex" xMin="70" yMin="-20" xMax="809" yMax="1493">
      <component glyphName="e" x="0" y="0" flags="0x4"/>
      <component glyphName="circumflex" x="111" y="0" flags="0x4"/>
    </TTGlyph>
    <TTGlyph name="edieresis" xMin="70" yMin="-20" xMax="727" yMax="1372">
      <component glyphName="e" x="0" y="0" flags="0x204"/>
      <component glyphName="dieresis" x="130" y="0" flags="0x4"/>
    </TTGlyph>
    <TTGlyph name="egrave" xMin="70" yMin="-20" xMax="679" yMax="1544">
      <component glyphName="e" x="0" y="0" flags="0x4"/>
      <component glyphName="grave" x="121" y="0" flags="0x4"/>
    </TTGlyph>
    <TTGlyph name="eight" xMin="81" yMin="-29" xMax="910" yMax="1419">
      <contour>
        <pt x="896" y="1137" on="1"/>
        <pt x="896" y="1078" on="0"/>
        <pt x="855" y="970" on="0"/>
        <pt x="788" y="873" on="0"/>
        <pt x="701" y="786" on="0"/>
        <pt x="656" y="748" on="1"/>
        <pt x="705" y="710" on="0"/>
        <pt x="797" y="630" on="0"/>
        <pt x="867" y="539" on="0"/>
        <pt x="910" y="434" on="0"/>
        <pt x="910" y="373" on="1"/>
        <pt x="910" y="282" on="0"/>
        <pt x="834" y="134" on="0"/>
        <pt x="707" y="29" on="0"/>
        <pt x="540" y="-29" on="0"/>
        <pt x="450" y="-29" on="1"/>
        <pt x="375" y="-29" on="0"/>
        <pt x="241" y="13" on="0"/>
        <pt x="140" y="95" on="0"/>
        <pt x="81" y="214" on="0"/>
        <pt x="81" y="291" on="1"/>
        <pt x="81" y="365" on="0"/>
        <pt x="137" y="496" on="0"/>
        <pt x="227" y="612" on="0"/>
        <pt x="341" y="715" on="0"/>
        <pt x="400" y="760" on="1"/>
        <pt x="351" y="798" on="0"/>
        <pt x="267" y="873" on="0"/>
        <pt x="206" y="952" on="0"/>
        <pt x="171" y="1040" on="0"/>
        <pt x="171" y="1092" on="1"/>
        <pt x="171" y="1165" on="0"/>
        <pt x="238" y="1286" on="0"/>
        <pt x="347" y="1372" on="0"/>
        <pt x="487" y="1419" on="0"/>
        <pt x="560" y="1419" on="1"/>
        <pt x="626" y="1419" on="0"/>
        <pt x="747" y="1384" on="0"/>
        <pt x="840" y="1314" on="0"/>
        <pt x="896" y="1208" on="0"/>
      </contour>
      <contour>
        <pt x="454" y="719" on="1"/>
        <pt x="409" y="686" on="0"/>
        <pt x="325" y="607" on="0"/>
        <pt x="260" y="513" on="0"/>
        <pt x="220" y="404" on="0"/>
        <pt x="220" y="340" on="1"/>
        <pt x="220" y="275" on="0"/>
        <pt x="259" y="167" on="0"/>
        <pt x="331" y="89" on="0"/>
        <pt x="433" y="45" on="0"/>
        <pt x="495" y="45" on="1"/>
        <pt x="546" y="45" on="0"/>
        <pt x="642" y="83" on="0"/>
        <pt x="716" y="152" on="0"/>
        <pt x="761" y="248" on="0"/>
        <pt x="761" y="307" on="1"/>
        <pt x="761" y="377" on="0"/>
        <pt x="707" y="491" on="0"/>
        <pt x="627" y="584" on="0"/>
        <pt x="535" y="657" on="0"/>
        <pt x="497" y="686" on="1"/>
      </contour>
      <contour>
        <pt x="519" y="1346" on="1"/>
        <pt x="478" y="1346" on="0"/>
        <pt x="403" y="1321" on="0"/>
        <pt x="345" y="1273" on="0"/>
        <pt x="310" y="1202" on="0"/>
        <pt x="310" y="1155" on="1"/>
        <pt x="310" y="1099" on="0"/>
        <pt x="368" y="997" on="0"/>
        <pt x="452" y="908" on="0"/>
        <pt x="546" y="833" on="0"/>
        <pt x="581" y="805" on="1"/>
        <pt x="605" y="786" on="1"/>
        <pt x="637" y="813" on="0"/>
        <pt x="696" y="877" on="0"/>
        <pt x="741" y="949" on="0"/>
        <pt x="767" y="1030" on="0"/>
        <pt x="767" y="1075" on="1"/>
        <pt x="767" y="1131" on="0"/>
        <pt x="729" y="1230" on="0"/>
        <pt x="663" y="1303" on="0"/>
        <pt x="572" y="1346" on="0"/>
      </contour>
    </TTGlyph>
    <TTGlyph name="emdash" xMin="136" yMin="430" xMax="1394" yMax="545">
      <contour>
        <pt x="1390" y="430" on="1"/>
        <pt x="136" y="430" on="1"/>
        <pt x="140" y="545" on="1"/>
        <pt x="1394" y="545" on="1"/>
      </contour>
    </TTGlyph>
    <TTGlyph name="endash" xMin="136" yMin="430" xMax="1052" yMax="545">
      <contour>
        <pt x="1048" y="430" on="1"/>
        <pt x="136" y="430" on="1"/>
        <pt x="140" y="545" on="1"/>
        <pt x="1052" y="545" on="1"/>
      </contour>
    </TTGlyph>
    <TTGlyph name="equal" xMin="171" yMin="455" xMax="1113" yMax="842">
      <contour>
        <pt x="1113" y="553" on="1"/>
        <pt x="1113" y="455" on="1"/>
        <pt x="171" y="455" on="1"/>
        <pt x="171" y="553" on="1"/>
      </contour>
      <contour>
        <pt x="1113" y="842" on="1"/>
        <pt x="1113" y="743" on="1"/>
        <pt x="171" y="743" on="1"/>
        <pt x="171" y="842" on="1"/>
      </contour>
    </TTGlyph>
    <TTGlyph name="eth" xMin="70" yMin="-20" xMax="844" yMax="1554">
      <contour>
        <pt x="844" y="1380" on="1"/>
        <pt x="790" y="1360" on="0"/>
        <pt x="679" y="1319" on="0"/>
        <pt x="622" y="1296" on="1"/>
        <pt x="712" y="1178" on="0"/>
        <pt x="803" y="865" on="0"/>
        <pt x="803" y="678" on="1"/>
        <pt x="803" y="532" on="0"/>
        <pt x="746" y="278" on="0"/>
        <pt x="631" y="89" on="0"/>
        <pt x="457" y="-20" on="0"/>
        <pt x="340" y="-20" on="1"/>
        <pt x="266" y="-20" on="0"/>
        <pt x="164" y="43" on="0"/>
        <pt x="99" y="147" on="0"/>
        <pt x="70" y="282" on="0"/>
        <pt x="70" y="354" on="1"/>
        <pt x="70" y="411" on="0"/>
        <pt x="98" y="536" on="0"/>
        <pt x="152" y="656" on="0"/>
        <pt x="230" y="766" on="0"/>
        <pt x="329" y="848" on="0"/>
        <pt x="447" y="897" on="0"/>
        <pt x="515" y="897" on="1"/>
        <pt x="547" y="897" on="0"/>
        <pt x="616" y="890" on="0"/>
        <pt x="643" y="886" on="1"/>
        <pt x="629" y="974" on="0"/>
        <pt x="570" y="1160" on="0"/>
        <pt x="511" y="1250" on="1"/>
        <pt x="448" y="1222" on="0"/>
        <pt x="328" y="1160" on="0"/>
        <pt x="271" y="1124" on="1"/>
        <pt x="275" y="1227" on="1"/>
        <pt x="321" y="1250" on="0"/>
        <pt x="417" y="1291" on="0"/>
        <pt x="467" y="1310" on="1"/>
        <pt x="421" y="1367" on="0"/>
        <pt x="300" y="1469" on="0"/>
        <pt x="220" y="1513" on="1"/>
        <pt x="234" y="1554" on="1"/>
        <pt x="340" y="1525" on="0"/>
        <pt x="512" y="1421" on="0"/>
        <pt x="579" y="1348" on="1"/>
        <pt x="641" y="1368" on="0"/>
        <pt x="765" y="1402" on="0"/>
        <pt x="828" y="1419" on="1"/>
      </contour>
      <contour>
        <pt x="658" y="662" on="1"/>
        <pt x="658" y="682" on="0"/>
        <pt x="657" y="728" on="0"/>
        <pt x="656" y="753" on="1"/>
        <pt x="637" y="759" on="0"/>
        <pt x="577" y="776" on="0"/>
        <pt x="508" y="792" on="0"/>
        <pt x="437" y="803" on="0"/>
        <pt x="406" y="803" on="1"/>
        <pt x="389" y="803" on="0"/>
        <pt x="358" y="798" on="0"/>
        <pt x="347" y="793" on="1"/>
        <pt x="319" y="775" on="0"/>
        <pt x="265" y="707" on="0"/>
        <pt x="223" y="616" on="0"/>
        <pt x="198" y="503" on="0"/>
        <pt x="198" y="440" on="1"/>
        <pt x="198" y="342" on="0"/>
        <pt x="257" y="161" on="0"/>
        <pt x="328" y="82" on="1"/>
        <pt x="508" y="82" on="1"/>
        <pt x="538" y="101" on="0"/>
        <pt x="592" y="207" on="0"/>
        <pt x="634" y="347" on="0"/>
        <pt x="658" y="501" on="0"/>
        <pt x="658" y="569" on="1"/>
      </contour>
    </TTGlyph>
    <TTGlyph name="exclam" xMin="125" yMin="-20" xMax="362" yMax="1391">
      <contour>
        <pt x="362" y="1391" on="1"/>
        <pt x="350" y="1308" on="0"/>
        <pt x="329" y="1136" on="0"/>
        <pt x="310" y="967" on="0"/>
        <pt x="294" y="806" on="0"/>
        <pt x="287" y="734" on="1"/>
        <pt x="271" y="566" on="0"/>
        <pt x="260" y="406" on="1"/>
        <pt x="202" y="406" on="1"/>
        <pt x="201" y="566" on="0"/>
        <pt x="197" y="734" on="1"/>
        <pt x="195" y="806" on="0"/>
        <pt x="191" y="967" on="0"/>
        <pt x="184" y="1136" on="0"/>
        <pt x="176" y="1308" on="0"/>
        <pt x="170" y="1391" on="1"/>
        <pt x="188" y="1389" on="0"/>
        <pt x="240" y="1386" on="0"/>
        <pt x="266" y="1386" on="1"/>
        <pt x="292" y="1386" on="0"/>
        <pt x="342" y="1389" on="0"/>
      </contour>
      <contour>
        <pt x="162" y="-20" on="1"/>
        <pt x="125" y="16" on="1"/>
        <pt x="130" y="56" on="0"/>
        <pt x="133" y="114" on="0"/>
        <pt x="135" y="133" on="1"/>
        <pt x="136" y="155" on="0"/>
        <pt x="137" y="170" on="1"/>
        <pt x="283" y="201" on="1"/>
        <pt x="319" y="164" on="1"/>
        <pt x="314" y="123" on="0"/>
        <pt x="309" y="67" on="0"/>
        <pt x="308" y="48" on="1"/>
        <pt x="306" y="26" on="0"/>
        <pt x="307" y="12" on="1"/>
      </contour>
    </TTGlyph>
    <TTGlyph name="exclamdown" xMin="78" yMin="-545" xMax="316" yMax="897">
      <contour>
        <pt x="159" y="676" on="1"/>
        <pt x="122" y="712" on="1"/>
        <pt x="127" y="752" on="0"/>
        <pt x="130" y="810" on="0"/>
        <pt x="132" y="829" on="1"/>
        <pt x="133" y="851" on="0"/>
        <pt x="134" y="866" on="1"/>
        <pt x="280" y="897" on="1"/>
        <pt x="316" y="860" on="1"/>
        <pt x="311" y="819" on="0"/>
        <pt x="306" y="763" on="0"/>
        <pt x="305" y="744" on="1"/>
        <pt x="303" y="722" on="0"/>
        <pt x="304" y="708" on="1"/>
      </contour>
      <contour>
        <pt x="78" y="-545" on="1"/>
        <pt x="90" y="-463" on="0"/>
        <pt x="111" y="-288" on="0"/>
        <pt x="130" y="-114" on="0"/>
        <pt x="146" y="53" on="0"/>
        <pt x="153" y="128" on="1"/>
        <pt x="169" y="303" on="0"/>
        <pt x="181" y="472" on="1"/>
        <pt x="239" y="472" on="1"/>
        <pt x="239" y="303" on="0"/>
        <pt x="243" y="128" on="1"/>
        <pt x="244" y="53" on="0"/>
        <pt x="249" y="-114" on="0"/>
        <pt x="256" y="-288" on="0"/>
        <pt x="264" y="-463" on="0"/>
        <pt x="270" y="-545" on="1"/>
        <pt x="252" y="-543" on="0"/>
        <pt x="200" y="-540" on="0"/>
        <pt x="174" y="-540" on="1"/>
        <pt x="148" y="-540" on="0"/>
        <pt x="98" y="-543" on="0"/>
      </contour>
    </TTGlyph>
    <TTGlyph name="f" xMin="-216" yMin="-545" xMax="763" yMax="1554">
      <contour>
        <pt x="122" y="-437" on="1"/>
        <pt x="134" y="-407" on="0"/>
        <pt x="156" y="-328" on="0"/>
        <pt x="175" y="-224" on="0"/>
        <pt x="189" y="-93" on="0"/>
        <pt x="192" y="-11" on="1"/>
        <pt x="193" y="14" on="0"/>
        <pt x="196" y="116" on="0"/>
        <pt x="200" y="251" on="0"/>
        <pt x="205" y="411" on="0"/>
        <pt x="210" y="575" on="0"/>
        <pt x="215" y="735" on="0"/>
        <pt x="217" y="803" on="1"/>
        <pt x="161" y="811" on="0"/>
        <pt x="67" y="827" on="0"/>
        <pt x="38" y="834" on="1"/>
        <pt x="40" y="877" on="1"/>
        <pt x="220" y="877" on="1"/>
        <pt x="222" y="931" on="0"/>
        <pt x="226" y="1012" on="0"/>
        <pt x="228" y="1032" on="1"/>
        <pt x="238" y="1171" on="0"/>
        <pt x="300" y="1369" on="0"/>
        <pt x="393" y="1495" on="0"/>
        <pt x="514" y="1554" on="0"/>
        <pt x="583" y="1554" on="1"/>
        <pt x="621" y="1554" on="0"/>
        <pt x="720" y="1543" on="0"/>
        <pt x="763" y="1532" on="1"/>
        <pt x="758" y="1383" on="1"/>
        <pt x="709" y="1402" on="0"/>
        <pt x="610" y="1427" on="0"/>
        <pt x="521" y="1441" on="0"/>
        <pt x="448" y="1446" on="0"/>
        <pt x="425" y="1446" on="1"/>
        <pt x="413" y="1416" on="0"/>
        <pt x="390" y="1337" on="0"/>
        <pt x="371" y="1233" on="0"/>
        <pt x="357" y="1102" on="0"/>
        <pt x="355" y="1020" on="1"/>
        <pt x="351" y="880" on="1"/>
        <pt x="426" y="882" on="0"/>
        <pt x="555" y="887" on="0"/>
        <pt x="603" y="891" on="1"/>
        <pt x="599" y="766" on="1"/>
        <pt x="551" y="766" on="0"/>
        <pt x="420" y="777" on="0"/>
        <pt x="348" y="785" on="1"/>
        <pt x="346" y="716" on="0"/>
        <pt x="341" y="555" on="0"/>
        <pt x="336" y="391" on="0"/>
        <pt x="330" y="232" on="0"/>
        <pt x="325" y="98" on="0"/>
        <pt x="321" y="-1" on="0"/>
        <pt x="319" y="-23" on="1"/>
        <pt x="309" y="-162" on="0"/>
        <pt x="247" y="-360" on="0"/>
        <pt x="154" y="-486" on="0"/>
        <pt x="33" y="-545" on="0"/>
        <pt x="-36" y="-545" on="1"/>
        <pt x="-74" y="-545" on="0"/>
        <pt x="-173" y="-534" on="0"/>
        <pt x="-216" y="-523" on="1"/>
        <pt x="-212" y="-369" on="1"/>
        <pt x="-163" y="-388" on="0"/>
        <pt x="-63" y="-414" on="0"/>
        <pt x="26" y="-430" on="0"/>
        <pt x="99" y="-437" on="0"/>
      </contour>
    </TTGlyph>
    <TTGlyph name="f_b" xMin="-216" yMin="-545" xMax="1433" yMax="1554">
      <contour>
        <pt x="903" y="600" on="1"/>
        <pt x="945" y="657" on="0"/>
        <pt x="1029" y="753" on="0"/>
        <pt x="1121" y="828" on="0"/>
        <pt x="1226" y="882" on="0"/>
        <pt x="1290" y="897" on="1"/>
        <pt x="1376" y="862" on="1"/>
        <pt x="1407" y="797" on="0"/>
        <pt x="1433" y="665" on="0"/>
        <pt x="1433" y="600" on="1"/>
        <pt x="1433" y="518" on="0"/>
        <pt x="1394" y="363" on="0"/>
        <pt x="1325" y="225" on="0"/>
        <pt x="1231" y="110" on="0"/>
        <pt x="1120" y="27" on="0"/>
        <pt x="997" y="-20" on="0"/>
        <pt x="935" y="-20" on="1"/>
        <pt x="899" y="-20" on="0"/>
        <pt x="841" y="-15" on="0"/>
        <pt x="789" y="-6" on="0"/>
        <pt x="738" y="8" on="0"/>
        <pt x="710" y="16" on="1"/>
        <pt x="719" y="117" on="0"/>
        <pt x="736" y="316" on="0"/>
        <pt x="751" y="521" on="0"/>
        <pt x="765" y="737" on="0"/>
        <pt x="775" y="974" on="0"/>
        <pt x="782" y="1239" on="0"/>
        <pt x="783" y="1390" on="1"/>
        <pt x="731" y="1409" on="0"/>
        <pt x="625" y="1434" on="0"/>
        <pt x="529" y="1447" on="0"/>
        <pt x="451" y="1452" on="0"/>
        <pt x="426" y="1452" on="1"/>
        <pt x="414" y="1422" on="0"/>
        <pt x="390" y="1341" on="0"/>
        <pt x="371" y="1235" on="0"/>
        <pt x="357" y="1102" on="0"/>
        <pt x="355" y="1020" on="1"/>
        <pt x="351" y="880" on="1"/>
        <pt x="426" y="882" on="0"/>
        <pt x="555" y="887" on="0"/>
        <pt x="603" y="891" on="1"/>
        <pt x="599" y="766" on="1"/>
        <pt x="551" y="766" on="0"/>
        <pt x="420" y="777" on="0"/>
        <pt x="348" y="785" on="1"/>
        <pt x="346" y="716" on="0"/>
        <pt x="341" y="555" on="0"/>
        <pt x="336" y="391" on="0"/>
        <pt x="330" y="232" on="0"/>
        <pt x="325" y="98" on="0"/>
        <pt x="321" y="-1" on="0"/>
        <pt x="319" y="-23" on="1"/>
        <pt x="309" y="-162" on="0"/>
        <pt x="247" y="-360" on="0"/>
        <pt x="154" y="-486" on="0"/>
        <pt x="33" y="-545" on="0"/>
        <pt x="-36" y="-545" on="1"/>
        <pt x="-74" y="-545" on="0"/>
        <pt x="-173" y="-534" on="0"/>
        <pt x="-216" y="-523" on="1"/>
        <pt x="-212" y="-369" on="1"/>
        <pt x="-163" y="-388" on="0"/>
        <pt x="-63" y="-414" on="0"/>
        <pt x="26" y="-430" on="0"/>
        <pt x="99" y="-437" on="0"/>
        <pt x="122" y="-437" on="1"/>
        <pt x="134" y="-407" on="0"/>
        <pt x="156" y="-328" on="0"/>
        <pt x="175" y="-224" on="0"/>
        <pt x="189" y="-93" on="0"/>
        <pt x="192" y="-11" on="1"/>
        <pt x="193" y="14" on="0"/>
        <pt x="196" y="116" on="0"/>
        <pt x="200" y="251" on="0"/>
        <pt x="205" y="411" on="0"/>
        <pt x="210" y="575" on="0"/>
        <pt x="215" y="735" on="0"/>
        <pt x="217" y="803" on="1"/>
        <pt x="161" y="811" on="0"/>
        <pt x="67" y="827" on="0"/>
        <pt x="38" y="834" on="1"/>
        <pt x="40" y="877" on="1"/>
        <pt x="220" y="877" on="1"/>
        <pt x="222" y="931" on="0"/>
        <pt x="226" y="1012" on="0"/>
        <pt x="228" y="1032" on="1"/>
        <pt x="238" y="1171" on="0"/>
        <pt x="299" y="1369" on="0"/>
        <pt x="395" y="1495" on="0"/>
        <pt x="523" y="1554" on="0"/>
        <pt x="601" y="1554" on="1"/>
        <pt x="621" y="1554" on="0"/>
        <pt x="670" y="1551" on="0"/>
        <pt x="721" y="1545" on="0"/>
        <pt x="772" y="1537" on="0"/>
        <pt x="795" y="1531" on="1"/>
        <pt x="909" y="1554" on="1"/>
        <pt x="942" y="1520" on="1"/>
        <pt x="940" y="1517" on="0"/>
        <pt x="934" y="1437" on="0"/>
        <pt x="925" y="1303" on="0"/>
        <pt x="914" y="1125" on="0"/>
        <pt x="903" y="923" on="0"/>
        <pt x="891" y="708" on="0"/>
        <pt x="886" y="604" on="1"/>
      </contour>
      <contour>
        <pt x="864" y="104" on="1"/>
        <pt x="895" y="95" on="0"/>
        <pt x="972" y="80" on="0"/>
        <pt x="1007" y="80" on="1"/>
        <pt x="1076" y="80" on="0"/>
        <pt x="1186" y="147" on="0"/>
        <pt x="1263" y="261" on="0"/>
        <pt x="1304" y="411" on="0"/>
        <pt x="1304" y="494" on="1"/>
        <pt x="1304" y="565" on="0"/>
        <pt x="1273" y="706" on="0"/>
        <pt x="1239" y="774" on="1"/>
        <pt x="1195" y="773" on="0"/>
        <pt x="1072" y="709" on="0"/>
        <pt x="957" y="588" on="0"/>
        <pt x="874" y="412" on="0"/>
        <pt x="870" y="299" on="1"/>
      </contour>
    </TTGlyph>
    <TTGlyph name="f_f" xMin="-216" yMin="-545" xMax="1252" yMax="1554">
      <contour>
        <pt x="1089" y="766" on="1"/>
        <pt x="1040" y="765" on="0"/>
        <pt x="969" y="767" on="1"/>
        <pt x="907" y="769" on="0"/>
        <pt x="836" y="773" on="1"/>
        <pt x="835" y="707" on="0"/>
        <pt x="832" y="630" on="1"/>
        <pt x="830" y="547" on="0"/>
        <pt x="824" y="376" on="0"/>
        <pt x="819" y="214" on="0"/>
        <pt x="816" y="147" on="1"/>
        <pt x="809" y="-18" on="0"/>
        <pt x="758" y="-253" on="0"/>
        <pt x="656" y="-401" on="0"/>
        <pt x="496" y="-470" on="0"/>
        <pt x="380" y="-470" on="1"/>
        <pt x="333" y="-470" on="0"/>
        <pt x="273" y="-464" on="1"/>
        <pt x="223" y="-460" on="0"/>
        <pt x="178" y="-451" on="1"/>
        <pt x="139" y="-493" on="0"/>
        <pt x="93" y="-515" on="1"/>
        <pt x="33" y="-545" on="0"/>
        <pt x="-36" y="-545" on="1"/>
        <pt x="-74" y="-545" on="0"/>
        <pt x="-173" y="-534" on="0"/>
        <pt x="-216" y="-523" on="1"/>
        <pt x="-212" y="-369" on="1"/>
        <pt x="-163" y="-388" on="0"/>
        <pt x="-63" y="-414" on="0"/>
        <pt x="26" y="-430" on="0"/>
        <pt x="99" y="-437" on="0"/>
        <pt x="122" y="-437" on="1"/>
        <pt x="134" y="-407" on="0"/>
        <pt x="156" y="-328" on="0"/>
        <pt x="175" y="-224" on="0"/>
        <pt x="189" y="-93" on="0"/>
        <pt x="192" y="-11" on="1"/>
        <pt x="193" y="14" on="0"/>
        <pt x="196" y="116" on="0"/>
        <pt x="199" y="251" on="0"/>
        <pt x="203" y="411" on="0"/>
        <pt x="208" y="575" on="0"/>
        <pt x="214" y="735" on="0"/>
        <pt x="217" y="803" on="1"/>
        <pt x="217" y="815" on="1"/>
        <pt x="195" y="817" on="0"/>
        <pt x="174" y="819" on="1"/>
        <pt x="115" y="825" on="0"/>
        <pt x="42" y="832" on="0"/>
        <pt x="38" y="834" on="1"/>
        <pt x="42" y="877" on="1"/>
        <pt x="220" y="877" on="1"/>
        <pt x="225" y="966" on="1"/>
        <pt x="232" y="1116" on="0"/>
        <pt x="297" y="1317" on="0"/>
        <pt x="407" y="1438" on="0"/>
        <pt x="560" y="1488" on="0"/>
        <pt x="656" y="1488" on="1"/>
        <pt x="703" y="1488" on="0"/>
        <pt x="762" y="1482" on="1"/>
        <pt x="817" y="1477" on="0"/>
        <pt x="865" y="1467" on="1"/>
        <pt x="900" y="1504" on="0"/>
        <pt x="942" y="1524" on="1"/>
        <pt x="1003" y="1554" on="0"/>
        <pt x="1072" y="1554" on="1"/>
        <pt x="1110" y="1554" on="0"/>
        <pt x="1209" y="1543" on="0"/>
        <pt x="1252" y="1532" on="1"/>
        <pt x="1247" y="1383" on="1"/>
        <pt x="1198" y="1402" on="0"/>
        <pt x="1099" y="1427" on="0"/>
        <pt x="1010" y="1441" on="0"/>
        <pt x="937" y="1446" on="0"/>
        <pt x="914" y="1446" on="1"/>
        <pt x="902" y="1416" on="0"/>
        <pt x="879" y="1337" on="0"/>
        <pt x="860" y="1233" on="0"/>
        <pt x="846" y="1102" on="0"/>
        <pt x="844" y="1020" on="1"/>
        <pt x="840" y="883" on="1"/>
        <pt x="896" y="884" on="0"/>
        <pt x="938" y="885" on="1"/>
        <pt x="991" y="887" on="0"/>
        <pt x="1063" y="890" on="0"/>
        <pt x="1093" y="891" on="1"/>
      </contour>
      <contour>
        <pt x="685" y="144" on="1"/>
        <pt x="687" y="212" on="0"/>
        <pt x="692" y="380" on="0"/>
        <pt x="698" y="557" on="0"/>
        <pt x="701" y="643" on="1"/>
        <pt x="703" y="716" on="0"/>
        <pt x="705" y="779" on="1"/>
        <pt x="676" y="781" on="0"/>
        <pt x="647" y="783" on="1"/>
        <pt x="559" y="789" on="0"/>
        <pt x="473" y="795" on="1"/>
        <pt x="408" y="800" on="0"/>
        <pt x="348" y="805" on="1"/>
        <pt x="348" y="785" on="1"/>
        <pt x="346" y="716" on="0"/>
        <pt x="341" y="555" on="0"/>
        <pt x="336" y="391" on="0"/>
        <pt x="330" y="232" on="0"/>
        <pt x="325" y="98" on="0"/>
        <pt x="321" y="-1" on="0"/>
        <pt x="319" y="-23" on="1"/>
        <pt x="309" y="-162" on="0"/>
        <pt x="278" y="-261" on="1"/>
        <pt x="271" y="-283" on="0"/>
        <pt x="263" y="-304" on="1"/>
        <pt x="311" y="-321" on="0"/>
        <pt x="359" y="-333" on="1"/>
        <pt x="413" y="-346" on="0"/>
        <pt x="509" y="-361" on="0"/>
        <pt x="588" y="-368" on="0"/>
        <pt x="613" y="-368" on="1"/>
        <pt x="625" y="-338" on="0"/>
        <pt x="650" y="-255" on="0"/>
        <pt x="670" y="-134" on="0"/>
        <pt x="683" y="32" on="0"/>
      </contour>
      <contour>
        <pt x="676" y="1355" on="1"/>
        <pt x="623" y="1368" on="0"/>
        <pt x="527" y="1381" on="0"/>
        <pt x="448" y="1386" on="0"/>
        <pt x="423" y="1386" on="1"/>
        <pt x="411" y="1356" on="0"/>
        <pt x="387" y="1275" on="0"/>
        <pt x="368" y="1169" on="0"/>
        <pt x="354" y="1036" on="0"/>
        <pt x="352" y="954" on="1"/>
        <pt x="351" y="880" on="1"/>
        <pt x="351" y="877" on="1"/>
        <pt x="377" y="877" on="1"/>
        <pt x="521" y="878" on="0"/>
        <pt x="628" y="879" on="1"/>
        <pt x="671" y="880" on="0"/>
        <pt x="709" y="880" on="1"/>
        <pt x="711" y="932" on="0"/>
        <pt x="713" y="971" on="1"/>
        <pt x="715" y="1012" on="0"/>
        <pt x="717" y="1032" on="1"/>
        <pt x="727" y="1171" on="0"/>
        <pt x="758" y="1270" on="1"/>
        <pt x="767" y="1299" on="0"/>
        <pt x="777" y="1326" on="1"/>
        <pt x="727" y="1343" on="0"/>
      </contour>
    </TTGlyph>
    <TTGlyph name="f_f_i" xMin="-216" yMin="-545" xMax="1503" yMax="1554">
      <contour>
        <pt x="1196" y="769" on="1"/>
        <pt x="1136" y="768" on="0"/>
        <pt x="976" y="772" on="0"/>
        <pt x="885" y="776" on="1"/>
        <pt x="861" y="777" on="0"/>
        <pt x="836" y="778" on="1"/>
        <pt x="835" y="710" on="0"/>
        <pt x="832" y="630" on="1"/>
        <pt x="830" y="547" on="0"/>
        <pt x="824" y="376" on="0"/>
        <pt x="819" y="214" on="0"/>
        <pt x="816" y="147" on="1"/>
        <pt x="809" y="-18" on="0"/>
        <pt x="758" y="-253" on="0"/>
        <pt x="656" y="-401" on="0"/>
        <pt x="496" y="-470" on="0"/>
        <pt x="380" y="-470" on="1"/>
        <pt x="333" y="-470" on="0"/>
        <pt x="273" y="-464" on="1"/>
        <pt x="223" y="-460" on="0"/>
        <pt x="178" y="-451" on="1"/>
        <pt x="139" y="-493" on="0"/>
        <pt x="93" y="-515" on="1"/>
        <pt x="33" y="-545" on="0"/>
        <pt x="-36" y="-545" on="1"/>
        <pt x="-74" y="-545" on="0"/>
        <pt x="-173" y="-534" on="0"/>
        <pt x="-216" y="-523" on="1"/>
        <pt x="-212" y="-369" on="1"/>
        <pt x="-163" y="-388" on="0"/>
        <pt x="-63" y="-414" on="0"/>
        <pt x="26" y="-430" on="0"/>
        <pt x="99" y="-437" on="0"/>
        <pt x="122" y="-437" on="1"/>
        <pt x="134" y="-407" on="0"/>
        <pt x="156" y="-328" on="0"/>
        <pt x="175" y="-224" on="0"/>
        <pt x="189" y="-93" on="0"/>
        <pt x="192" y="-11" on="1"/>
        <pt x="193" y="14" on="0"/>
        <pt x="196" y="116" on="0"/>
        <pt x="199" y="251" on="0"/>
        <pt x="203" y="411" on="0"/>
        <pt x="208" y="575" on="0"/>
        <pt x="214" y="735" on="0"/>
        <pt x="217" y="803" on="1"/>
        <pt x="217" y="816" on="1"/>
        <pt x="201" y="818" on="0"/>
        <pt x="185" y="819" on="1"/>
        <pt x="122" y="824" on="0"/>
        <pt x="43" y="831" on="0"/>
        <pt x="38" y="833" on="1"/>
        <pt x="42" y="878" on="1"/>
        <pt x="220" y="878" on="1"/>
        <pt x="225" y="966" on="1"/>
        <pt x="232" y="1116" on="0"/>
        <pt x="297" y="1317" on="0"/>
        <pt x="407" y="1438" on="0"/>
        <pt x="560" y="1488" on="0"/>
        <pt x="656" y="1488" on="1"/>
        <pt x="703" y="1488" on="0"/>
        <pt x="762" y="1482" on="1"/>
        <pt x="819" y="1477" on="0"/>
        <pt x="868" y="1467" on="1"/>
        <pt x="912" y="1509" on="0"/>
        <pt x="967" y="1529" on="1"/>
        <pt x="1037" y="1554" on="0"/>
        <pt x="1120" y="1554" on="1"/>
        <pt x="1163" y="1554" on="0"/>
        <pt x="1271" y="1543" on="0"/>
        <pt x="1319" y="1532" on="1"/>
        <pt x="1313" y="1383" on="1"/>
        <pt x="1254" y="1402" on="0"/>
        <pt x="1136" y="1427" on="0"/>
        <pt x="1030" y="1441" on="0"/>
        <pt x="943" y="1446" on="0"/>
        <pt x="915" y="1446" on="1"/>
        <pt x="901" y="1412" on="0"/>
        <pt x="878" y="1332" on="0"/>
        <pt x="859" y="1230" on="0"/>
        <pt x="846" y="1102" on="0"/>
        <pt x="844" y="1020" on="1"/>
        <pt x="840" y="883" on="1"/>
        <pt x="916" y="884" on="0"/>
        <pt x="976" y="886" on="1"/>
        <pt x="1067" y="888" on="0"/>
        <pt x="1197" y="892" on="0"/>
        <pt x="1285" y="896" on="0"/>
        <pt x="1321" y="897" on="1"/>
        <pt x="1356" y="862" on="1"/>
        <pt x="1341" y="747" on="0"/>
        <pt x="1324" y="542" on="0"/>
        <pt x="1315" y="352" on="0"/>
        <pt x="1313" y="170" on="0"/>
        <pt x="1313" y="78" on="1"/>
        <pt x="1347" y="83" on="0"/>
        <pt x="1435" y="109" on="0"/>
        <pt x="1483" y="131" on="1"/>
        <pt x="1503" y="92" on="1"/>
        <pt x="1472" y="71" on="0"/>
        <pt x="1380" y="30" on="0"/>
        <pt x="1287" y="-1" on="0"/>
        <pt x="1207" y="-20" on="0"/>
        <pt x="1188" y="-20" on="1"/>
        <pt x="1153" y="14" on="1"/>
        <pt x="1168" y="123" on="0"/>
        <pt x="1185" y="321" on="0"/>
        <pt x="1194" y="506" on="0"/>
        <pt x="1196" y="682" on="0"/>
      </contour>
      <contour>
        <pt x="343" y="635" on="1"/>
        <pt x="341" y="555" on="0"/>
        <pt x="336" y="391" on="0"/>
        <pt x="330" y="232" on="0"/>
        <pt x="325" y="98" on="0"/>
        <pt x="321" y="-1" on="0"/>
        <pt x="319" y="-23" on="1"/>
        <pt x="309" y="-162" on="0"/>
        <pt x="278" y="-261" on="1"/>
        <pt x="270" y="-286" on="0"/>
        <pt x="261" y="-309" on="1"/>
        <pt x="309" y="-327" on="0"/>
        <pt x="359" y="-338" on="1"/>
        <pt x="413" y="-350" on="0"/>
        <pt x="509" y="-363" on="0"/>
        <pt x="588" y="-368" on="0"/>
        <pt x="613" y="-368" on="1"/>
        <pt x="625" y="-338" on="0"/>
        <pt x="650" y="-255" on="0"/>
        <pt x="670" y="-134" on="0"/>
        <pt x="683" y="32" on="0"/>
        <pt x="685" y="144" on="1"/>
        <pt x="687" y="212" on="0"/>
        <pt x="692" y="380" on="0"/>
        <pt x="698" y="557" on="0"/>
        <pt x="701" y="643" on="1"/>
        <pt x="703" y="719" on="0"/>
        <pt x="705" y="785" on="1"/>
        <pt x="701" y="785" on="0"/>
        <pt x="697" y="785" on="1"/>
        <pt x="600" y="791" on="0"/>
        <pt x="507" y="796" on="1"/>
        <pt x="424" y="801" on="0"/>
        <pt x="348" y="806" on="1"/>
        <pt x="348" y="785" on="1"/>
        <pt x="346" y="716" on="0"/>
      </contour>
      <contour>
        <pt x="717" y="1032" on="1"/>
        <pt x="728" y="1182" on="0"/>
        <pt x="761" y="1282" on="1"/>
        <pt x="769" y="1305" on="0"/>
        <pt x="777" y="1326" on="1"/>
        <pt x="727" y="1344" on="0"/>
        <pt x="677" y="1355" on="1"/>
        <pt x="623" y="1368" on="0"/>
        <pt x="527" y="1381" on="0"/>
        <pt x="448" y="1386" on="0"/>
        <pt x="423" y="1386" on="1"/>
        <pt x="411" y="1356" on="0"/>
        <pt x="387" y="1275" on="0"/>
        <pt x="368" y="1169" on="0"/>
        <pt x="354" y="1036" on="0"/>
        <pt x="352" y="954" on="1"/>
        <pt x="351" y="880" on="1"/>
        <pt x="351" y="878" on="1"/>
        <pt x="402" y="878" on="0"/>
        <pt x="449" y="879" on="1"/>
        <pt x="595" y="880" on="0"/>
        <pt x="709" y="881" on="1"/>
        <pt x="711" y="932" on="0"/>
        <pt x="713" y="971" on="1"/>
        <pt x="715" y="1012" on="0"/>
      </contour>
    </TTGlyph>
    <TTGlyph name="f_f_l" xMin="-216" yMin="-545" xMax="1559" yMax="1554">
      <contour>
        <pt x="916" y="1452" on="1"/>
        <pt x="902" y="1418" on="0"/>
        <pt x="878" y="1336" on="0"/>
        <pt x="859" y="1232" on="0"/>
        <pt x="846" y="1102" on="0"/>
        <pt x="844" y="1020" on="1"/>
        <pt x="840" y="883" on="1"/>
        <pt x="896" y="884" on="0"/>
        <pt x="938" y="885" on="1"/>
        <pt x="991" y="887" on="0"/>
        <pt x="1063" y="890" on="0"/>
        <pt x="1093" y="891" on="1"/>
        <pt x="1089" y="766" on="1"/>
        <pt x="1040" y="765" on="0"/>
        <pt x="969" y="767" on="1"/>
        <pt x="907" y="769" on="0"/>
        <pt x="836" y="773" on="1"/>
        <pt x="835" y="707" on="0"/>
        <pt x="832" y="630" on="1"/>
        <pt x="830" y="547" on="0"/>
        <pt x="824" y="376" on="0"/>
        <pt x="819" y="214" on="0"/>
        <pt x="816" y="147" on="1"/>
        <pt x="809" y="-18" on="0"/>
        <pt x="758" y="-253" on="0"/>
        <pt x="656" y="-401" on="0"/>
        <pt x="496" y="-470" on="0"/>
        <pt x="380" y="-470" on="1"/>
        <pt x="333" y="-470" on="0"/>
        <pt x="273" y="-464" on="1"/>
        <pt x="223" y="-460" on="0"/>
        <pt x="178" y="-451" on="1"/>
        <pt x="139" y="-493" on="0"/>
        <pt x="93" y="-515" on="1"/>
        <pt x="33" y="-545" on="0"/>
        <pt x="-36" y="-545" on="1"/>
        <pt x="-74" y="-545" on="0"/>
        <pt x="-173" y="-534" on="0"/>
        <pt x="-216" y="-523" on="1"/>
        <pt x="-212" y="-369" on="1"/>
        <pt x="-163" y="-388" on="0"/>
        <pt x="-63" y="-414" on="0"/>
        <pt x="26" y="-430" on="0"/>
        <pt x="99" y="-437" on="0"/>
        <pt x="122" y="-437" on="1"/>
        <pt x="134" y="-407" on="0"/>
        <pt x="156" y="-328" on="0"/>
        <pt x="175" y="-224" on="0"/>
        <pt x="189" y="-93" on="0"/>
        <pt x="192" y="-11" on="1"/>
        <pt x="193" y="14" on="0"/>
        <pt x="196" y="116" on="0"/>
        <pt x="199" y="251" on="0"/>
        <pt x="203" y="411" on="0"/>
        <pt x="208" y="575" on="0"/>
        <pt x="214" y="735" on="0"/>
        <pt x="217" y="803" on="1"/>
        <pt x="217" y="815" on="1"/>
        <pt x="195" y="817" on="0"/>
        <pt x="174" y="819" on="1"/>
        <pt x="115" y="825" on="0"/>
        <pt x="42" y="832" on="0"/>
        <pt x="38" y="834" on="1"/>
        <pt x="42" y="877" on="1"/>
        <pt x="220" y="877" on="1"/>
        <pt x="225" y="966" on="1"/>
        <pt x="232" y="1116" on="0"/>
        <pt x="297" y="1317" on="0"/>
        <pt x="407" y="1438" on="0"/>
        <pt x="560" y="1488" on="0"/>
        <pt x="656" y="1488" on="1"/>
        <pt x="703" y="1488" on="0"/>
        <pt x="762" y="1482" on="1"/>
        <pt x="819" y="1477" on="0"/>
        <pt x="868" y="1467" on="1"/>
        <pt x="912" y="1509" on="0"/>
        <pt x="967" y="1529" on="1"/>
        <pt x="1037" y="1554" on="0"/>
        <pt x="1120" y="1554" on="1"/>
        <pt x="1161" y="1554" on="0"/>
        <pt x="1240" y="1543" on="0"/>
        <pt x="1285" y="1532" on="1"/>
        <pt x="1395" y="1554" on="1"/>
        <pt x="1430" y="1520" on="1"/>
        <pt x="1417" y="1407" on="0"/>
        <pt x="1399" y="1160" on="0"/>
        <pt x="1387" y="904" on="0"/>
        <pt x="1379" y="647" on="0"/>
        <pt x="1375" y="402" on="0"/>
        <pt x="1374" y="175" on="0"/>
        <pt x="1374" y="78" on="1"/>
        <pt x="1443" y="87" on="0"/>
        <pt x="1538" y="131" on="1"/>
        <pt x="1559" y="92" on="1"/>
        <pt x="1528" y="71" on="0"/>
        <pt x="1438" y="30" on="0"/>
        <pt x="1347" y="-1" on="0"/>
        <pt x="1268" y="-20" on="0"/>
        <pt x="1249" y="-20" on="1"/>
        <pt x="1215" y="14" on="1"/>
        <pt x="1227" y="119" on="0"/>
        <pt x="1245" y="350" on="0"/>
        <pt x="1257" y="591" on="0"/>
        <pt x="1264" y="836" on="0"/>
        <pt x="1268" y="1071" on="0"/>
        <pt x="1270" y="1293" on="0"/>
        <pt x="1270" y="1390" on="1"/>
        <pt x="1218" y="1409" on="0"/>
        <pt x="1113" y="1434" on="0"/>
        <pt x="1018" y="1447" on="0"/>
        <pt x="940" y="1452" on="0"/>
      </contour>
      <contour>
        <pt x="343" y="635" on="1"/>
        <pt x="341" y="555" on="0"/>
        <pt x="336" y="391" on="0"/>
        <pt x="330" y="232" on="0"/>
        <pt x="325" y="98" on="0"/>
        <pt x="321" y="-1" on="0"/>
        <pt x="319" y="-23" on="1"/>
        <pt x="309" y="-162" on="0"/>
        <pt x="278" y="-261" on="1"/>
        <pt x="270" y="-286" on="0"/>
        <pt x="261" y="-309" on="1"/>
        <pt x="309" y="-327" on="0"/>
        <pt x="359" y="-338" on="1"/>
        <pt x="413" y="-350" on="0"/>
        <pt x="509" y="-363" on="0"/>
        <pt x="588" y="-368" on="0"/>
        <pt x="613" y="-368" on="1"/>
        <pt x="625" y="-338" on="0"/>
        <pt x="650" y="-255" on="0"/>
        <pt x="670" y="-134" on="0"/>
        <pt x="683" y="32" on="0"/>
        <pt x="685" y="144" on="1"/>
        <pt x="687" y="212" on="0"/>
        <pt x="692" y="380" on="0"/>
        <pt x="698" y="557" on="0"/>
        <pt x="701" y="643" on="1"/>
        <pt x="703" y="716" on="0"/>
        <pt x="705" y="779" on="1"/>
        <pt x="676" y="781" on="0"/>
        <pt x="647" y="783" on="1"/>
        <pt x="559" y="789" on="0"/>
        <pt x="473" y="795" on="1"/>
        <pt x="408" y="800" on="0"/>
        <pt x="348" y="805" on="1"/>
        <pt x="348" y="785" on="1"/>
        <pt x="346" y="716" on="0"/>
      </contour>
      <contour>
        <pt x="677" y="1355" on="1"/>
        <pt x="623" y="1368" on="0"/>
        <pt x="527" y="1381" on="0"/>
        <pt x="448" y="1386" on="0"/>
        <pt x="423" y="1386" on="1"/>
        <pt x="411" y="1356" on="0"/>
        <pt x="387" y="1275" on="0"/>
        <pt x="368" y="1169" on="0"/>
        <pt x="354" y="1036" on="0"/>
        <pt x="352" y="954" on="1"/>
        <pt x="351" y="880" on="1"/>
        <pt x="351" y="877" on="1"/>
        <pt x="377" y="877" on="1"/>
        <pt x="521" y="878" on="0"/>
        <pt x="628" y="879" on="1"/>
        <pt x="671" y="880" on="0"/>
        <pt x="709" y="880" on="1"/>
        <pt x="711" y="932" on="0"/>
        <pt x="713" y="971" on="1"/>
        <pt x="715" y="1012" on="0"/>
        <pt x="717" y="1032" on="1"/>
        <pt x="728" y="1182" on="0"/>
        <pt x="761" y="1282" on="1"/>
        <pt x="769" y="1305" on="0"/>
        <pt x="777" y="1326" on="1"/>
        <pt x="727" y="1344" on="0"/>
      </contour>
    </TTGlyph>
    <TTGlyph name="f_h" xMin="-216" yMin="-545" xMax="1604" yMax="1554">
      <contour>
        <pt x="943" y="1520" on="1"/>
        <pt x="920" y="1306" on="0"/>
        <pt x="892" y="839" on="0"/>
        <pt x="875" y="571" on="1"/>
        <pt x="891" y="567" on="1"/>
        <pt x="936" y="626" on="0"/>
        <pt x="1040" y="733" on="0"/>
        <pt x="1155" y="819" on="0"/>
        <pt x="1278" y="882" on="0"/>
        <pt x="1342" y="897" on="1"/>
        <pt x="1418" y="862" on="1"/>
        <pt x="1432" y="808" on="0"/>
        <pt x="1442" y="691" on="0"/>
        <pt x="1442" y="629" on="1"/>
        <pt x="1442" y="560" on="0"/>
        <pt x="1433" y="417" on="0"/>
        <pt x="1422" y="276" on="0"/>
        <pt x="1413" y="140" on="0"/>
        <pt x="1414" y="78" on="1"/>
        <pt x="1448" y="83" on="0"/>
        <pt x="1536" y="109" on="0"/>
        <pt x="1584" y="131" on="1"/>
        <pt x="1604" y="92" on="1"/>
        <pt x="1573" y="71" on="0"/>
        <pt x="1483" y="30" on="0"/>
        <pt x="1392" y="-1" on="0"/>
        <pt x="1314" y="-20" on="0"/>
        <pt x="1295" y="-20" on="1"/>
        <pt x="1260" y="14" on="1"/>
        <pt x="1268" y="79" on="0"/>
        <pt x="1285" y="218" on="0"/>
        <pt x="1298" y="358" on="0"/>
        <pt x="1307" y="497" on="0"/>
        <pt x="1307" y="563" on="1"/>
        <pt x="1307" y="620" on="0"/>
        <pt x="1300" y="724" on="0"/>
        <pt x="1291" y="772" on="1"/>
        <pt x="1258" y="772" on="0"/>
        <pt x="1172" y="738" on="0"/>
        <pt x="1082" y="680" on="0"/>
        <pt x="995" y="602" on="0"/>
        <pt x="927" y="517" on="0"/>
        <pt x="885" y="428" on="0"/>
        <pt x="885" y="387" on="1"/>
        <pt x="885" y="0" on="1"/>
        <pt x="726" y="0" on="1"/>
        <pt x="741" y="142" on="0"/>
        <pt x="764" y="429" on="0"/>
        <pt x="769" y="584" on="1"/>
        <pt x="773" y="705" on="0"/>
        <pt x="778" y="921" on="0"/>
        <pt x="781" y="1118" on="0"/>
        <pt x="782" y="1301" on="0"/>
        <pt x="782" y="1390" on="1"/>
        <pt x="730" y="1409" on="0"/>
        <pt x="624" y="1434" on="0"/>
        <pt x="529" y="1447" on="0"/>
        <pt x="450" y="1452" on="0"/>
        <pt x="426" y="1452" on="1"/>
        <pt x="414" y="1422" on="0"/>
        <pt x="390" y="1341" on="0"/>
        <pt x="371" y="1235" on="0"/>
        <pt x="357" y="1102" on="0"/>
        <pt x="355" y="1020" on="1"/>
        <pt x="351" y="880" on="1"/>
        <pt x="426" y="882" on="0"/>
        <pt x="555" y="887" on="0"/>
        <pt x="603" y="891" on="1"/>
        <pt x="599" y="766" on="1"/>
        <pt x="551" y="766" on="0"/>
        <pt x="420" y="777" on="0"/>
        <pt x="348" y="785" on="1"/>
        <pt x="346" y="716" on="0"/>
        <pt x="341" y="555" on="0"/>
        <pt x="336" y="391" on="0"/>
        <pt x="330" y="232" on="0"/>
        <pt x="325" y="98" on="0"/>
        <pt x="321" y="-1" on="0"/>
        <pt x="319" y="-23" on="1"/>
        <pt x="309" y="-162" on="0"/>
        <pt x="247" y="-360" on="0"/>
        <pt x="154" y="-486" on="0"/>
        <pt x="33" y="-545" on="0"/>
        <pt x="-36" y="-545" on="1"/>
        <pt x="-74" y="-545" on="0"/>
        <pt x="-173" y="-534" on="0"/>
        <pt x="-216" y="-523" on="1"/>
        <pt x="-212" y="-369" on="1"/>
        <pt x="-163" y="-388" on="0"/>
        <pt x="-63" y="-414" on="0"/>
        <pt x="26" y="-430" on="0"/>
        <pt x="99" y="-437" on="0"/>
        <pt x="122" y="-437" on="1"/>
        <pt x="134" y="-407" on="0"/>
        <pt x="156" y="-328" on="0"/>
        <pt x="175" y="-224" on="0"/>
        <pt x="189" y="-93" on="0"/>
        <pt x="192" y="-11" on="1"/>
        <pt x="193" y="14" on="0"/>
        <pt x="196" y="116" on="0"/>
        <pt x="200" y="251" on="0"/>
        <pt x="205" y="411" on="0"/>
        <pt x="210" y="575" on="0"/>
        <pt x="215" y="735" on="0"/>
        <pt x="217" y="803" on="1"/>
        <pt x="161" y="811" on="0"/>
        <pt x="67" y="827" on="0"/>
        <pt x="38" y="834" on="1"/>
        <pt x="40" y="877" on="1"/>
        <pt x="220" y="877" on="1"/>
        <pt x="222" y="931" on="0"/>
        <pt x="226" y="1012" on="0"/>
        <pt x="228" y="1032" on="1"/>
        <pt x="238" y="1175" on="0"/>
        <pt x="301" y="1374" on="0"/>
        <pt x="397" y="1498" on="0"/>
        <pt x="525" y="1554" on="0"/>
        <pt x="602" y="1554" on="1"/>
        <pt x="622" y="1554" on="0"/>
        <pt x="671" y="1551" on="0"/>
        <pt x="723" y="1545" on="0"/>
        <pt x="774" y="1537" on="0"/>
        <pt x="797" y="1532" on="1"/>
        <pt x="907" y="1554" on="1"/>
      </contour>
    </TTGlyph>
    <TTGlyph name="f_i" xMin="-216" yMin="-545" xMax="1013" yMax="1554">
      <contour>
        <pt x="866" y="862" on="1"/>
        <pt x="851" y="747" on="0"/>
        <pt x="834" y="542" on="0"/>
        <pt x="825" y="352" on="0"/>
        <pt x="823" y="170" on="0"/>
        <pt x="823" y="78" on="1"/>
        <pt x="857" y="83" on="0"/>
        <pt x="945" y="109" on="0"/>
        <pt x="993" y="131" on="1"/>
        <pt x="1013" y="92" on="1"/>
        <pt x="982" y="71" on="0"/>
        <pt x="890" y="30" on="0"/>
        <pt x="797" y="-1" on="0"/>
        <pt x="717" y="-20" on="0"/>
        <pt x="698" y="-20" on="1"/>
        <pt x="663" y="14" on="1"/>
        <pt x="678" y="123" on="0"/>
        <pt x="695" y="321" on="0"/>
        <pt x="704" y="506" on="0"/>
        <pt x="706" y="682" on="0"/>
        <pt x="706" y="769" on="1"/>
        <pt x="626" y="772" on="0"/>
        <pt x="445" y="783" on="0"/>
        <pt x="348" y="789" on="1"/>
        <pt x="344" y="720" on="0"/>
        <pt x="338" y="559" on="0"/>
        <pt x="333" y="393" on="0"/>
        <pt x="328" y="233" on="0"/>
        <pt x="324" y="99" on="0"/>
        <pt x="321" y="-1" on="0"/>
        <pt x="319" y="-23" on="1"/>
        <pt x="309" y="-162" on="0"/>
        <pt x="247" y="-360" on="0"/>
        <pt x="154" y="-486" on="0"/>
        <pt x="33" y="-545" on="0"/>
        <pt x="-36" y="-545" on="1"/>
        <pt x="-74" y="-545" on="0"/>
        <pt x="-173" y="-534" on="0"/>
        <pt x="-216" y="-523" on="1"/>
        <pt x="-212" y="-369" on="1"/>
        <pt x="-163" y="-388" on="0"/>
        <pt x="-63" y="-414" on="0"/>
        <pt x="26" y="-430" on="0"/>
        <pt x="99" y="-437" on="0"/>
        <pt x="122" y="-437" on="1"/>
        <pt x="134" y="-407" on="0"/>
        <pt x="156" y="-328" on="0"/>
        <pt x="175" y="-224" on="0"/>
        <pt x="189" y="-93" on="0"/>
        <pt x="192" y="-11" on="1"/>
        <pt x="193" y="14" on="0"/>
        <pt x="196" y="116" on="0"/>
        <pt x="200" y="251" on="0"/>
        <pt x="205" y="411" on="0"/>
        <pt x="210" y="575" on="0"/>
        <pt x="215" y="735" on="0"/>
        <pt x="217" y="803" on="1"/>
        <pt x="161" y="811" on="0"/>
        <pt x="67" y="827" on="0"/>
        <pt x="38" y="834" on="1"/>
        <pt x="40" y="877" on="1"/>
        <pt x="220" y="877" on="1"/>
        <pt x="222" y="931" on="0"/>
        <pt x="226" y="1012" on="0"/>
        <pt x="228" y="1032" on="1"/>
        <pt x="239" y="1182" on="0"/>
        <pt x="305" y="1383" on="0"/>
        <pt x="409" y="1504" on="0"/>
        <pt x="547" y="1554" on="0"/>
        <pt x="630" y="1554" on="1"/>
        <pt x="673" y="1554" on="0"/>
        <pt x="781" y="1543" on="0"/>
        <pt x="829" y="1532" on="1"/>
        <pt x="823" y="1383" on="1"/>
        <pt x="764" y="1402" on="0"/>
        <pt x="646" y="1427" on="0"/>
        <pt x="540" y="1441" on="0"/>
        <pt x="453" y="1446" on="0"/>
        <pt x="425" y="1446" on="1"/>
        <pt x="411" y="1412" on="0"/>
        <pt x="388" y="1332" on="0"/>
        <pt x="370" y="1230" on="0"/>
        <pt x="357" y="1102" on="0"/>
        <pt x="355" y="1020" on="1"/>
        <pt x="351" y="880" on="1"/>
        <pt x="438" y="881" on="0"/>
        <pt x="569" y="884" on="0"/>
        <pt x="677" y="888" on="0"/>
        <pt x="775" y="894" on="0"/>
        <pt x="831" y="897" on="1"/>
        <pt x="866" y="862" on="1"/>
      </contour>
    </TTGlyph>
    <TTGlyph name="f_j" xMin="-216" yMin="-545" xMax="866" yMax="1554">
      <contour>
        <pt x="866" y="862" on="1"/>
        <pt x="837" y="630" on="0"/>
        <pt x="817" y="191" on="0"/>
        <pt x="811" y="2" on="1"/>
        <pt x="810" y="-31" on="0"/>
        <pt x="772" y="-124" on="0"/>
        <pt x="712" y="-229" on="0"/>
        <pt x="638" y="-340" on="0"/>
        <pt x="566" y="-439" on="0"/>
        <pt x="501" y="-521" on="0"/>
        <pt x="481" y="-545" on="1"/>
        <pt x="441" y="-512" on="1"/>
        <pt x="455" y="-492" on="0"/>
        <pt x="500" y="-418" on="0"/>
        <pt x="552" y="-325" on="0"/>
        <pt x="606" y="-221" on="0"/>
        <pt x="650" y="-120" on="0"/>
        <pt x="680" y="-30" on="0"/>
        <pt x="682" y="2" on="1"/>
        <pt x="689" y="101" on="0"/>
        <pt x="696" y="311" on="0"/>
        <pt x="701" y="513" on="0"/>
        <pt x="703" y="697" on="0"/>
        <pt x="705" y="769" on="1"/>
        <pt x="626" y="772" on="0"/>
        <pt x="444" y="783" on="0"/>
        <pt x="348" y="789" on="1"/>
        <pt x="344" y="720" on="0"/>
        <pt x="338" y="559" on="0"/>
        <pt x="333" y="393" on="0"/>
        <pt x="328" y="233" on="0"/>
        <pt x="324" y="99" on="0"/>
        <pt x="321" y="-1" on="0"/>
        <pt x="319" y="-23" on="1"/>
        <pt x="309" y="-162" on="0"/>
        <pt x="247" y="-360" on="0"/>
        <pt x="154" y="-486" on="0"/>
        <pt x="33" y="-545" on="0"/>
        <pt x="-36" y="-545" on="1"/>
        <pt x="-74" y="-545" on="0"/>
        <pt x="-173" y="-534" on="0"/>
        <pt x="-216" y="-523" on="1"/>
        <pt x="-212" y="-369" on="1"/>
        <pt x="-163" y="-388" on="0"/>
        <pt x="-63" y="-414" on="0"/>
        <pt x="26" y="-430" on="0"/>
        <pt x="99" y="-437" on="0"/>
        <pt x="122" y="-437" on="1"/>
        <pt x="134" y="-407" on="0"/>
        <pt x="156" y="-328" on="0"/>
        <pt x="175" y="-224" on="0"/>
        <pt x="189" y="-93" on="0"/>
        <pt x="192" y="-11" on="1"/>
        <pt x="193" y="14" on="0"/>
        <pt x="196" y="116" on="0"/>
        <pt x="200" y="251" on="0"/>
        <pt x="205" y="411" on="0"/>
        <pt x="210" y="575" on="0"/>
        <pt x="215" y="735" on="0"/>
        <pt x="217" y="803" on="1"/>
        <pt x="161" y="811" on="0"/>
        <pt x="67" y="827" on="0"/>
        <pt x="38" y="834" on="1"/>
        <pt x="40" y="877" on="1"/>
        <pt x="220" y="877" on="1"/>
        <pt x="222" y="931" on="0"/>
        <pt x="226" y="1012" on="0"/>
        <pt x="228" y="1032" on="1"/>
        <pt x="239" y="1182" on="0"/>
        <pt x="305" y="1383" on="0"/>
        <pt x="409" y="1504" on="0"/>
        <pt x="547" y="1554" on="0"/>
        <pt x="630" y="1554" on="1"/>
        <pt x="673" y="1554" on="0"/>
        <pt x="781" y="1543" on="0"/>
        <pt x="829" y="1532" on="1"/>
        <pt x="823" y="1383" on="1"/>
        <pt x="764" y="1402" on="0"/>
        <pt x="646" y="1427" on="0"/>
        <pt x="540" y="1441" on="0"/>
        <pt x="453" y="1446" on="0"/>
        <pt x="425" y="1446" on="1"/>
        <pt x="411" y="1412" on="0"/>
        <pt x="388" y="1332" on="0"/>
        <pt x="370" y="1230" on="0"/>
        <pt x="357" y="1102" on="0"/>
        <pt x="355" y="1020" on="1"/>
        <pt x="351" y="880" on="1"/>
        <pt x="438" y="881" on="0"/>
        <pt x="569" y="884" on="0"/>
        <pt x="677" y="888" on="0"/>
        <pt x="775" y="894" on="0"/>
        <pt x="831" y="897" on="1"/>
        <pt x="866" y="862" on="1"/>
      </contour>
    </TTGlyph>
    <TTGlyph name="f_k" xMin="-216" yMin="-545" xMax="1519" yMax="1554">
      <contour>
        <pt x="782" y="1390" on="1"/>
        <pt x="730" y="1409" on="0"/>
        <pt x="624" y="1434" on="0"/>
        <pt x="529" y="1447" on="0"/>
        <pt x="450" y="1452" on="0"/>
        <pt x="426" y="1452" on="1"/>
        <pt x="414" y="1422" on="0"/>
        <pt x="390" y="1341" on="0"/>
        <pt x="371" y="1235" on="0"/>
        <pt x="357" y="1102" on="0"/>
        <pt x="355" y="1020" on="1"/>
        <pt x="351" y="880" on="1"/>
        <pt x="426" y="882" on="0"/>
        <pt x="555" y="887" on="0"/>
        <pt x="603" y="891" on="1"/>
        <pt x="599" y="766" on="1"/>
        <pt x="551" y="766" on="0"/>
        <pt x="420" y="777" on="0"/>
        <pt x="348" y="785" on="1"/>
        <pt x="346" y="716" on="0"/>
        <pt x="341" y="555" on="0"/>
        <pt x="336" y="391" on="0"/>
        <pt x="330" y="232" on="0"/>
        <pt x="325" y="98" on="0"/>
        <pt x="321" y="-1" on="0"/>
        <pt x="319" y="-23" on="1"/>
        <pt x="309" y="-162" on="0"/>
        <pt x="247" y="-360" on="0"/>
        <pt x="154" y="-486" on="0"/>
        <pt x="33" y="-545" on="0"/>
        <pt x="-36" y="-545" on="1"/>
        <pt x="-74" y="-545" on="0"/>
        <pt x="-173" y="-534" on="0"/>
        <pt x="-216" y="-523" on="1"/>
        <pt x="-212" y="-369" on="1"/>
        <pt x="-163" y="-388" on="0"/>
        <pt x="-63" y="-414" on="0"/>
        <pt x="26" y="-430" on="0"/>
        <pt x="99" y="-437" on="0"/>
        <pt x="122" y="-437" on="1"/>
        <pt x="134" y="-407" on="0"/>
        <pt x="156" y="-328" on="0"/>
        <pt x="175" y="-224" on="0"/>
        <pt x="189" y="-93" on="0"/>
        <pt x="192" y="-11" on="1"/>
        <pt x="193" y="14" on="0"/>
        <pt x="196" y="116" on="0"/>
        <pt x="200" y="251" on="0"/>
        <pt x="205" y="411" on="0"/>
        <pt x="210" y="575" on="0"/>
        <pt x="215" y="735" on="0"/>
        <pt x="217" y="803" on="1"/>
        <pt x="161" y="811" on="0"/>
        <pt x="67" y="827" on="0"/>
        <pt x="38" y="834" on="1"/>
        <pt x="40" y="877" on="1"/>
        <pt x="220" y="877" on="1"/>
        <pt x="222" y="931" on="0"/>
        <pt x="226" y="1012" on="0"/>
        <pt x="228" y="1032" on="1"/>
        <pt x="238" y="1175" on="0"/>
        <pt x="301" y="1374" on="0"/>
        <pt x="397" y="1498" on="0"/>
        <pt x="525" y="1554" on="0"/>
        <pt x="602" y="1554" on="1"/>
        <pt x="622" y="1554" on="0"/>
        <pt x="671" y="1551" on="0"/>
        <pt x="723" y="1545" on="0"/>
        <pt x="774" y="1537" on="0"/>
        <pt x="797" y="1532" on="1"/>
        <pt x="907" y="1554" on="1"/>
        <pt x="942" y="1520" on="1"/>
        <pt x="919" y="1309" on="0"/>
        <pt x="895" y="858" on="0"/>
        <pt x="890" y="612" on="1"/>
        <pt x="907" y="608" on="1"/>
        <pt x="981" y="715" on="0"/>
        <pt x="1188" y="866" on="0"/>
        <pt x="1316" y="897" on="1"/>
        <pt x="1392" y="862" on="1"/>
        <pt x="1392" y="796" on="0"/>
        <pt x="1370" y="666" on="0"/>
        <pt x="1313" y="545" on="0"/>
        <pt x="1214" y="434" on="0"/>
        <pt x="1136" y="387" on="1"/>
        <pt x="1347" y="78" on="1"/>
        <pt x="1381" y="83" on="0"/>
        <pt x="1451" y="103" on="0"/>
        <pt x="1499" y="125" on="1"/>
        <pt x="1519" y="86" on="1"/>
        <pt x="1488" y="65" on="0"/>
        <pt x="1411" y="26" on="0"/>
        <pt x="1334" y="-3" on="0"/>
        <pt x="1268" y="-20" on="0"/>
        <pt x="1249" y="-20" on="1"/>
        <pt x="1003" y="346" on="1"/>
        <pt x="1064" y="389" on="0"/>
        <pt x="1153" y="494" on="0"/>
        <pt x="1213" y="606" on="0"/>
        <pt x="1243" y="721" on="0"/>
        <pt x="1245" y="774" on="1"/>
        <pt x="1221" y="771" on="0"/>
        <pt x="1149" y="741" on="0"/>
        <pt x="1070" y="691" on="0"/>
        <pt x="991" y="625" on="0"/>
        <pt x="928" y="551" on="0"/>
        <pt x="888" y="472" on="0"/>
        <pt x="888" y="434" on="1"/>
        <pt x="887" y="402" on="0"/>
        <pt x="886" y="298" on="0"/>
        <pt x="886" y="178" on="0"/>
        <pt x="886" y="54" on="0"/>
        <pt x="886" y="0" on="1"/>
        <pt x="727" y="0" on="1"/>
        <pt x="747" y="169" on="0"/>
        <pt x="769" y="536" on="0"/>
        <pt x="780" y="900" on="0"/>
        <pt x="782" y="1244" on="0"/>
      </contour>
    </TTGlyph>
    <TTGlyph name="f_l" xMin="-216" yMin="-545" xMax="1071" yMax="1554">
      <contour>
        <pt x="942" y="1520" on="1"/>
        <pt x="929" y="1407" on="0"/>
        <pt x="911" y="1160" on="0"/>
        <pt x="899" y="904" on="0"/>
        <pt x="891" y="647" on="0"/>
        <pt x="887" y="402" on="0"/>
        <pt x="886" y="175" on="0"/>
        <pt x="886" y="78" on="1"/>
        <pt x="955" y="87" on="0"/>
        <pt x="1050" y="131" on="1"/>
        <pt x="1071" y="92" on="1"/>
        <pt x="1040" y="71" on="0"/>
        <pt x="950" y="30" on="0"/>
        <pt x="859" y="-1" on="0"/>
        <pt x="780" y="-20" on="0"/>
        <pt x="761" y="-20" on="1"/>
        <pt x="727" y="14" on="1"/>
        <pt x="739" y="119" on="0"/>
        <pt x="757" y="350" on="0"/>
        <pt x="769" y="591" on="0"/>
        <pt x="776" y="836" on="0"/>
        <pt x="780" y="1071" on="0"/>
        <pt x="782" y="1293" on="0"/>
        <pt x="782" y="1390" on="1"/>
        <pt x="730" y="1409" on="0"/>
        <pt x="624" y="1434" on="0"/>
        <pt x="529" y="1447" on="0"/>
        <pt x="450" y="1452" on="0"/>
        <pt x="426" y="1452" on="1"/>
        <pt x="414" y="1422" on="0"/>
        <pt x="390" y="1341" on="0"/>
        <pt x="371" y="1235" on="0"/>
        <pt x="357" y="1102" on="0"/>
        <pt x="355" y="1020" on="1"/>
        <pt x="351" y="880" on="1"/>
        <pt x="426" y="882" on="0"/>
        <pt x="555" y="887" on="0"/>
        <pt x="603" y="891" on="1"/>
        <pt x="599" y="766" on="1"/>
        <pt x="551" y="766" on="0"/>
        <pt x="420" y="777" on="0"/>
        <pt x="348" y="785" on="1"/>
        <pt x="346" y="716" on="0"/>
        <pt x="341" y="555" on="0"/>
        <pt x="336" y="391" on="0"/>
        <pt x="330" y="232" on="0"/>
        <pt x="325" y="98" on="0"/>
        <pt x="321" y="-1" on="0"/>
        <pt x="319" y="-23" on="1"/>
        <pt x="309" y="-162" on="0"/>
        <pt x="247" y="-360" on="0"/>
        <pt x="154" y="-486" on="0"/>
        <pt x="33" y="-545" on="0"/>
        <pt x="-36" y="-545" on="1"/>
        <pt x="-74" y="-545" on="0"/>
        <pt x="-173" y="-534" on="0"/>
        <pt x="-216" y="-523" on="1"/>
        <pt x="-212" y="-369" on="1"/>
        <pt x="-163" y="-388" on="0"/>
        <pt x="-63" y="-414" on="0"/>
        <pt x="26" y="-430" on="0"/>
        <pt x="99" y="-437" on="0"/>
        <pt x="122" y="-437" on="1"/>
        <pt x="134" y="-407" on="0"/>
        <pt x="156" y="-328" on="0"/>
        <pt x="175" y="-224" on="0"/>
        <pt x="189" y="-93" on="0"/>
        <pt x="192" y="-11" on="1"/>
        <pt x="193" y="14" on="0"/>
        <pt x="196" y="116" on="0"/>
        <pt x="200" y="251" on="0"/>
        <pt x="205" y="411" on="0"/>
        <pt x="210" y="575" on="0"/>
        <pt x="215" y="735" on="0"/>
        <pt x="217" y="803" on="1"/>
        <pt x="161" y="811" on="0"/>
        <pt x="67" y="827" on="0"/>
        <pt x="38" y="834" on="1"/>
        <pt x="40" y="877" on="1"/>
        <pt x="220" y="877" on="1"/>
        <pt x="222" y="931" on="0"/>
        <pt x="226" y="1012" on="0"/>
        <pt x="228" y="1032" on="1"/>
        <pt x="238" y="1175" on="0"/>
        <pt x="301" y="1374" on="0"/>
        <pt x="397" y="1498" on="0"/>
        <pt x="525" y="1554" on="0"/>
        <pt x="602" y="1554" on="1"/>
        <pt x="622" y="1554" on="0"/>
        <pt x="671" y="1551" on="0"/>
        <pt x="723" y="1545" on="0"/>
        <pt x="774" y="1537" on="0"/>
        <pt x="797" y="1532" on="1"/>
        <pt x="907" y="1554" on="1"/>
        <pt x="942" y="1520" on="1"/>
      </contour>
    </TTGlyph>
    <TTGlyph name="five" xMin="23" yMin="-23" xMax="910" yMax="1495">
      <contour>
        <pt x="867" y="498" on="1"/>
        <pt x="867" y="424" on="0"/>
        <pt x="819" y="289" on="0"/>
        <pt x="735" y="173" on="0"/>
        <pt x="622" y="79" on="0"/>
        <pt x="491" y="13" on="0"/>
        <pt x="349" y="-23" on="0"/>
        <pt x="279" y="-23" on="1"/>
        <pt x="210" y="-23" on="0"/>
        <pt x="80" y="15" on="0"/>
        <pt x="23" y="55" on="1"/>
        <pt x="105" y="193" on="1"/>
        <pt x="171" y="137" on="0"/>
        <pt x="327" y="80" on="0"/>
        <pt x="402" y="80" on="1"/>
        <pt x="464" y="80" on="0"/>
        <pt x="578" y="119" on="0"/>
        <pt x="664" y="200" on="0"/>
        <pt x="715" y="323" on="0"/>
        <pt x="715" y="406" on="1"/>
        <pt x="715" y="560" on="0"/>
        <pt x="558" y="723" on="0"/>
        <pt x="402" y="723" on="1"/>
        <pt x="376" y="723" on="0"/>
        <pt x="318" y="719" on="0"/>
        <pt x="260" y="713" on="0"/>
        <pt x="208" y="705" on="0"/>
        <pt x="189" y="700" on="1"/>
        <pt x="171" y="719" on="1"/>
        <pt x="255" y="1391" on="1"/>
        <pt x="777" y="1391" on="1"/>
        <pt x="859" y="1495" on="1"/>
        <pt x="910" y="1475" on="1"/>
        <pt x="894" y="1441" on="0"/>
        <pt x="871" y="1394" on="0"/>
        <pt x="850" y="1347" on="0"/>
        <pt x="829" y="1293" on="0"/>
        <pt x="814" y="1251" on="1"/>
        <pt x="320" y="1251" on="1"/>
        <pt x="265" y="817" on="1"/>
        <pt x="302" y="826" on="0"/>
        <pt x="401" y="840" on="0"/>
        <pt x="474" y="840" on="1"/>
        <pt x="547" y="840" on="0"/>
        <pt x="688" y="801" on="0"/>
        <pt x="799" y="718" on="0"/>
        <pt x="867" y="588" on="0"/>
      </contour>
    </TTGlyph>
    <TTGlyph name="four" xMin="15" yMin="0" xMax="971" yMax="1419">
      <contour>
        <pt x="604" y="455" on="1"/>
        <pt x="15" y="455" on="1"/>
        <pt x="17" y="516" on="1"/>
        <pt x="723" y="1419" on="1"/>
        <pt x="783" y="1386" on="1"/>
        <pt x="755" y="556" on="1"/>
        <pt x="803" y="559" on="0"/>
        <pt x="882" y="564" on="0"/>
        <pt x="911" y="566" on="1"/>
        <pt x="944" y="569" on="0"/>
        <pt x="971" y="571" on="1"/>
        <pt x="924" y="455" on="1"/>
        <pt x="752" y="455" on="1"/>
        <pt x="740" y="102" on="1"/>
        <pt x="885" y="57" on="1"/>
        <pt x="885" y="0" on="1"/>
        <pt x="864" y="3" on="0"/>
        <pt x="835" y="7" on="1"/>
        <pt x="810" y="9" on="0"/>
        <pt x="736" y="14" on="0"/>
        <pt x="687" y="14" on="1"/>
        <pt x="637" y="14" on="0"/>
        <pt x="515" y="8" on="0"/>
        <pt x="441" y="0" on="1"/>
        <pt x="441" y="57" on="1"/>
        <pt x="467" y="59" on="0"/>
        <pt x="506" y="63" on="0"/>
        <pt x="540" y="67" on="0"/>
        <pt x="572" y="69" on="0"/>
        <pt x="590" y="70" on="1"/>
      </contour>
      <contour>
        <pt x="121" y="532" on="1"/>
        <pt x="239" y="532" on="0"/>
        <pt x="492" y="541" on="0"/>
        <pt x="607" y="547" on="1"/>
        <pt x="631" y="1184" on="1"/>
      </contour>
    </TTGlyph>
</ttFont>
